SplineFontDB: 3.0
FontName: Pontano
FullName: Pontano Sans
Weight: Regular
Copyright: Copyright (c) 2011 by vernon adams. All rights reserved.
ItalicAngle: 0
UnderlinePosition: -205
UnderlineWidth: 102
Ascent: 1638
Descent: 410
UFOAscent: 1474
UFODescent: -410
LayerCount: 2
Layer: 0 0 "Back"  1
Layer: 1 0 "Fore"  0
FSType: 0
OS2Version: 0
OS2_WeightWidthSlopeOnly: 0
OS2_UseTypoMetrics: 1
CreationTime: 1386629321
ModificationTime: 1386632946
PfmFamily: 17
TTFWeight: 400
TTFWidth: 5
LineGap: 0
VLineGap: 0
OS2TypoAscent: 0
OS2TypoAOffset: 1
OS2TypoDescent: 0
OS2TypoDOffset: 1
OS2TypoLinegap: 0
OS2WinAscent: 0
OS2WinAOffset: 1
OS2WinDescent: 0
OS2WinDOffset: 1
HheadAscent: 0
HheadAOffset: 1
HheadDescent: 0
HheadDOffset: 1
OS2Vendor: 'newt'
Lookup: 258 0 0 "'kern' Horizontal Kerning in Latin lookup 0"  {"'kern' Horizontal Kerning in Latin lookup 0 subtable"  } ['kern' ('latn' <'dflt' > ) ]
MarkAttachClasses: 1
DEI: 91125
LangName: 1033 "" "" "" "vernon adams : Pontano Sans : 2-3-2012" "" "2.0" "" "Pontano Sans is a trademark of vernon adams." "vernon adams" "" "Copyright (c) 2011 by vernon adams. All rights reserved." "" "newtypography.co.uk" "" "http://scripts.sil.org/OFL" "" "" "" "Pontano Sans" 
PickledData: "(dp1
S'com.typemytype.robofont.foreground.layerStrokeColor'
p2
(F0.5
F0
F0.5
F0.69999999999999996
tp3
sS'com.typemytype.robofont.guides'
p4
((dp5
S'angle'
p6
I0
sS'name'
p7
NsS'magnetic'
p8
I5
sS'isGlobal'
p9
I1
sS'y'
I1474
sS'x'
I124
s(dp10
g6
I0
sg7
Nsg8
I5
sg9
I1
sS'y'
I-24
sS'x'
I516
s(dp11
g6
I0
sg7
Nsg8
I5
sg9
I1
sS'y'
I78
sS'x'
I311
s(dp12
g6
I0
sg7
Nsg8
I5
sg9
I1
sS'y'
I942
sS'x'
I298
s(dp13
g6
I0
sg7
Nsg8
I5
sg9
I1
sS'y'
I1044
sS'x'
I284
stp14
sS'com.typemytype.robofont.b.layerStrokeColor'
p15
(F1
F0.75
F0
F0.69999999999999996
tp16
sS'com.typemytype.robofont.layerOrder'
p17
(S'b'
tp18
sS'com.typemytype.robofont.segmentType'
p19
S'curve'
p20
sS'com.typemytype.robofont.sort'
p21
((dp22
S'allowPseudoUnicode'
p23
I01
sS'type'
p24
S'cannedDesign'
p25
stp26

StartChar: .notdef
Encoding: 65536 -1 0
Width: 1024
VWidth: 0
Flags: HW
LayerCount: 2
Fore
SplineSet
102 0 m 1
 102 1092 l 1
 922 1092 l 1
 922 0 l 1
 102 0 l 1
204 102 m 1
 820 102 l 1
 820 990 l 1
 204 990 l 1
 204 102 l 1
EndSplineSet
EndChar

StartChar: A
Encoding: 33 65 1
Width: 1240
VWidth: 0
Flags: HW
PickledData: "(dp1
S'com.typemytype.robofont.layerData'
p2
(dp3
s."
LayerCount: 2
Fore
SplineSet
617 1368 m 1
 345 508 l 1
 885 508 l 1
 617 1368 l 1
37 0 m 1
 513 1464 l 1
 725 1464 l 1
 1203 0 l 1
 1053 0 l 1
 919 399 l 1
 311 399 l 1
 183 0 l 1
 37 0 l 1
EndSplineSet
EndChar

StartChar: AE
Encoding: 134 198 2
Width: 2030
VWidth: 0
Flags: HW
PickledData: "(dp1
S'com.typemytype.robofont.layerData'
p2
(dp3
S'b'
(dp4
S'name'
p5
S'AE'
p6
sS'lib'
p7
(dp8
sS'unicodes'
p9
(tsS'width'
p10
I2030
sS'contours'
p11
(tsS'components'
p12
(tsS'anchors'
p13
(tsss."
LayerCount: 2
Fore
SplineSet
431 508 m 1
 974 508 l 1
 974 1406 l 1
 431 508 l 1
-36 0 m 1
 870 1464 l 1
 2005 1464 l 1
 2005 1352 l 1
 1118 1352 l 1
 1118 838 l 1
 1843 838 l 1
 1843 800 1842 761 1842 723 c 1
 1118 723 l 1
 1118 112 l 1
 2015 112 l 1
 2015 0 l 1
 974 0 l 1
 974 399 l 1
 371 399 l 1
 124 0 l 1
 -36 0 l 1
EndSplineSet
EndChar

StartChar: B
Encoding: 34 66 12
Width: 1298
VWidth: 0
Flags: HW
PickledData: "(dp1
S'com.typemytype.robofont.layerData'
p2
(dp3
s."
LayerCount: 2
Fore
SplineSet
294 112 m 1
 608 112 l 2
 829 112 1069 126 1069 415 c 0
 1069 694 889 730 589 730 c 2
 294 730 l 1
 294 112 l 1
294 837 m 1
 561 837 l 2
 875 837 1031 851 1031 1100 c 0
 1031 1343 829 1352 594 1352 c 2
 294 1352 l 1
 294 837 l 1
148 1464 m 1
 587 1464 l 2
 889 1464 1176 1416 1170 1095 c 0
 1167 925 1107 806 881 782 c 1
 1116 759 1214 627 1214 413 c 0
 1214 85 1009 0 551 0 c 2
 148 0 l 1
 148 1464 l 1
EndSplineSet
EndChar

StartChar: C
Encoding: 35 67 13
Width: 1376
VWidth: 0
Flags: HW
PickledData: "(dp1
S'com.typemytype.robofont.layerData'
p2
(dp3
s."
LayerCount: 2
Fore
SplineSet
110 736 m 0
 110 1267 351 1491 734 1491 c 0
 992 1491 1193 1365 1265 1102 c 1
 1131 1071 l 1
 1085 1248 960 1374 729 1374 c 0
 384 1374 263 1133 263 736 c 0
 263 339 384 93 729 93 c 0
 960 93 1085 219 1131 396 c 1
 1265 365 l 1
 1193 102 992 -24 734 -24 c 0
 351 -24 110 205 110 736 c 0
EndSplineSet
EndChar

StartChar: D
Encoding: 36 68 20
Width: 1397
VWidth: 0
Flags: HW
PickledData: "(dp1
S'com.typemytype.robofont.layerData'
p2
(dp3
s."
LayerCount: 2
Fore
SplineSet
294 112 m 1
 597 112 l 2
 1008 112 1140 288 1140 737 c 0
 1140 1131 1037 1352 653 1352 c 2
 294 1352 l 1
 294 112 l 1
148 1464 m 1
 652 1464 l 2
 1064 1464 1287 1280 1287 738 c 0
 1287 203 1083 0 645 0 c 2
 148 0 l 1
 148 1464 l 1
EndSplineSet
EndChar

StartChar: Dcroat
Encoding: 208 272 22
Width: 1391
VWidth: 0
Flags: HW
LayerCount: 2
Fore
SplineSet
0 702 m 1
 0 788 l 1
 140 788 l 1
 140 1464 l 1
 644 1464 l 2
 1056 1464 1270 1280 1270 738 c 0
 1270 203 1075 0 637 0 c 2
 140 0 l 1
 140 702 l 1
 0 702 l 1
645 1350 m 2
 286 1350 l 1
 286 788 l 1
 550 788 l 1
 550 702 l 1
 286 702 l 1
 286 114 l 1
 589 114 l 2
 1000 114 1127 289 1127 737 c 0
 1127 1130 1029 1350 645 1350 c 2
EndSplineSet
EndChar

StartChar: uni01F2
Encoding: 326 498 23
Width: 2278
VWidth: 0
Flags: HW
LayerCount: 2
Fore
SplineSet
1486 919 m 1
 1486 1023 l 1
 2236 1023 l 1
 2236 928 l 1
 1627 103 l 1
 2234 103 l 1
 2234 0 l 1
 1466 0 l 1
 1466 94 l 1
 2067 919 l 1
 1486 919 l 1
653 1350 m 2
 294 1350 l 1
 294 114 l 1
 597 114 l 2
 1008 114 1144 289 1144 737 c 0
 1144 1130 1037 1350 653 1350 c 2
148 1464 m 1
 652 1464 l 2
 1064 1464 1287 1280 1287 738 c 0
 1287 203 1083 0 645 0 c 2
 148 0 l 1
 148 1464 l 1
EndSplineSet
EndChar

StartChar: E
Encoding: 37 69 24
Width: 1202
VWidth: 0
Flags: HW
PickledData: "(dp1
S'com.typemytype.robofont.layerData'
p2
(dp3
S'b'
(dp4
S'name'
p5
S'E'
sS'lib'
p6
(dp7
sS'unicodes'
p8
(tsS'width'
p9
I1202
sS'contours'
p10
((dp11
S'points'
p12
((dp13
S'segmentType'
p14
S'line'
p15
sS'x'
I1128
sS'smooth'
p16
I00
sS'y'
I0
s(dp17
g14
S'line'
p18
sS'x'
I148
sg16
I00
sS'y'
I0
s(dp19
g14
S'line'
p20
sS'x'
I148
sg16
I00
sS'y'
I1464
s(dp21
g14
S'line'
p22
sS'x'
I1117
sg16
I00
sS'y'
I1464
s(dp23
g14
S'line'
p24
sS'x'
I1117
sg16
I00
sS'y'
I1352
s(dp25
g14
S'line'
p26
sS'x'
I294
sg16
I00
sS'y'
I1352
s(dp27
g14
S'line'
p28
sS'x'
I294
sg16
I00
sS'y'
I838
s(dp29
g14
S'line'
p30
sS'x'
I1010
sg16
I00
sS'y'
I838
s(dp31
g14
S'line'
p32
sS'x'
I1010
sg16
I00
sS'y'
I723
s(dp33
g14
S'line'
p34
sS'x'
I294
sg16
I00
sS'y'
I723
s(dp35
g14
S'line'
p36
sS'x'
I294
sg16
I00
sS'y'
I112
s(dp37
g14
S'line'
p38
sS'x'
I1128
sg16
I00
sS'y'
I112
stp39
stp40
sS'components'
p41
(tsS'anchors'
p42
(tsss."
LayerCount: 2
Fore
SplineSet
294 1352 m 1
 294 838 l 1
 1010 838 l 1
 1010 723 l 1
 294 723 l 1
 294 112 l 1
 1128 112 l 1
 1128 0 l 1
 148 0 l 1
 148 1464 l 1
 1117 1464 l 1
 1117 1352 l 1
 294 1352 l 1
EndSplineSet
EndChar

StartChar: Eth
Encoding: 144 208 32
Width: 1444
VWidth: 0
Flags: HW
PickledData: "(dp1
S'com.typemytype.robofont.layerData'
p2
(dp3
S'b'
(dp4
S'name'
p5
S'Eth'
p6
sS'lib'
p7
(dp8
sS'unicodes'
p9
(tsS'width'
p10
I1444
sS'contours'
p11
(tsS'components'
p12
(tsS'anchors'
p13
(tsss."
LayerCount: 2
Fore
SplineSet
0 702 m 1
 0 788 l 1
 550 788 l 1
 550 702 l 1
 0 702 l 1
EndSplineSet
Refer: 20 68 N 1 0 0 1 0 0 2
EndChar

StartChar: Euro
Encoding: 510 8364 33
Width: 1275
VWidth: 0
Flags: HW
PickledData: "(dp1
S'com.typemytype.robofont.layerData'
p2
(dp3
S'b'
(dp4
S'name'
p5
S'Euro'
p6
sS'lib'
p7
(dp8
sS'unicodes'
p9
(tsS'width'
p10
I1275
sS'contours'
p11
(tsS'components'
p12
(tsS'anchors'
p13
(tsss."
LayerCount: 2
Fore
SplineSet
691 796 m 1
 -43 796 l 1
 -43 892 l 1
 691 892 l 1
 691 796 l 1
691 553 m 1
 -43 553 l 1
 -43 649 l 1
 691 649 l 1
 691 553 l 1
EndSplineSet
Refer: 13 67 N 1 0 0 1 0 0 2
EndChar

StartChar: F
Encoding: 38 70 34
Width: 1178
VWidth: 0
Flags: HW
PickledData: "(dp1
S'com.typemytype.robofont.layerData'
p2
(dp3
S'b'
(dp4
S'name'
p5
S'F'
sS'lib'
p6
(dp7
sS'unicodes'
p8
(tsS'width'
p9
F1178.66666667
sS'contours'
p10
((dp11
S'points'
p12
((dp13
S'segmentType'
p14
S'line'
p15
sS'x'
I1117
sS'smooth'
p16
I00
sS'y'
I1352
s(dp17
g14
S'line'
p18
sS'x'
I294
sg16
I00
sS'y'
I1352
s(dp19
g14
S'line'
p20
sS'x'
I294
sg16
I00
sS'y'
I830
s(dp21
g14
S'line'
p22
sS'x'
I1009
sg16
I00
sS'y'
I830
s(dp23
g14
S'line'
p24
sS'x'
I1009
sg16
I00
sS'y'
I716
s(dp25
g14
S'line'
p26
sS'x'
I294
sg16
I00
sS'y'
I716
s(dp27
g14
S'line'
p28
sS'x'
I294
sg16
I00
sS'y'
I0
s(dp29
g14
S'line'
p30
sS'x'
I148
sg16
I00
sS'y'
I0
s(dp31
g14
S'line'
p32
sS'x'
I148
sg16
I00
sS'y'
I1464
s(dp33
g14
S'line'
p34
sS'x'
I1117
sg16
I00
sS'y'
I1464
stp35
stp36
sS'components'
p37
(tsS'anchors'
p38
(tsss."
LayerCount: 2
Fore
SplineSet
294 0 m 1
 148 0 l 1
 148 1464 l 1
 1117 1464 l 1
 1117 1352 l 1
 294 1352 l 1
 294 830 l 1
 1009 830 l 1
 1009 716 l 1
 294 716 l 1
 294 0 l 1
EndSplineSet
EndChar

StartChar: G
Encoding: 39 71 35
Width: 1385
VWidth: 0
Flags: HW
PickledData: "(dp1
S'com.typemytype.robofont.layerData'
p2
(dp3
s."
LayerCount: 2
Fore
SplineSet
737 1491 m 0
 981 1491 1155 1374 1241 1139 c 1
 1115 1095 l 1
 1048 1276 917 1374 736 1374 c 0
 402 1374 263 1149 263 721 c 0
 263 319 398 93 736 93 c 0
 902 93 1106 203 1106 444 c 2
 1106 664 l 1
 734 664 l 1
 734 789 l 1
 1250 789 l 1
 1250 581 l 2
 1250 428 1240 0 1240 0 c 1
 1143 0 l 1
 1115 184 l 1
 1051 58 902 -25 718 -25 c 0
 377 -25 110 168 110 722 c 0
 110 1271 362 1491 737 1491 c 0
EndSplineSet
EndChar

StartChar: H
Encoding: 40 72 40
Width: 1457
VWidth: 0
Flags: HW
PickledData: "(dp1
S'com.typemytype.robofont.layerData'
p2
(dp3
S'b'
(dp4
S'name'
p5
S'H'
sS'lib'
p6
(dp7
sS'unicodes'
p8
(tsS'width'
p9
I1457
sS'contours'
p10
((dp11
S'points'
p12
((dp13
S'segmentType'
p14
S'line'
p15
sS'x'
I1164
sS'smooth'
p16
I00
sS'y'
I836
s(dp17
g14
S'line'
p18
sS'x'
I1164
sg16
I00
sS'y'
I1464
s(dp19
g14
S'line'
p20
sS'x'
I1309
sg16
I00
sS'y'
I1464
s(dp21
g14
S'line'
p22
sS'x'
I1309
sg16
I00
sS'y'
I0
s(dp23
g14
S'line'
p24
sS'x'
I1164
sg16
I00
sS'y'
I0
s(dp25
g14
S'line'
p26
sS'x'
I1164
sg16
I00
sS'y'
I720
s(dp27
g14
S'line'
p28
sS'x'
I294
sg16
I00
sS'y'
I720
s(dp29
g14
S'line'
p30
sS'x'
I294
sg16
I00
sS'y'
I0
s(dp31
g14
S'line'
p32
sS'x'
I148
sg16
I00
sS'y'
I0
s(dp33
g14
S'line'
p34
sS'x'
I148
sg16
I00
sS'y'
I1464
s(dp35
g14
S'line'
p36
sS'x'
I294
sg16
I00
sS'y'
I1464
s(dp37
g14
S'line'
p38
sS'x'
I294
sg16
I00
sS'y'
I836
stp39
stp40
sS'components'
p41
(tsS'anchors'
p42
(tsss."
LayerCount: 2
Fore
SplineSet
294 0 m 1
 148 0 l 1
 148 1464 l 1
 294 1464 l 1
 294 836 l 1
 1164 836 l 1
 1164 1464 l 1
 1310 1464 l 1
 1310 0 l 1
 1164 0 l 1
 1164 720 l 1
 294 720 l 1
 294 0 l 1
EndSplineSet
EndChar

StartChar: Hbar
Encoding: 228 294 41
Width: 1457
VWidth: 0
Flags: HW
LayerCount: 2
Fore
SplineSet
48 1144 m 1
 48 1230 l 1
 148 1230 l 1
 148 1464 l 1
 294 1464 l 1
 294 1230 l 1
 1164 1230 l 1
 1164 1464 l 1
 1309 1464 l 1
 1309 1230 l 1
 1400 1230 l 1
 1400 1144 l 1
 1309 1144 l 1
 1309 0 l 1
 1164 0 l 1
 1164 720 l 1
 294 720 l 1
 294 0 l 1
 148 0 l 1
 148 1144 l 1
 48 1144 l 1
1164 1144 m 1
 294 1144 l 1
 294 836 l 1
 1164 836 l 1
 1164 1144 l 1
EndSplineSet
EndChar

StartChar: I
Encoding: 41 73 42
Width: 464
VWidth: 0
Flags: HW
LayerCount: 2
Fore
SplineSet
309 0 m 1
 163 0 l 1
 163 1464 l 1
 309 1464 l 1
 309 0 l 1
EndSplineSet
EndChar

StartChar: IJ
Encoding: 240 306 43
Width: 1418
VWidth: 0
Flags: HW
LayerCount: 2
Fore
SplineSet
485 334 m 1
 615 369 l 1
 653 198 719 93 881 93 c 1
 1121 95 1137 306 1137 541 c 2
 1137 1464 l 1
 1282 1464 l 1
 1282 544 l 2
 1282 166 1182 -25 869 -25 c 0
 643 -25 528 117 485 334 c 1
309 0 m 1
 163 0 l 1
 163 1464 l 1
 309 1464 l 1
 309 0 l 1
EndSplineSet
EndChar

StartChar: J
Encoding: 42 74 53
Width: 954
VWidth: 0
Flags: HW
LayerCount: 2
Fore
SplineSet
21 334 m 1
 151 369 l 1
 189 198 255 93 417 93 c 1
 657 95 673 306 673 541 c 2
 673 1464 l 1
 818 1464 l 1
 818 544 l 2
 818 166 718 -25 405 -25 c 0
 179 -25 64 117 21 334 c 1
EndSplineSet
EndChar

StartChar: K
Encoding: 43 75 55
Width: 1252
VWidth: 0
Flags: HW
PickledData: "(dp1
S'com.typemytype.robofont.layerData'
p2
(dp3
S'b'
(dp4
S'name'
p5
S'K'
sS'lib'
p6
(dp7
sS'unicodes'
p8
(tsS'width'
p9
I1252
sS'contours'
p10
((dp11
S'points'
p12
((dp13
S'segmentType'
p14
S'line'
p15
sS'x'
I1180
sS'smooth'
p16
I00
sS'y'
I1464
s(dp17
g14
S'line'
p18
sS'x'
I665
sg16
I00
sS'y'
I926
s(dp19
g14
S'line'
p20
sS'x'
I1244
sg16
I00
sS'y'
I0
s(dp21
g14
S'line'
p22
sS'x'
I1077
sg16
I00
sS'y'
I0
s(dp23
g14
S'line'
p24
sS'x'
I562
sg16
I00
sS'y'
I828
s(dp25
g14
S'line'
p26
sS'x'
I294
sg16
I00
sS'y'
I553
s(dp27
g14
S'line'
p28
sS'x'
I294
sg16
I00
sS'y'
I0
s(dp29
g14
S'line'
p30
sS'x'
I148
sg16
I00
sS'y'
I0
s(dp31
g14
S'line'
p32
sS'x'
I148
sg16
I00
sS'y'
I1464
s(dp33
g14
S'line'
p34
sS'x'
I294
sg16
I00
sS'y'
I1464
s(dp35
g14
S'line'
p36
sS'x'
I294
sg16
I00
sS'y'
I726
s(dp37
g14
S'line'
p38
sS'x'
I1003
sg16
I00
sS'y'
I1464
stp39
stp40
sS'components'
p41
(tsS'anchors'
p42
(tsss."
LayerCount: 2
Fore
SplineSet
294 0 m 1
 148 0 l 1
 148 1464 l 1
 294 1464 l 1
 294 724 l 1
 1003 1464 l 1
 1180 1464 l 1
 649 916 l 1
 1244 0 l 1
 1077 0 l 1
 550 814 l 1
 294 550 l 1
 294 0 l 1
EndSplineSet
EndChar

StartChar: L
Encoding: 44 76 57
Width: 1020
VWidth: 0
Flags: HW
PickledData: "(dp1
S'com.typemytype.robofont.layerData'
p2
(dp3
S'b'
(dp4
S'name'
p5
S'L'
sS'lib'
p6
(dp7
sS'unicodes'
p8
(tsS'width'
p9
I1020
sS'contours'
p10
((dp11
S'points'
p12
((dp13
S'segmentType'
p14
S'line'
p15
sS'x'
I1041
sS'smooth'
p16
I00
sS'y'
I0
s(dp17
g14
S'line'
p18
sS'x'
I148
sg16
I00
sS'y'
I0
s(dp19
g14
S'line'
p20
sS'x'
I148
sg16
I00
sS'y'
I1464
s(dp21
g14
S'line'
p22
sS'x'
I294
sg16
I00
sS'y'
I1464
s(dp23
g14
S'line'
p24
sS'x'
I294
sg16
I00
sS'y'
I112
s(dp25
g14
S'line'
p26
sS'x'
I1041
sg16
I00
sS'y'
I112
stp27
stp28
sS'components'
p29
(tsS'anchors'
p30
(tsss."
LayerCount: 2
Fore
SplineSet
294 112 m 1
 1041 112 l 1
 1041 0 l 1
 148 0 l 1
 148 1464 l 1
 294 1464 l 1
 294 112 l 1
EndSplineSet
EndChar

StartChar: Lslash
Encoding: 255 321 62
Width: 1055
VWidth: 0
Flags: HW
PickledData: "(dp1
S'com.typemytype.robofont.layerData'
p2
(dp3
S'b'
(dp4
S'name'
p5
S'Lslash'
p6
sS'lib'
p7
(dp8
sS'unicodes'
p9
(tsS'width'
p10
I1055
sS'contours'
p11
(tsS'components'
p12
(tsS'anchors'
p13
(tsss."
LayerCount: 2
Fore
SplineSet
-21 642 m 1
 -21 764 l 1
 589 1024 l 1
 589 902 l 1
 -21 642 l 1
EndSplineSet
Refer: 57 76 N 1 0 0 1 0 0 2
EndChar

StartChar: M
Encoding: 45 77 63
Width: 1645
VWidth: 0
Flags: HW
PickledData: "(dp1
S'com.typemytype.robofont.layerData'
p2
(dp3
s."
LayerCount: 2
Fore
SplineSet
148 0 m 1
 148 1464 l 1
 359 1464 l 1
 826 405 l 1
 1306 1464 l 1
 1497 1464 l 1
 1497 0 l 1
 1363 0 l 1
 1363 1277 l 1
 888 250 l 1
 753 250 l 1
 287 1282 l 1
 287 0 l 1
 148 0 l 1
EndSplineSet
EndChar

StartChar: N
Encoding: 46 78 64
Width: 1491
VWidth: 0
Flags: HW
PickledData: "(dp1
S'com.typemytype.robofont.layerData'
p2
(dp3
s."
LayerCount: 2
Fore
SplineSet
148 0 m 1
 148 1464 l 1
 311 1464 l 1
 1214 221 l 1
 1214 1464 l 1
 1343 1464 l 1
 1343 0 l 1
 1211 0 l 1
 281 1290 l 1
 281 0 l 1
 148 0 l 1
EndSplineSet
EndChar

StartChar: O
Encoding: 47 79 69
Width: 1441
VWidth: 0
Flags: HW
PickledData: "(dp1
S'com.typemytype.robofont.guides'
p2
((dp3
S'angle'
p4
F90
sS'name'
p5
NsS'magnetic'
p6
I5
sS'isGlobal'
p7
I00
sS'y'
I1471
sS'x'
I723
stp8
sS'com.typemytype.robofont.layerData'
p9
(dp10
s."
LayerCount: 2
Fore
SplineSet
719 1372 m 0
 366 1372 264 1131 264 741 c 0
 264 302 380 92 720 92 c 0
 1060 92 1177 298 1177 740 c 0
 1177 1131 1073 1372 719 1372 c 0
719 1488 m 0
 1099 1488 1331 1281 1331 741 c 0
 1331 193 1109 -24 718 -24 c 0
 335 -24 110 186 110 740 c 0
 110 1282 340 1488 719 1488 c 0
EndSplineSet
EndChar

StartChar: OE
Encoding: 271 338 70
Width: 2171
VWidth: 0
Flags: HW
PickledData: "(dp1
S'com.typemytype.robofont.layerData'
p2
(dp3
S'b'
(dp4
S'name'
p5
S'OE'
p6
sS'lib'
p7
(dp8
sS'unicodes'
p9
(tsS'width'
p10
I2171
sS'contours'
p11
((dp12
S'points'
p13
((dp14
S'segmentType'
p15
S'line'
p16
sS'x'
I2121
sS'smooth'
p17
I00
sS'y'
I113
s(dp18
g15
S'line'
p19
sS'x'
I1310
sg17
I00
sS'y'
I113
s(dp20
g15
S'line'
p21
sS'x'
I1310
sg17
I00
sS'y'
I723
s(dp22
g15
S'line'
p23
sS'x'
I1996
sg17
I00
sS'y'
I723
s(dp24
g15
S'line'
p25
sS'x'
I1996
sg17
I00
sS'y'
I838
s(dp26
g15
S'line'
p27
sS'x'
I1310
sg17
I00
sS'y'
I838
s(dp28
g15
S'line'
p29
sS'x'
I1310
sg17
I00
sS'y'
I1352
s(dp30
g15
S'line'
p31
sS'x'
I2110
sg17
I00
sS'y'
I1352
s(dp32
g15
S'line'
p33
sS'x'
I2110
sg17
I00
sS'y'
I1464
s(dp34
g15
S'line'
p35
sS'x'
I1163
sg17
I00
sS'y'
I1464
s(dp36
S'y'
I1464
sS'x'
I1163
sg17
I00
s(dp37
S'y'
I1414
sS'x'
I1163
sg17
I00
s(dp38
g15
S'curve'
p39
sS'x'
I1163
sg17
I01
sS'y'
I1362
s(dp40
S'y'
I1336
sS'x'
I1163
sg17
I00
s(dp41
S'y'
I1309
sS'x'
I1163
sg17
I00
s(dp42
g15
S'curve'
p43
sS'x'
I1163
sg17
I00
sS'y'
I1288
s(dp44
S'y'
I1430
sS'x'
I1073
sg17
I00
s(dp45
S'y'
I1491
sS'x'
I926
sg17
I00
s(dp46
g15
S'curve'
p47
sS'x'
I721
sg17
I01
sS'y'
I1491
s(dp48
S'y'
I1491
sS'x'
I342
sg17
I00
s(dp49
S'y'
I1282
sS'x'
I112
sg17
I00
s(dp50
g15
S'curve'
p51
sS'x'
I112
sg17
I01
sS'y'
I740
s(dp52
S'y'
I186
sS'x'
I112
sg17
I00
s(dp53
S'y'
I-25
sS'x'
I337
sg17
I00
s(dp54
g15
S'curve'
p55
sS'x'
I720
sg17
I01
sS'y'
I-25
s(dp56
S'y'
I-25
sS'x'
I929
sg17
I00
s(dp57
S'y'
I37
sS'x'
I1074
sg17
I00
s(dp58
g15
S'curve'
p59
sS'x'
I1164
sg17
I00
sS'y'
I180
s(dp60
S'y'
I138
sS'x'
I1164
sg17
I00
s(dp61
S'y'
I72
sS'x'
I1164
sg17
I00
s(dp62
g15
S'curve'
p63
sS'x'
I1164
sg17
I01
sS'y'
I33
s(dp64
S'y'
I13
sS'x'
I1164
sg17
I00
s(dp65
S'y'
I0
sS'x'
I1164
sg17
I00
s(dp66
g15
S'curve'
p67
sS'x'
I1164
sg17
I00
sS'y'
I0
s(dp68
g15
S'line'
p69
sS'x'
I2121
sg17
I00
sS'y'
I0
stp70
s(dp71
g13
((dp72
g15
S'curve'
p73
sS'x'
I720
sg17
I01
sS'y'
I1374
s(dp74
S'y'
I1374
sS'x'
I1074
sg17
I00
s(dp75
S'y'
I1130
sS'x'
I1164
sg17
I00
s(dp76
g15
S'curve'
p77
sS'x'
I1164
sg17
I01
sS'y'
I740
s(dp78
g15
S'line'
p79
sS'x'
I1164
sg17
I01
sS'y'
I725
s(dp80
S'y'
I293
sS'x'
I1164
sg17
I00
s(dp81
S'y'
I93
sS'x'
I1056
sg17
I00
s(dp82
g15
S'curve'
p83
sS'x'
I721
sg17
I01
sS'y'
I93
s(dp84
S'y'
I93
sS'x'
I383
sg17
I00
s(dp85
S'y'
I302
sS'x'
I265
sg17
I00
s(dp86
g15
S'curve'
p87
sS'x'
I265
sg17
I01
sS'y'
I741
s(dp88
S'y'
I1130
sS'x'
I265
sg17
I00
s(dp89
S'y'
I1374
sS'x'
I368
sg17
I00
stp90
stp91
sS'components'
p92
(tsS'anchors'
p93
(tsss."
LayerCount: 2
Fore
SplineSet
710 1374 m 0
 358 1371 265 1130 265 741 c 0
 265 302 370 93 708 93 c 0
 1043 93 1164 262 1164 694 c 2
 1164 800 l 2
 1164 1215 1047 1377 710 1374 c 0
2121 113 m 1
 2121 0 l 1
 1164 0 l 1
 1164 0 1164 13 1164 33 c 2
 1164 260 l 1
 1116 80 956 -25 707 -25 c 0
 324 -25 112 186 112 740 c 0
 112 1282 332 1491 711 1491 c 0
 956 1491 1100 1397 1164 1228 c 1
 1163 1362 l 2
 1163 1414 1163 1464 1163 1464 c 1
 2110 1464 l 1
 2110 1352 l 1
 1310 1352 l 1
 1310 838 l 1
 1996 838 l 1
 1996 723 l 1
 1310 723 l 1
 1310 113 l 1
 2121 113 l 1
EndSplineSet
EndChar

StartChar: Oslash
Encoding: 152 216 78
Width: 1497
VWidth: 0
Flags: HW
PickledData: "(dp1
S'com.typemytype.robofont.layerData'
p2
(dp3
S'b'
(dp4
S'name'
p5
S'Oslash'
p6
sS'lib'
p7
(dp8
sS'unicodes'
p9
(tsS'width'
p10
I1497
sS'contours'
p11
(tsS'components'
p12
(tsS'anchors'
p13
(tsss."
LayerCount: 2
Fore
SplineSet
1210 1614 m 1
 320 -204 l 1
 235 -160 l 1
 1126 1658 l 1
 1210 1614 l 1
EndSplineSet
Refer: 69 79 N 1 0 0 1 0 0 2
EndChar

StartChar: P
Encoding: 48 80 80
Width: 1248
VWidth: 0
Flags: HW
PickledData: "(dp1
S'com.typemytype.robofont.layerData'
p2
(dp3
s."
LayerCount: 2
Fore
SplineSet
294 0 m 1
 148 0 l 1
 148 1464 l 1
 534 1464 l 2
 1010 1464 1186 1360 1186 1063 c 0
 1186 724 987 635 475 635 c 2
 294 635 l 1
 294 0 l 1
294 748 m 1
 531 748 l 1
 894 749 1038 807 1038 1055 c 0
 1038 1306 894 1352 511 1352 c 2
 294 1352 l 1
 294 748 l 1
EndSplineSet
EndChar

StartChar: Q
Encoding: 49 81 81
Width: 1434
VWidth: 0
Flags: HW
PickledData: "(dp1
S'com.typemytype.robofont.layerData'
p2
(dp3
S'b'
(dp4
S'name'
p5
S'Q'
sS'lib'
p6
(dp7
sS'unicodes'
p8
(tsS'width'
p9
I1434
sS'contours'
p10
((dp11
S'points'
p12
((dp13
S'segmentType'
p14
S'line'
p15
sS'x'
I1266
sS'smooth'
p16
I00
sS'y'
I-345
s(dp17
g14
S'line'
p18
sS'x'
I1016
sg16
I00
sS'y'
I30
s(dp19
S'y'
I-8
sS'x'
I933
sg16
I00
s(dp20
S'y'
I-25
sS'x'
I835
sg16
I00
s(dp21
g14
S'curve'
p22
sS'x'
I722
sg16
I01
sS'y'
I-25
s(dp23
S'y'
I-25
sS'x'
I339
sg16
I00
s(dp24
S'y'
I186
sS'x'
I114
sg16
I00
s(dp25
g14
S'curve'
p26
sS'x'
I114
sg16
I01
sS'y'
I740
s(dp27
S'y'
I1282
sS'x'
I114
sg16
I00
s(dp28
S'y'
I1491
sS'x'
I344
sg16
I00
s(dp29
g14
S'curve'
p30
sS'x'
I723
sg16
I01
sS'y'
I1491
s(dp31
S'y'
I1491
sS'x'
I1103
sg16
I00
s(dp32
S'y'
I1281
sS'x'
I1335
sg16
I00
s(dp33
g14
S'curve'
p34
sS'x'
I1335
sg16
I01
sS'y'
I741
s(dp35
S'y'
I419
sS'x'
I1335
sg16
I00
s(dp36
S'y'
I211
sS'x'
I1258
sg16
I00
s(dp37
g14
S'curve'
p38
sS'x'
I1116
sg16
I00
sS'y'
I94
s(dp39
g14
S'line'
p40
sS'x'
I1374
sg16
I00
sS'y'
I-263
stp41
s(dp42
g12
((dp43
g14
S'curve'
p44
sS'x'
I722
sg16
I01
sS'y'
I1374
s(dp45
S'y'
I1374
sS'x'
I370
sg16
I00
s(dp46
S'y'
I1130
sS'x'
I267
sg16
I00
s(dp47
g14
S'curve'
p48
sS'x'
I267
sg16
I01
sS'y'
I741
s(dp49
S'y'
I302
sS'x'
I267
sg16
I00
s(dp50
S'y'
I93
sS'x'
I385
sg16
I00
s(dp51
g14
S'curve'
p52
sS'x'
I723
sg16
I01
sS'y'
I93
s(dp53
S'y'
I93
sS'x'
I1062
sg16
I00
s(dp54
S'y'
I298
sS'x'
I1180
sg16
I00
s(dp55
g14
S'curve'
p56
sS'x'
I1180
sg16
I01
sS'y'
I740
s(dp57
S'y'
I1130
sS'x'
I1180
sg16
I00
s(dp58
S'y'
I1374
sS'x'
I1076
sg16
I00
stp59
stp60
sS'components'
p61
(tsS'anchors'
p62
(tsss."
LayerCount: 2
Fore
SplineSet
719 1372 m 0
 366 1372 264 1131 264 741 c 0
 264 302 380 92 720 92 c 0
 1060 92 1177 298 1177 740 c 0
 1177 1131 1073 1372 719 1372 c 0
719 1488 m 0
 1099 1488 1331 1281 1331 741 c 0
 1331 418 1254 210 1111 94 c 1
 1374 -263 l 1
 1266 -345 l 1
 1008 31 l 1
 926 -6 829 -24 718 -24 c 0
 335 -24 110 186 110 740 c 0
 110 1282 340 1488 719 1488 c 0
EndSplineSet
EndChar

StartChar: R
Encoding: 50 82 82
Width: 1286
VWidth: 0
Flags: HW
PickledData: "(dp1
S'com.typemytype.robofont.layerData'
p2
(dp3
s."
LayerCount: 2
Fore
SplineSet
294 0 m 1
 148 0 l 1
 148 1464 l 1
 677 1464 l 2
 1064 1464 1214 1346 1214 1081 c 0
 1214 869 1107 733 898 695 c 1
 1238 0 l 1
 1082 0 l 1
 750 675 l 1
 294 675 l 1
 294 0 l 1
294 786 m 1
 674 786 l 2
 888 786 1065 825 1065 1079 c 0
 1065 1336 869 1352 668 1352 c 2
 294 1352 l 1
 294 786 l 1
EndSplineSet
EndChar

StartChar: S
Encoding: 51 83 86
Width: 1216
VWidth: 0
Flags: HW
PickledData: "(dp1
S'com.typemytype.robofont.layerData'
p2
(dp3
S'b'
(dp4
S'name'
p5
S'S'
sS'lib'
p6
(dp7
sS'unicodes'
p8
(tsS'width'
p9
I1216
sS'contours'
p10
((dp11
S'points'
p12
((dp13
S'segmentType'
p14
S'curve'
p15
sS'x'
I618
sS'smooth'
p16
I01
sS'y'
I1491
s(dp17
S'y'
I1491
sS'x'
I850
sg16
I00
s(dp18
S'y'
I1420
sS'x'
I1009
sg16
I00
s(dp19
g14
S'curve'
p20
sS'x'
I1127
sg16
I00
sS'y'
I1240
s(dp21
g14
S'line'
p22
sS'x'
I1019
sg16
I00
sS'y'
I1160
s(dp23
S'y'
I1303
sS'x'
I939
sg16
I00
s(dp24
S'y'
I1374
sS'x'
I797
sg16
I00
s(dp25
g14
S'curve'
p26
sS'x'
I639
sg16
I01
sS'y'
I1374
s(dp27
S'y'
I1374
sS'x'
I446
sg16
I00
s(dp28
S'y'
I1308
sS'x'
I284
sg16
I00
s(dp29
g14
S'curve'
p30
sS'x'
I284
sg16
I01
sS'y'
I1137
s(dp31
S'y'
I934
sS'x'
I284
sg16
I00
s(dp32
S'y'
I897
sS'x'
I540
sg16
I00
s(dp33
g14
S'curve'
p34
sS'x'
I713
sg16
I01
sS'y'
I829
s(dp35
S'y'
I726
sS'x'
I982
sg16
I00
s(dp36
S'y'
I646
sS'x'
I1158
sg16
I00
s(dp37
g14
S'curve'
p38
sS'x'
I1158
sg16
I01
sS'y'
I393
s(dp39
S'y'
I126
sS'x'
I1158
sg16
I00
s(dp40
S'y'
I-25
sS'x'
I941
sg16
I00
s(dp41
g14
S'curve'
p42
sS'x'
I615
sg16
I01
sS'y'
I-25
s(dp43
S'y'
I-25
sS'x'
I390
sg16
I00
s(dp44
S'y'
I69
sS'x'
I101
sg16
I00
s(dp45
g14
S'curve'
p46
sS'x'
I45
sg16
I00
sS'y'
I373
s(dp47
g14
S'line'
p48
sS'x'
I168
sg16
I00
sS'y'
I426
s(dp49
S'y'
I200
sS'x'
I229
sg16
I00
s(dp50
S'y'
I93
sS'x'
I380
sg16
I00
s(dp51
g14
S'curve'
p52
sS'x'
I630
sg16
I01
sS'y'
I93
s(dp53
S'y'
I93
sS'x'
I806
sg16
I00
s(dp54
S'y'
I161
sS'x'
I1005
sg16
I00
s(dp55
g14
S'curve'
p56
sS'x'
I1005
sg16
I01
sS'y'
I388
s(dp57
S'y'
I584
sS'x'
I1005
sg16
I00
s(dp58
S'y'
I633
sS'x'
I849
sg16
I00
s(dp59
g14
S'curve'
p60
sS'x'
I565
sg16
I01
sS'y'
I731
s(dp61
S'y'
I806
sS'x'
I355
sg16
I00
s(dp62
S'y'
I880
sS'x'
I131
sg16
I00
s(dp63
g14
S'curve'
p64
sS'x'
I131
sg16
I01
sS'y'
I1125
s(dp65
S'y'
I1378
sS'x'
I131
sg16
I00
s(dp66
S'y'
I1491
sS'x'
I372
sg16
I00
stp67
stp68
sS'components'
p69
(tsS'anchors'
p70
(tsss."
LayerCount: 2
Fore
SplineSet
618 1491 m 0
 850 1491 1009 1420 1127 1240 c 1
 1019 1160 l 1
 939 1303 797 1374 639 1374 c 0
 446 1374 284 1308 284 1137 c 0
 284 934 492 901 713 829 c 0
 1001 735 1158 646 1158 393 c 0
 1158 126 941 -25 615 -25 c 0
 390 -25 101 69 45 373 c 1
 168 426 l 1
 229 200 380 93 630 93 c 0
 806 93 1005 161 1005 388 c 0
 1005 584 882 631 565 731 c 0
 328 806 131 880 131 1125 c 0
 131 1378 372 1491 618 1491 c 0
EndSplineSet
EndChar

StartChar: T
Encoding: 52 84 92
Width: 1119
VWidth: 0
Flags: HW
PickledData: "(dp1
S'com.typemytype.robofont.layerData'
p2
(dp3
S'b'
(dp4
S'name'
p5
S'T'
sS'lib'
p6
(dp7
sS'unicodes'
p8
(tsS'width'
p9
I1119
sS'contours'
p10
((dp11
S'points'
p12
((dp13
S'segmentType'
p14
S'line'
p15
sS'x'
I9
sS'smooth'
p16
I00
sS'y'
I1352
s(dp17
g14
S'line'
p18
sS'x'
I9
sg16
I00
sS'y'
I1464
s(dp19
g14
S'line'
p20
sS'x'
I1110
sg16
I00
sS'y'
I1464
s(dp21
g14
S'line'
p22
sS'x'
I1110
sg16
I00
sS'y'
I1352
s(dp23
g14
S'line'
p24
sS'x'
I636
sg16
I00
sS'y'
I1352
s(dp25
g14
S'line'
p26
sS'x'
I636
sg16
I00
sS'y'
I0
s(dp27
g14
S'line'
p28
sS'x'
I483
sg16
I00
sS'y'
I0
s(dp29
g14
S'line'
p30
sS'x'
I483
sg16
I00
sS'y'
I1352
stp31
stp32
sS'components'
p33
(tsS'anchors'
p34
(tsss."
LayerCount: 2
Fore
SplineSet
9 1352 m 1
 9 1464 l 1
 1110 1464 l 1
 1110 1352 l 1
 639 1352 l 1
 639 0 l 1
 493 0 l 1
 493 1352 l 1
 9 1352 l 1
EndSplineSet
EndChar

StartChar: Thorn
Encoding: 158 222 94
Width: 1261
VWidth: 0
Flags: HW
PickledData: "(dp1
S'com.typemytype.robofont.layerData'
p2
(dp3
s."
LayerCount: 2
Fore
SplineSet
140 0 m 1
 140 1464 l 1
 296 1464 l 1
 296 1194 l 1
 561 1194 l 2
 1030 1194 1203 1062 1203 773 c 0
 1203 442 1007 335 502 335 c 2
 296 335 l 1
 296 0 l 1
 140 0 l 1
296 1080 m 1
 296 449 l 1
 558 449 l 1
 914 450 1055 526 1055 765 c 0
 1055 1005 914 1080 538 1080 c 2
 296 1080 l 1
EndSplineSet
EndChar

StartChar: U
Encoding: 53 85 95
Width: 1346
VWidth: 0
Flags: HW
PickledData: "(dp1
S'com.typemytype.robofont.layerData'
p2
(dp3
s."
LayerCount: 2
Fore
SplineSet
123 570 m 2
 123 1464 l 1
 269 1464 l 1
 269 574 l 2
 269 273 348 92 676 92 c 0
 1002 92 1077 279 1077 574 c 2
 1077 1464 l 1
 1223 1464 l 1
 1223 577 l 2
 1223 157 1046 -24 670 -24 c 0
 308 -24 123 149 123 570 c 2
EndSplineSet
EndChar

StartChar: V
Encoding: 54 86 105
Width: 1164
VWidth: 0
Flags: HW
PickledData: "(dp1
S'com.typemytype.robofont.layerData'
p2
(dp3
s."
LayerCount: 2
Fore
SplineSet
513 0 m 1
 -8 1464 l 1
 143 1464 l 1
 586 193 l 1
 1018 1464 l 1
 1162 1464 l 1
 651 0 l 1
 513 0 l 1
EndSplineSet
EndChar

StartChar: W
Encoding: 55 87 106
Width: 1797
VWidth: 0
Flags: HW
PickledData: "(dp1
S'com.typemytype.robofont.layerData'
p2
(dp3
S'b'
(dp4
S'name'
p5
S'W'
sS'lib'
p6
(dp7
sS'unicodes'
p8
(tsS'width'
p9
I1797
sS'contours'
p10
(tsS'components'
p11
(tsS'anchors'
p12
(tsss."
LayerCount: 2
Fore
SplineSet
429 0 m 1
 12 1464 l 1
 164 1464 l 1
 490 234 l 1
 865 1464 l 1
 969 1464 l 1
 1316 217 l 1
 1646 1464 l 1
 1785 1464 l 1
 1370 0 l 1
 1244 0 l 1
 907 1187 l 1
 540 0 l 1
 429 0 l 1
EndSplineSet
EndChar

StartChar: X
Encoding: 56 88 107
Width: 1245
VWidth: 0
Flags: HW
PickledData: "(dp1
S'com.typemytype.robofont.layerData'
p2
(dp3
S'b'
(dp4
S'name'
p5
S'X'
sS'lib'
p6
(dp7
sS'unicodes'
p8
(tsS'width'
p9
I1245
sS'contours'
p10
((dp11
S'points'
p12
((dp13
S'segmentType'
p14
S'curve'
p15
sS'x'
I626
sS'smooth'
p16
I00
sS'y'
I889
s(dp17
g14
S'line'
p18
sS'x'
I1029
sg16
I00
sS'y'
I1464
s(dp19
g14
S'line'
p20
sS'x'
I1195
sg16
I00
sS'y'
I1464
s(dp21
g14
S'line'
p22
sS'x'
I706
sg16
I00
sS'y'
I767
s(dp23
S'y'
I767
sS'x'
I706
sg16
I00
s(dp24
S'y'
I641
sS'x'
I620
sg16
I00
s(dp25
g14
S'curve'
p26
sS'x'
I620
sg16
I00
sS'y'
I641
s(dp27
g14
S'line'
p28
sS'x'
I173
sg16
I00
sS'y'
I0
s(dp29
g14
S'line'
p30
sS'x'
I6
sg16
I00
sS'y'
I0
s(dp31
g14
S'line'
p32
sS'x'
I540
sg16
I00
sS'y'
I763
s(dp33
S'y'
I763
sS'x'
I540
sg16
I00
s(dp34
S'y'
I889
sS'x'
I626
sg16
I00
stp35
s(dp36
g12
((dp37
g14
S'curve'
p38
sS'x'
I1239
sg16
I00
sS'y'
I0
s(dp39
g14
S'line'
p40
sS'x'
I1066
sg16
I00
sS'y'
I0
s(dp41
S'y'
I0
sS'x'
I1066
sg16
I00
s(dp42
S'y'
I1464
sS'x'
I51
sg16
I00
s(dp43
g14
S'curve'
p44
sS'x'
I51
sg16
I00
sS'y'
I1464
s(dp45
g14
S'line'
p46
sS'x'
I226
sg16
I00
sS'y'
I1464
s(dp47
S'y'
I1464
sS'x'
I226
sg16
I00
s(dp48
S'y'
I0
sS'x'
I1239
sg16
I00
stp49
stp50
sS'components'
p51
(tsS'anchors'
p52
(tsss."
LayerCount: 2
Fore
SplineSet
1239 0 m 1
 1066 0 l 1
 620 643 l 1
 173 0 l 1
 6 0 l 1
 538 761 l 1
 51 1464 l 1
 226 1464 l 1
 625 887 l 1
 1029 1464 l 1
 1195 1464 l 1
 707 769 l 1
 1239 0 l 1
EndSplineSet
EndChar

StartChar: Y
Encoding: 57 89 108
Width: 1162
VWidth: 0
Flags: HW
PickledData: "(dp1
S'com.typemytype.robofont.layerData'
p2
(dp3
s."
LayerCount: 2
Fore
SplineSet
509 549 m 1
 -3 1464 l 1
 154 1464 l 1
 583 681 l 1
 1009 1464 l 1
 1165 1464 l 1
 654 548 l 1
 654 0 l 1
 509 0 l 1
 509 549 l 1
EndSplineSet
EndChar

StartChar: Z
Encoding: 58 90 111
Width: 1176
VWidth: 0
Flags: HW
PickledData: "(dp1
S'com.typemytype.robofont.layerData'
p2
(dp3
s."
LayerCount: 2
Fore
SplineSet
130 1354 m 1
 130 1464 l 1
 1132 1464 l 1
 1132 1369 l 1
 234 110 l 1
 1139 110 l 1
 1134 0 l 1
 47 0 l 1
 47 98 l 1
 946 1354 l 1
 130 1354 l 1
EndSplineSet
EndChar

StartChar: a
Encoding: 65 97 115
Width: 999
VWidth: 0
Flags: HW
PickledData: "(dp1
S'com.typemytype.robofont.layerData'
p2
(dp3
S'b'
(dp4
S'name'
p5
S'a'
sS'lib'
p6
(dp7
sS'unicodes'
p8
(tsS'width'
p9
I999
sS'contours'
p10
((dp11
S'points'
p12
((dp13
S'segmentType'
p14
S'line'
p15
sS'x'
I756
sS'smooth'
p16
I00
sS'y'
I0
s(dp17
g14
S'line'
p18
sS'x'
I878
sg16
I00
sS'y'
I0
s(dp19
g14
S'line'
p20
sS'x'
I878
sg16
I01
sS'y'
I673
s(dp21
S'y'
I927
sS'x'
I878
sg16
I00
s(dp22
S'y'
I1044
sS'x'
I744
sg16
I00
s(dp23
g14
S'curve'
p24
sS'x'
I502
sg16
I01
sS'y'
I1044
s(dp25
S'y'
I1044
sS'x'
I340
sg16
I00
s(dp26
S'y'
I991
sS'x'
I225
sg16
I00
s(dp27
g14
S'curve'
p28
sS'x'
I119
sg16
I00
sS'y'
I910
s(dp29
S'y'
I910
sS'x'
I119
sg16
I00
s(dp30
S'y'
I825
sS'x'
I176
sg16
I00
s(dp31
g14
S'curve'
p32
sS'x'
I176
sg16
I00
sS'y'
I824
s(dp33
S'y'
I900
sS'x'
I275
sg16
I00
s(dp34
S'y'
I940
sS'x'
I380
sg16
I00
s(dp35
g14
S'curve'
p36
sS'x'
I494
sg16
I01
sS'y'
I940
s(dp37
S'y'
I940
sS'x'
I666
sg16
I00
s(dp38
S'y'
I875
sS'x'
I736
sg16
I00
s(dp39
g14
S'curve'
p40
sS'x'
I736
sg16
I01
sS'y'
I643
s(dp41
g14
S'line'
p42
sS'x'
I736
sg16
I00
sS'y'
I593
s(dp43
g14
S'line'
p44
sS'x'
I637
sg16
I01
sS'y'
I574
s(dp45
S'y'
I511
sS'x'
I301
sg16
I00
s(dp46
S'y'
I485
sS'x'
I83
sg16
I00
s(dp47
g14
S'curve'
p48
sS'x'
I83
sg16
I01
sS'y'
I229
s(dp49
S'y'
I50
sS'x'
I83
sg16
I00
s(dp50
S'y'
I-25
sS'x'
I221
sg16
I00
s(dp51
g14
S'curve'
p52
sS'x'
I382
sg16
I01
sS'y'
I-25
s(dp53
S'y'
I-25
sS'x'
I519
sg16
I00
s(dp54
S'y'
I26
sS'x'
I630
sg16
I00
s(dp55
g14
S'curve'
p56
sS'x'
I743
sg16
I00
sS'y'
I122
stp57
s(dp58
g12
((dp59
g14
S'line'
p60
sS'x'
I736
sg16
I00
sS'y'
I218
s(dp61
S'y'
I142
sS'x'
I646
sg16
I00
s(dp62
S'y'
I74
sS'x'
I527
sg16
I00
s(dp63
g14
S'curve'
p64
sS'x'
I406
sg16
I01
sS'y'
I74
s(dp65
S'y'
I74
sS'x'
I274
sg16
I00
s(dp66
S'y'
I123
sS'x'
I217
sg16
I00
s(dp67
g14
S'curve'
p68
sS'x'
I217
sg16
I01
sS'y'
I244
s(dp69
S'y'
I381
sS'x'
I217
sg16
I00
s(dp70
S'y'
I418
sS'x'
I305
sg16
I00
s(dp71
g14
S'curve'
p72
sS'x'
I618
sg16
I01
sS'y'
I477
s(dp73
g14
S'line'
p74
sS'x'
I736
sg16
I00
sS'y'
I500
stp75
stp76
sS'components'
p77
(tsS'anchors'
p78
(tsss."
LayerCount: 2
Fore
SplineSet
756 0 m 1
 743 133 l 1
 668 30 553 -25 398 -25 c 0
 237 -25 103 50 103 229 c 0
 103 485 290 526 628 573 c 1
 736 589 l 1
 736 647 l 2
 736 879 686 942 514 942 c 0
 400 942 289 909 190 833 c 1
 190 834 133 918 133 918 c 1
 239 999 360 1044 522 1044 c 0
 763 1044 878 926 878 673 c 2
 878 0 l 1
 756 0 l 1
736 228 m 1
 736 500 l 1
 609 480 l 1
 294 433 235 380 235 243 c 0
 235 124 293 73 423 73 c 0
 544 73 649 121 736 228 c 1
EndSplineSet
EndChar

StartChar: acute
Encoding: 116 180 119
Width: 496
VWidth: 0
Flags: HW
PickledData: "(dp1
S'com.typemytype.robofont.layerData'
p2
(dp3
S'b'
(dp4
S'name'
p5
S'acute'
p6
sS'lib'
p7
(dp8
sS'unicodes'
p9
(tsS'width'
p10
I496
sS'contours'
p11
(tsS'components'
p12
(tsS'anchors'
p13
(tsss."
LayerCount: 2
Fore
SplineSet
447 1492 m 1
 141 1172 l 1
 47 1173 l 1
 252 1492 l 1
 447 1492 l 1
EndSplineSet
EndChar

StartChar: ae
Encoding: 166 230 121
Width: 1667
VWidth: 0
Flags: HW
PickledData: "(dp1
S'com.typemytype.robofont.layerData'
p2
(dp3
S'b'
(dp4
S'name'
p5
S'ae'
p6
sS'lib'
p7
(dp8
sS'unicodes'
p9
(tsS'width'
p10
I1667
sS'contours'
p11
((dp12
S'points'
p13
((dp14
S'segmentType'
p15
S'line'
p16
sS'x'
I133
sS'smooth'
p17
I00
sS'y'
I927
s(dp18
S'y'
I1006
sS'x'
I247
sg17
I00
s(dp19
S'y'
I1044
sS'x'
I366
sg17
I00
s(dp20
g15
S'curve'
p21
sS'x'
I518
sg17
I01
sS'y'
I1044
s(dp22
S'y'
I1044
sS'x'
I682
sg17
I00
s(dp23
S'y'
I979
sS'x'
I814
sg17
I00
s(dp24
g15
S'curve'
p25
sS'x'
I842
sg17
I00
sS'y'
I832
s(dp26
S'y'
I966
sS'x'
I903
sg17
I00
s(dp27
S'y'
I1044
sS'x'
I1042
sg17
I00
s(dp28
g15
S'curve'
p29
sS'x'
I1191
sg17
I01
sS'y'
I1044
s(dp30
S'y'
I1044
sS'x'
I1476
sg17
I00
s(dp31
S'y'
I844
sS'x'
I1587
sg17
I00
s(dp32
g15
S'curve'
p33
sS'x'
I1587
sg17
I01
sS'y'
I572
s(dp34
S'y'
I563
sS'x'
I1587
sg17
I00
s(dp35
S'y'
I525
sS'x'
I1586
sg17
I00
s(dp36
g15
S'curve'
p37
sS'x'
I1584
sg17
I00
sS'y'
I508
s(dp38
g15
S'line'
p39
sS'x'
I900
sg17
I00
sS'y'
I494
s(dp40
S'y'
I272
sS'x'
I900
sg17
I00
s(dp41
S'y'
I81
sS'x'
I963
sg17
I00
s(dp42
g15
S'curve'
p43
sS'x'
I1191
sg17
I01
sS'y'
I81
s(dp44
S'y'
I81
sS'x'
I1367
sg17
I00
s(dp45
S'y'
I219
sS'x'
I1439
sg17
I00
s(dp46
g15
S'curve'
p47
sS'x'
I1455
sg17
I00
sS'y'
I273
s(dp48
g15
S'line'
p49
sS'x'
I1570
sg17
I00
sS'y'
I234
s(dp50
S'y'
I83
sS'x'
I1515
sg17
I00
s(dp51
S'y'
I-22
sS'x'
I1369
sg17
I00
s(dp52
g15
S'curve'
p53
sS'x'
I1195
sg17
I00
sS'y'
I-24
s(dp54
S'y'
I-24
sS'x'
I1037
sg17
I00
s(dp55
S'y'
I49
sS'x'
I895
sg17
I00
s(dp56
g15
S'curve'
p57
sS'x'
I845
sg17
I00
sS'y'
I195
s(dp58
S'y'
I18
sS'x'
I747
sg17
I00
s(dp59
S'y'
I-25
sS'x'
I593
sg17
I00
s(dp60
g15
S'curve'
p61
sS'x'
I429
sg17
I01
sS'y'
I-25
s(dp62
S'y'
I-25
sS'x'
I254
sg17
I00
s(dp63
S'y'
I58
sS'x'
I84
sg17
I00
s(dp64
g15
S'curve'
p65
sS'x'
I84
sg17
I01
sS'y'
I251
s(dp66
S'y'
I507
sS'x'
I84
sg17
I00
s(dp67
S'y'
I575
sS'x'
I308
sg17
I00
s(dp68
g15
S'curve'
p69
sS'x'
I613
sg17
I01
sS'y'
I581
s(dp70
S'y'
I581
sS'x'
I614
sg17
I00
s(dp71
S'y'
I585
sS'x'
I753
sg17
I00
s(dp72
g15
S'curve'
p73
sS'x'
I752
sg17
I00
sS'y'
I586
s(dp74
S'y'
I820
sS'x'
I752
sg17
I00
s(dp75
S'y'
I940
sS'x'
I725
sg17
I00
s(dp76
g15
S'curve'
p77
sS'x'
I523
sg17
I01
sS'y'
I940
s(dp78
S'y'
I940
sS'x'
I362
sg17
I00
s(dp79
S'y'
I894
sS'x'
I290
sg17
I00
s(dp80
g15
S'curve'
p81
sS'x'
I203
sg17
I00
sS'y'
I838
stp82
s(dp83
g13
((dp84
g15
S'line'
p85
sS'x'
I1450
sg17
I00
sS'y'
I606
s(dp86
S'y'
I816
sS'x'
I1449
sg17
I00
s(dp87
S'y'
I941
sS'x'
I1378
sg17
I00
s(dp88
g15
S'curve'
p89
sS'x'
I1187
sg17
I01
sS'y'
I941
s(dp90
S'y'
I941
sS'x'
I1003
sg17
I00
s(dp91
S'y'
I774
sS'x'
I911
sg17
I00
s(dp92
g15
S'curve'
p93
sS'x'
I901
sg17
I00
sS'y'
I592
stp94
s(dp95
g13
((dp96
g15
S'curve'
p97
sS'x'
I771
sg17
I01
sS'y'
I318
s(dp98
S'y'
I360
sS'x'
I771
sg17
I00
s(dp99
S'y'
I462
sS'x'
I761
sg17
I00
s(dp100
g15
S'curve'
p101
sS'x'
I761
sg17
I00
sS'y'
I487
s(dp102
g15
S'line'
p103
sS'x'
I620
sg17
I00
sS'y'
I482
s(dp104
S'y'
I471
sS'x'
I401
sg17
I00
s(dp105
S'y'
I440
sS'x'
I226
sg17
I00
s(dp106
g15
S'curve'
p107
sS'x'
I226
sg17
I01
sS'y'
I256
s(dp108
S'y'
I134
sS'x'
I226
sg17
I00
s(dp109
S'y'
I80
sS'x'
I334
sg17
I00
s(dp110
g15
S'curve'
p111
sS'x'
I440
sg17
I01
sS'y'
I80
s(dp112
S'y'
I80
sS'x'
I607
sg17
I00
s(dp113
S'y'
I158
sS'x'
I771
sg17
I00
stp114
stp115
sS'components'
p116
(tsS'anchors'
p117
(tsss."
LayerCount: 2
Fore
SplineSet
760 485 m 1
 570 482 l 1
 351 477 215 436 226 256 c 0
 233 134 313 78 440 78 c 0
 642 78 760 154 760 414 c 2
 760 485 l 1
901 590 m 1
 1464 600 l 1
 1454 832 1375 942 1196 942 c 0
 1020 942 909 802 901 590 c 1
133 927 m 1
 247 1006 366 1044 518 1044 c 0
 695 1044 804 977 848 814 c 1
 911 969 1047 1044 1193 1044 c 0
 1478 1044 1587 844 1587 572 c 0
 1587 563 1586 523 1584 506 c 1
 900 494 l 1
 906 250 989 78 1198 78 c 0
 1374 78 1444 204 1474 276 c 1
 1570 234 l 1
 1515 83 1379 -23 1195 -24 c 0
 1053 -24 886 46 831 220 c 1
 777 49 635 -24 429 -24 c 0
 241 -24 92 58 84 251 c 0
 73 503 254 576 563 581 c 2
 760 584 l 1
 757 841 723 934 530 942 c 0
 370 948 274 896 187 840 c 1
 133 927 l 1
EndSplineSet
EndChar

StartChar: ampersand
Encoding: 6 38 124
Width: 1430
VWidth: 0
Flags: HW
PickledData: "(dp1
S'com.typemytype.robofont.layerData'
p2
(dp3
S'b'
(dp4
S'name'
p5
S'ampersand'
p6
sS'lib'
p7
(dp8
sS'unicodes'
p9
(tsS'width'
p10
I1430
sS'contours'
p11
((dp12
S'points'
p13
((dp14
S'segmentType'
p15
S'curve'
p16
sS'x'
I603
sS'smooth'
p17
I01
sS'y'
I93
s(dp18
S'y'
I93
sS'x'
I350
sg17
I00
s(dp19
S'y'
I258
sS'x'
I244
sg17
I00
s(dp20
g15
S'curve'
p21
sS'x'
I244
sg17
I01
sS'y'
I419
s(dp22
S'y'
I566
sS'x'
I244
sg17
I00
s(dp23
S'y'
I676
sS'x'
I330
sg17
I00
s(dp24
g15
S'curve'
p25
sS'x'
I557
sg17
I00
sS'y'
I785
s(dp26
S'y'
I635
sS'x'
I690
sg17
I00
s(dp27
S'y'
I445
sS'x'
I857
sg17
I00
s(dp28
g15
S'curve'
p29
sS'x'
I1002
sg17
I00
sS'y'
I283
s(dp30
S'y'
I155
sS'x'
I895
sg17
I00
s(dp31
S'y'
I93
sS'x'
I743
sg17
I00
stp32
s(dp33
g13
((dp34
g15
S'curve'
p35
sS'x'
I609
sg17
I00
sS'y'
I917
s(dp36
S'y'
I1015
sS'x'
I518
sg17
I00
s(dp37
S'y'
I1120
sS'x'
I459
sg17
I00
s(dp38
g15
S'curve'
p39
sS'x'
I459
sg17
I01
sS'y'
I1209
s(dp40
S'y'
I1313
sS'x'
I459
sg17
I00
s(dp41
S'y'
I1374
sS'x'
I569
sg17
I00
s(dp42
g15
S'curve'
p43
sS'x'
I678
sg17
I01
sS'y'
I1374
s(dp44
S'y'
I1374
sS'x'
I782
sg17
I00
s(dp45
S'y'
I1315
sS'x'
I882
sg17
I00
s(dp46
g15
S'curve'
p47
sS'x'
I882
sg17
I01
sS'y'
I1205
s(dp48
S'y'
I1123
sS'x'
I882
sg17
I00
s(dp49
S'y'
I1026
sS'x'
I842
sg17
I00
stp50
s(dp51
g13
((dp52
g15
S'curve'
p53
sS'x'
I1010
sg17
I01
sS'y'
I1211
s(dp54
S'y'
I1393
sS'x'
I1010
sg17
I00
s(dp55
S'y'
I1491
sS'x'
I861
sg17
I00
s(dp56
g15
S'curve'
p57
sS'x'
I673
sg17
I01
sS'y'
I1491
s(dp58
S'y'
I1491
sS'x'
I495
sg17
I00
s(dp59
S'y'
I1392
sS'x'
I325
sg17
I00
s(dp60
g15
S'curve'
p61
sS'x'
I325
sg17
I01
sS'y'
I1210
s(dp62
S'y'
I1089
sS'x'
I325
sg17
I00
s(dp63
S'y'
I989
sS'x'
I380
sg17
I00
s(dp64
g15
S'curve'
p65
sS'x'
I484
sg17
I00
sS'y'
I873
s(dp66
S'y'
I783
sS'x'
I258
sg17
I00
s(dp67
S'y'
I632
sS'x'
I98
sg17
I00
s(dp68
g15
S'curve'
p69
sS'x'
I98
sg17
I01
sS'y'
I413
s(dp70
S'y'
I173
sS'x'
I98
sg17
I00
s(dp71
S'y'
I-25
sS'x'
I292
sg17
I00
s(dp72
g15
S'curve'
p73
sS'x'
I582
sg17
I01
sS'y'
I-25
s(dp74
S'y'
I-25
sS'x'
I807
sg17
I00
s(dp75
S'y'
I76
sS'x'
I975
sg17
I00
s(dp76
g15
S'curve'
p77
sS'x'
I1088
sg17
I00
sS'y'
I195
s(dp78
S'y'
I123
sS'x'
I1160
sg17
I00
s(dp79
S'y'
I40
sS'x'
I1236
sg17
I00
s(dp80
g15
S'curve'
p81
sS'x'
I1320
sg17
I00
sS'y'
I-28
s(dp82
g15
S'line'
p83
sS'x'
I1393
sg17
I00
sS'y'
I57
s(dp84
S'y'
I139
sS'x'
I1298
sg17
I00
s(dp85
S'y'
I194
sS'x'
I1257
sg17
I00
s(dp86
g15
S'curve'
p87
sS'x'
I1169
sg17
I00
sS'y'
I285
s(dp88
S'y'
I406
sS'x'
I1232
sg17
I00
s(dp89
S'y'
I567
sS'x'
I1285
sg17
I00
s(dp90
g15
S'curve'
p91
sS'x'
I1311
sg17
I00
sS'y'
I782
s(dp92
g15
S'line'
p93
sS'x'
I1181
sg17
I00
sS'y'
I801
s(dp94
S'y'
I646
sS'x'
I1159
sg17
I00
s(dp95
S'y'
I481
sS'x'
I1135
sg17
I00
s(dp96
g15
S'curve'
p97
sS'x'
I1074
sg17
I00
sS'y'
I381
s(dp98
g15
S'line'
p99
sS'x'
I677
sg17
I00
sS'y'
I836
s(dp100
S'y'
I936
sS'x'
I877
sg17
I00
s(dp101
S'y'
I1044
sS'x'
I1010
sg17
I00
stp102
stp103
sS'components'
p104
(tsS'anchors'
p105
(tsss."
LayerCount: 2
Fore
SplineSet
565 786 m 1
 309 656 244 548 244 415 c 0
 244 254 350 93 603 93 c 0
 771 93 905 168 1004 291 c 1
 565 786 l 1
675 839 m 1
 1073 395 l 1
 1135 509 1174 648 1188 801 c 1
 1311 782 l 1
 1290 577 1235 417 1160 297 c 1
 1371 61 l 1
 1284 -24 l 1
 1086 199 l 1
 944 38 758 -25 582 -25 c 0
 292 -25 98 169 98 409 c 0
 98 603 207 744 491 869 c 1
 428 940 l 2
 354 1024 322 1112 325 1210 c 0
 331 1392 495 1491 673 1491 c 0
 861 1491 1010 1393 1010 1211 c 0
 1010 1036 853 928 675 839 c 1
548 982 m 1
 606 918 l 1
 826 1018 882 1123 882 1205 c 0
 882 1315 782 1374 678 1374 c 0
 569 1374 466 1314 460 1210 c 0
 456 1141 479 1060 548 982 c 1
EndSplineSet
EndChar

StartChar: asciicircum
Encoding: 62 94 127
Width: 1053
VWidth: 0
Flags: HW
LayerCount: 2
Fore
SplineSet
241 100 m 1
 103 100 l 1
 469 999 l 1
 595 999 l 1
 950 100 l 1
 798 100 l 1
 525 837 l 1
 241 100 l 1
EndSplineSet
EndChar

StartChar: asciitilde
Encoding: 94 126 128
Width: 962
VWidth: 0
Flags: HW
PickledData: "(dp1
S'com.typemytype.robofont.layerData'
p2
(dp3
s."
LayerCount: 2
Fore
SplineSet
758 694 m 0
 606 707 314 825 217 825 c 0
 185 825 160 818 139 707 c 1
 21 707 l 1
 36 944 134 957 226 950 c 0
 338 941 669 826 743 826 c 0
 800 826 804 855 822 946 c 1
 941 946 l 1
 932 754 865 685 758 694 c 0
EndSplineSet
EndChar

StartChar: asterisk
Encoding: 10 42 129
Width: 826
VWidth: 0
Flags: HW
PickledData: "(dp1
S'com.typemytype.robofont.layerData'
p2
(dp3
s."
LayerCount: 2
Fore
SplineSet
460 763 m 1
 364 763 l 1
 373 1050 l 1
 117 895 l 1
 72 983 l 1
 338 1113 l 1
 71 1243 l 1
 116 1331 l 1
 373 1176 l 1
 364 1464 l 1
 460 1464 l 1
 451 1177 l 1
 707 1332 l 1
 752 1244 l 1
 486 1114 l 1
 753 984 l 1
 708 896 l 1
 451 1051 l 1
 460 763 l 1
EndSplineSet
EndChar

StartChar: at
Encoding: 32 64 130
Width: 1704
VWidth: 0
Flags: HW
PickledData: "(dp1
S'com.typemytype.robofont.layerData'
p2
(dp3
s."
LayerCount: 2
Fore
SplineSet
1100 322 m 1
 1053 164 902 63 764 67 c 0
 549 73 445 242 445 425 c 0
 445 679 622 941 874 941 c 0
 959 941 1045 911 1145 844 c 1
 1169 917 l 1
 1268 917 l 1
 1177 360 l 2
 1163 277 1198 194 1277 188 c 0
 1373 181 1473 290 1473 608 c 0
 1473 947 1189 1151 886 1151 c 0
 488 1151 240 795 240 467 c 0
 240 162 425 -121 839 -121 c 0
 955 -121 1094 -95 1246 -26 c 1
 1288 -109 l 1
 1123 -192 974 -223 842 -223 c 0
 340 -223 114 117 114 476 c 0
 114 855 393 1256 883 1256 c 0
 1256 1256 1591 988 1591 596 c 0
 1591 275 1435 81 1256 100 c 0
 1200 106 1101 156 1100 322 c 1
1123 763 m 1
 1037 821 957 846 886 846 c 0
 695 846 570 655 570 422 c 0
 570 289 634 163 779 163 c 0
 869 163 1032 219 1080 507 c 2
 1123 763 l 1
EndSplineSet
EndChar

StartChar: b
Encoding: 66 98 132
Width: 1079
VWidth: 0
Flags: HW
PickledData: "(dp1
S'com.typemytype.robofont.layerData'
p2
(dp3
S'b'
(dp4
S'name'
p5
S'b'
sS'lib'
p6
(dp7
sS'unicodes'
p8
(tsS'width'
p9
I1079
sS'contours'
p10
((dp11
S'points'
p12
((dp13
S'segmentType'
p14
S'line'
p15
sS'x'
I128
sS'smooth'
p16
I00
sS'y'
I0
s(dp17
g14
S'line'
p18
sS'x'
I241
sg16
I00
sS'y'
I0
s(dp19
g14
S'line'
p20
sS'x'
I260
sg16
I00
sS'y'
I161
s(dp21
S'y'
I38
sS'x'
I311
sg16
I00
s(dp22
S'y'
I-25
sS'x'
I439
sg16
I00
s(dp23
g14
S'curve'
p24
sS'x'
I583
sg16
I01
sS'y'
I-25
s(dp25
S'y'
I-25
sS'x'
I846
sg16
I00
s(dp26
S'y'
I190
sS'x'
I987
sg16
I00
s(dp27
g14
S'curve'
p28
sS'x'
I987
sg16
I01
sS'y'
I502
s(dp29
S'y'
I840
sS'x'
I987
sg16
I00
s(dp30
S'y'
I1044
sS'x'
I840
sg16
I00
s(dp31
g14
S'curve'
p32
sS'x'
I592
sg16
I01
sS'y'
I1044
s(dp33
S'y'
I1044
sS'x'
I452
sg16
I00
s(dp34
S'y'
I985
sS'x'
I330
sg16
I00
s(dp35
g14
S'curve'
p36
sS'x'
I271
sg16
I00
sS'y'
I865
s(dp37
g14
S'line'
p38
sS'x'
I271
sg16
I00
sS'y'
I1474
s(dp39
g14
S'line'
p40
sS'x'
I128
sg16
I00
sS'y'
I1474
stp41
s(dp42
g12
((dp43
g14
S'curve'
p44
sS'x'
I566
sg16
I01
sS'y'
I940
s(dp45
S'y'
I940
sS'x'
I736
sg16
I00
s(dp46
S'y'
I757
sS'x'
I843
sg16
I00
s(dp47
g14
S'curve'
p48
sS'x'
I843
sg16
I01
sS'y'
I520
s(dp49
S'y'
I256
sS'x'
I843
sg16
I00
s(dp50
S'y'
I80
sS'x'
I740
sg16
I00
s(dp51
g14
S'curve'
p52
sS'x'
I568
sg16
I01
sS'y'
I80
s(dp53
S'y'
I80
sS'x'
I336
sg16
I00
s(dp54
S'y'
I275
sS'x'
I266
sg16
I00
s(dp55
g14
S'curve'
p56
sS'x'
I266
sg16
I01
sS'y'
I522
s(dp57
S'y'
I848
sS'x'
I266
sg16
I00
s(dp58
S'y'
I940
sS'x'
I436
sg16
I00
stp59
stp60
sS'components'
p61
(tsS'anchors'
p62
(tsss."
LayerCount: 2
Fore
SplineSet
572 77 m 0
 747 77 843 229 843 514 c 0
 843 792 746 943 573 943 c 0
 387 943 265 811 265 520 c 0
 265 205 351 77 572 77 c 0
577 -24 m 0
 404 -24 300 57 246 180 c 1
 238 -1 l 1
 128 -1 l 1
 128 1473 l 1
 270 1473 l 1
 270 864 l 1
 336 978 444 1044 584 1044 c 0
 829 1044 987 849 987 502 c 0
 987 190 840 -24 577 -24 c 0
EndSplineSet
EndChar

StartChar: backslash
Encoding: 60 92 133
Width: 632
VWidth: 0
Flags: HW
LayerCount: 2
Fore
SplineSet
588 -5 m 1
 443 -5 l 1
 46 1464 l 1
 191 1464 l 1
 588 -5 l 1
EndSplineSet
EndChar

StartChar: bar
Encoding: 92 124 134
Width: 416
VWidth: 0
Flags: HW
LayerCount: 2
Fore
SplineSet
281 -197 m 1
 135 -197 l 1
 135 1502 l 1
 281 1502 l 1
 281 -197 l 1
EndSplineSet
EndChar

StartChar: braceleft
Encoding: 91 123 135
Width: 644
VWidth: 0
Flags: HW
PickledData: "(dp1
S'com.typemytype.robofont.layerData'
p2
(dp3
S'b'
(dp4
S'name'
p5
S'braceleft'
p6
sS'lib'
p7
(dp8
sS'unicodes'
p9
(tsS'width'
p10
I644
sS'contours'
p11
(tsS'components'
p12
(tsS'anchors'
p13
(tsss."
LayerCount: 2
Fore
SplineSet
608 -130 m 1
 228 -130 198 12 198 381 c 0
 198 512 200 648 35 660 c 1
 35 754 l 1
 200 766 198 902 198 1033 c 0
 198 1402 228 1544 608 1544 c 1
 608 1454 l 1
 350 1454 349 1376 349 1033 c 0
 349 851 319 738 190 707 c 1
 319 676 349 563 349 381 c 0
 349 38 350 -40 608 -40 c 1
 608 -130 l 1
EndSplineSet
EndChar

StartChar: braceright
Encoding: 93 125 136
Width: 644
VWidth: 0
Flags: HW
PickledData: "(dp1
S'com.typemytype.robofont.layerData'
p2
(dp3
S'b'
(dp4
S'name'
p5
S'braceleft'
p6
sS'lib'
p7
(dp8
sS'unicodes'
p9
(tsS'width'
p10
I644
sS'contours'
p11
(tsS'components'
p12
(tsS'anchors'
p13
(tsss."
LayerCount: 2
Fore
SplineSet
35 -130 m 1
 35 -40 l 1
 293 -40 294 38 294 381 c 0
 294 563 324 676 453 707 c 1
 324 738 294 851 294 1033 c 0
 294 1376 293 1454 35 1454 c 1
 35 1544 l 1
 415 1544 445 1402 445 1033 c 0
 445 902 443 766 608 754 c 1
 608 660 l 1
 443 648 445 512 445 381 c 0
 445 12 415 -130 35 -130 c 1
EndSplineSet
EndChar

StartChar: bracketleft
Encoding: 59 91 137
Width: 708
VWidth: 0
Flags: HW
LayerCount: 2
Fore
SplineSet
132 -52 m 1
 132 1480 l 1
 590 1480 l 1
 590 1374 l 1
 277 1374 l 1
 277 55 l 1
 590 55 l 1
 590 -52 l 1
 132 -52 l 1
EndSplineSet
EndChar

StartChar: bracketright
Encoding: 61 93 138
Width: 707
VWidth: 0
Flags: HW
LayerCount: 2
Fore
SplineSet
119 1374 m 1
 119 1480 l 1
 576 1480 l 1
 576 -52 l 1
 119 -52 l 1
 119 55 l 1
 431 55 l 1
 431 1374 l 1
 119 1374 l 1
EndSplineSet
EndChar

StartChar: breve
Encoding: 361 728 139
Width: 805
VWidth: 0
Flags: HW
PickledData: "(dp1
S'com.typemytype.robofont.layerData'
p2
(dp3
s."
LayerCount: 2
Fore
SplineSet
402 1183 m 0
 255 1183 130 1258 126 1438 c 1
 242 1438 l 1
 242 1331 303 1286 402 1286 c 0
 502 1286 562 1331 562 1438 c 1
 678 1438 l 1
 674 1258 549 1183 402 1183 c 0
EndSplineSet
EndChar

StartChar: brokenbar
Encoding: 102 166 140
Width: 416
VWidth: 0
Flags: HW
PickledData: "(dp1
S'com.typemytype.robofont.layerData'
p2
(dp3
s."
LayerCount: 2
Fore
SplineSet
135 -198 m 1
 135 463 l 1
 281 463 l 1
 281 -198 l 1
 135 -198 l 1
281 853 m 1
 135 853 l 1
 135 1504 l 1
 281 1504 l 1
 281 853 l 1
EndSplineSet
EndChar

StartChar: c
Encoding: 67 99 141
Width: 982
VWidth: 0
Flags: HW
PickledData: "(dp1
S'com.typemytype.robofont.layerData'
p2
(dp3
s."
LayerCount: 2
Fore
SplineSet
528 -24 m 0
 236 -24 92 197 92 509 c 0
 92 817 231 1044 527 1044 c 0
 681 1044 855 975 911 733 c 1
 794 704 l 1
 752 865 661 942 531 942 c 0
 319 942 237 767 237 512 c 0
 237 255 323 78 531 78 c 0
 664 78 756 158 798 315 c 1
 910 281 l 1
 856 52 694 -24 528 -24 c 0
EndSplineSet
EndChar

StartChar: caron
Encoding: 360 711 143
Width: 838
VWidth: 0
Flags: HW
PickledData: "(dp1
S'com.typemytype.robofont.layerData'
p2
(dp3
S'b'
(dp4
S'name'
p5
S'caron'
p6
sS'lib'
p7
(dp8
sS'unicodes'
p9
(tsS'width'
p10
I838
sS'contours'
p11
(tsS'components'
p12
(tsS'anchors'
p13
(tsss."
LayerCount: 2
Fore
SplineSet
337 1172 m 1
 152 1492 l 1
 249 1492 l 1
 424 1239 l 1
 600 1492 l 1
 697 1492 l 1
 512 1172 l 1
 337 1172 l 1
EndSplineSet
EndChar

StartChar: cedilla
Encoding: 120 184 148
Width: 435
VWidth: 0
Flags: HW
LayerCount: 2
Fore
SplineSet
150 -300 m 1
 161 -302 171 -303 180 -303 c 0
 249 -303 278 -249 278 -189 c 0
 278 -132 252 -70 209 -46 c 1
 214 0 l 1
 310 -11 373 -120 373 -219 c 0
 373 -306 325 -386 209 -386 c 0
 191 -386 171 -384 150 -380 c 1
 150 -300 l 1
EndSplineSet
EndChar

StartChar: cent
Encoding: 98 162 149
Width: 982
VWidth: 0
Flags: HW
PickledData: "(dp1
S'com.typemytype.robofont.layerData'
p2
(dp3
s."
LayerCount: 2
Fore
SplineSet
484 -208 m 1
 484 1253 l 1
 577 1253 l 1
 577 -208 l 1
 484 -208 l 1
EndSplineSet
Refer: 141 99 N 1 0 0 1 0 0 2
EndChar

StartChar: circumflex
Encoding: 359 710 150
Width: 838
VWidth: 0
Flags: HW
PickledData: "(dp1
S'com.typemytype.robofont.layerData'
p2
(dp3
s."
LayerCount: 2
Fore
SplineSet
337 1492 m 1
 512 1492 l 1
 697 1172 l 1
 600 1172 l 1
 424 1425 l 1
 249 1172 l 1
 152 1172 l 1
 337 1492 l 1
EndSplineSet
EndChar

StartChar: colon
Encoding: 26 58 151
Width: 482
VWidth: 0
Flags: HW
LayerCount: 2
Fore
SplineSet
332 387 m 1
 332 171 l 1
 159 171 l 1
 159 387 l 1
 332 387 l 1
159 1024 m 1
 332 1024 l 1
 332 808 l 1
 159 808 l 1
 159 1024 l 1
EndSplineSet
EndChar

StartChar: comma
Encoding: 12 44 152
Width: 445
VWidth: 0
Flags: HW
LayerCount: 2
Fore
SplineSet
100 219 m 1
 300 219 l 1
 300 134 l 1
 295 -24 295 -163 163 -254 c 1
 114 -192 l 1
 139 -172 191 -105 194 16 c 1
 100 29 l 1
 100 219 l 1
EndSplineSet
EndChar

StartChar: copyright
Encoding: 105 169 153
Width: 1702
VWidth: 0
Flags: HW
PickledData: "(dp1
S'com.typemytype.robofont.layerData'
p2
(dp3
S'b'
(dp4
S'name'
p5
S'copyright'
p6
sS'lib'
p7
(dp8
sS'unicodes'
p9
(tsS'width'
p10
I1702
sS'contours'
p11
(tsS'components'
p12
(tsS'anchors'
p13
(tsss."
LayerCount: 2
Fore
SplineSet
850 1497 m 0
 1251 1497 1579 1175 1579 774 c 0
 1579 375 1251 53 850 53 c 0
 451 53 123 335 123 774 c 0
 123 1205 451 1497 850 1497 c 0
179 773 m 0
 179 363 479 98 849 98 c 0
 1220 98 1523 403 1523 773 c 0
 1523 1144 1221 1452 850 1452 c 0
 480 1452 179 1174 179 773 c 0
525 779 m 0
 525 1103 644 1234 858 1234 c 0
 994 1234 1096 1165 1140 1017 c 1
 1074 994 l 1
 1041 1097 981 1163 862 1163 c 0
 670 1163 606 1034 606 779 c 0
 606 524 670 395 862 395 c 0
 981 395 1041 461 1074 564 c 1
 1140 541 l 1
 1096 393 994 324 858 324 c 0
 644 324 525 455 525 779 c 0
EndSplineSet
EndChar

StartChar: currency
Encoding: 100 164 154
Width: 1068
VWidth: 0
Flags: HW
LayerCount: 2
Fore
SplineSet
769 658 m 0
 769 796 684 925 535 925 c 0
 386 925 303 794 303 655 c 0
 303 516 385 385 536 385 c 0
 681 385 769 518 769 658 c 0
934 246 m 1
 780 381 l 1
 722 322 641 284 535 284 c 0
 449 284 379 309 324 350 c 1
 190 197 l 1
 126 253 l 1
 264 410 l 1
 210 479 183 568 183 656 c 0
 183 727 200 799 236 859 c 1
 78 997 l 1
 134 1061 l 1
 287 926 l 1
 345 985 427 1023 534 1023 c 0
 620 1023 691 998 745 956 c 1
 878 1108 l 1
 942 1052 l 1
 805 896 l 1
 857 828 883 740 883 653 c 0
 883 581 866 510 831 449 c 1
 990 309 l 1
 934 246 l 1
EndSplineSet
EndChar

StartChar: d
Encoding: 68 100 155
Width: 1077
VWidth: 0
Flags: HW
PickledData: "(dp1
S'com.typemytype.robofont.layerData'
p2
(dp3
S'b'
(dp4
S'name'
p5
S'b'
sS'lib'
p6
(dp7
sS'unicodes'
p8
(tsS'width'
p9
I1077
sS'contours'
p10
((dp11
S'points'
p12
((dp13
S'segmentType'
p14
S'line'
p15
sS'x'
I99
sS'smooth'
p16
I00
sS'y'
I0
s(dp17
g14
S'line'
p18
sS'x'
I212
sg16
I00
sS'y'
I0
s(dp19
g14
S'line'
p20
sS'x'
I231
sg16
I00
sS'y'
I161
s(dp21
S'y'
I38
sS'x'
I282
sg16
I00
s(dp22
S'y'
I-25
sS'x'
I410
sg16
I00
s(dp23
g14
S'curve'
p24
sS'x'
I554
sg16
I01
sS'y'
I-25
s(dp25
S'y'
I-25
sS'x'
I817
sg16
I00
s(dp26
S'y'
I190
sS'x'
I958
sg16
I00
s(dp27
g14
S'curve'
p28
sS'x'
I958
sg16
I01
sS'y'
I502
s(dp29
S'y'
I840
sS'x'
I958
sg16
I00
s(dp30
S'y'
I1044
sS'x'
I811
sg16
I00
s(dp31
g14
S'curve'
p32
sS'x'
I563
sg16
I01
sS'y'
I1044
s(dp33
S'y'
I1044
sS'x'
I423
sg16
I00
s(dp34
S'y'
I985
sS'x'
I301
sg16
I00
s(dp35
g14
S'curve'
p36
sS'x'
I242
sg16
I00
sS'y'
I865
s(dp37
g14
S'line'
p38
sS'x'
I242
sg16
I00
sS'y'
I1474
s(dp39
g14
S'line'
p40
sS'x'
I99
sg16
I00
sS'y'
I1474
stp41
s(dp42
g12
((dp43
g14
S'curve'
p44
sS'x'
I537
sg16
I01
sS'y'
I940
s(dp45
S'y'
I940
sS'x'
I707
sg16
I00
s(dp46
S'y'
I757
sS'x'
I814
sg16
I00
s(dp47
g14
S'curve'
p48
sS'x'
I814
sg16
I01
sS'y'
I520
s(dp49
S'y'
I256
sS'x'
I814
sg16
I00
s(dp50
S'y'
I80
sS'x'
I711
sg16
I00
s(dp51
g14
S'curve'
p52
sS'x'
I539
sg16
I01
sS'y'
I80
s(dp53
S'y'
I80
sS'x'
I307
sg16
I00
s(dp54
S'y'
I275
sS'x'
I237
sg16
I00
s(dp55
g14
S'curve'
p56
sS'x'
I237
sg16
I01
sS'y'
I522
s(dp57
S'y'
I848
sS'x'
I237
sg16
I00
s(dp58
S'y'
I940
sS'x'
I407
sg16
I00
stp59
stp60
sS'components'
p61
(tsS'anchors'
p62
(tsss."
LayerCount: 2
Fore
SplineSet
507 78 m 0
 702 68 814 205 814 520 c 0
 814 811 696 942 510 942 c 0
 333 942 236 791 236 514 c 0
 236 229 332 87 507 78 c 0
949 0 m 1
 839 0 l 1
 831 183 l 1
 776 62 676 -24 502 -24 c 0
 239 -24 92 190 92 502 c 0
 92 856 254 1044 502 1044 c 0
 638 1044 742 982 807 874 c 1
 807 1474 l 1
 949 1474 l 1
 949 0 l 1
EndSplineSet
EndChar

StartChar: dcroat
Encoding: 209 273 157
Width: 1137
VWidth: 0
Flags: HW
PickledData: "(dp1
S'com.typemytype.robofont.layerData'
p2
(dp3
S'b'
(dp4
S'name'
p5
S'dcroat'
p6
sS'lib'
p7
(dp8
sS'unicodes'
p9
(tsS'width'
p10
I1137
sS'contours'
p11
(tsS'components'
p12
(tsS'anchors'
p13
(tsss."
LayerCount: 2
Fore
SplineSet
574 1201 m 1
 574 1287 l 1
 1094 1287 l 1
 1094 1201 l 1
 574 1201 l 1
EndSplineSet
Refer: 155 100 N 1 0 0 1 0 0 2
EndChar

StartChar: degree
Encoding: 112 176 158
Width: 483
VWidth: 0
Flags: HW
PickledData: "(dp1
S'com.typemytype.robofont.layerData'
p2
(dp3
s."
LayerCount: 2
Fore
SplineSet
240 1032 m 0
 92 1032 0 1143 0 1267 c 0
 0 1391 92 1502 240 1502 c 0
 388 1502 480 1391 480 1267 c 0
 480 1143 388 1032 240 1032 c 0
240 1418 m 0
 146 1418 98 1341 98 1267 c 0
 98 1193 146 1116 240 1116 c 0
 334 1116 382 1193 382 1267 c 0
 382 1341 334 1418 240 1418 c 0
EndSplineSet
EndChar

StartChar: dieresis
Encoding: 104 168 159
Width: 860
VWidth: 0
Flags: HW
PickledData: "(dp1
S'com.typemytype.robofont.layerData'
p2
(dp3
s."
LayerCount: 2
Fore
SplineSet
680 1365 m 1
 680 1191 l 1
 514 1191 l 1
 514 1365 l 1
 680 1365 l 1
135 1365 m 1
 301 1365 l 1
 301 1191 l 1
 135 1191 l 1
 135 1365 l 1
EndSplineSet
EndChar

StartChar: divide
Encoding: 183 247 160
Width: 1024
VWidth: 0
Flags: HW
LayerCount: 2
Fore
SplineSet
565 385 m 1
 565 171 l 1
 392 171 l 1
 392 385 l 1
 565 385 l 1
392 1024 m 1
 565 1024 l 1
 565 808 l 1
 392 808 l 1
 392 1024 l 1
850 551 m 1
 100 551 l 1
 100 649 l 1
 850 649 l 1
 850 551 l 1
EndSplineSet
EndChar

StartChar: dollar
Encoding: 4 36 161
Width: 1216
VWidth: 0
Flags: HW
PickledData: "(dp1
S'com.typemytype.robofont.layerData'
p2
(dp3
S'b'
(dp4
S'name'
p5
S'dollar'
p6
sS'lib'
p7
(dp8
sS'unicodes'
p9
(tsS'width'
p10
I1216
sS'contours'
p11
((dp12
S'points'
p13
((dp14
S'segmentType'
p15
S'line'
p16
sS'x'
I731
sS'smooth'
p17
I00
sS'y'
I103
s(dp18
g15
S'line'
p19
sS'x'
I731
sg17
I00
sS'y'
I692
s(dp20
S'y'
I616
sS'x'
I943
sg17
I00
s(dp21
S'y'
I556
sS'x'
I1058
sg17
I00
s(dp22
g15
S'curve'
p23
sS'x'
I1058
sg17
I01
sS'y'
I388
s(dp24
S'y'
I188
sS'x'
I1058
sg17
I00
s(dp25
S'y'
I115
sS'x'
I898
sg17
I00
s(dp26
g15
S'curve'
p27
sS'x'
I734
sg17
I00
sS'y'
I103
stp28
s(dp29
g13
((dp30
g15
S'line'
p31
sS'x'
I642
sg17
I00
sS'y'
I871
s(dp32
S'y'
I919
sS'x'
I492
sg17
I00
s(dp33
S'y'
I975
sS'x'
I337
sg17
I00
s(dp34
g15
S'curve'
p35
sS'x'
I337
sg17
I01
sS'y'
I1128
s(dp36
S'y'
I1283
sS'x'
I337
sg17
I00
s(dp37
S'y'
I1352
sS'x'
I472
sg17
I00
s(dp38
g15
S'curve'
p39
sS'x'
I642
sg17
I00
sS'y'
I1362
stp40
s(dp41
g13
((dp42
g15
S'line'
p43
sS'x'
I642
sg17
I00
sS'y'
I-201
s(dp44
g15
S'line'
p45
sS'x'
I731
sg17
I00
sS'y'
I-201
s(dp46
g15
S'line'
p47
sS'x'
I731
sg17
I00
sS'y'
I-23
s(dp48
S'y'
I-7
sS'x'
I1025
sg17
I00
s(dp49
S'y'
I142
sS'x'
I1211
sg17
I00
s(dp50
g15
S'curve'
p51
sS'x'
I1211
sg17
I01
sS'y'
I393
s(dp52
S'y'
I646
sS'x'
I1211
sg17
I00
s(dp53
S'y'
I726
sS'x'
I1035
sg17
I00
s(dp54
g15
S'curve'
p55
sS'x'
I766
sg17
I01
sS'y'
I829
s(dp56
S'y'
I833
sS'x'
I755
sg17
I00
s(dp57
S'y'
I838
sS'x'
I743
sg17
I00
s(dp58
g15
S'curve'
p59
sS'x'
I731
sg17
I00
sS'y'
I842
s(dp60
g15
S'line'
p61
sS'x'
I731
sg17
I00
sS'y'
I1363
s(dp62
S'y'
I1350
sS'x'
I915
sg17
I00
s(dp63
S'y'
I1246
sS'x'
I1020
sg17
I00
s(dp64
g15
S'curve'
p65
sS'x'
I1074
sg17
I00
sS'y'
I1148
s(dp66
g15
S'line'
p67
sS'x'
I1178
sg17
I00
sS'y'
I1224
s(dp68
S'y'
I1389
sS'x'
I1070
sg17
I00
s(dp69
S'y'
I1469
sS'x'
I932
sg17
I00
s(dp70
g15
S'curve'
p71
sS'x'
I731
sg17
I00
sS'y'
I1480
s(dp72
g15
S'line'
p73
sS'x'
I731
sg17
I00
sS'y'
I1674
s(dp74
g15
S'line'
p75
sS'x'
I642
sg17
I00
sS'y'
I1674
s(dp76
g15
S'line'
p77
sS'x'
I642
sg17
I00
sS'y'
I1481
s(dp78
S'y'
I1471
sS'x'
I408
sg17
I00
s(dp79
S'y'
I1357
sS'x'
I184
sg17
I00
s(dp80
g15
S'curve'
p81
sS'x'
I184
sg17
I01
sS'y'
I1116
s(dp82
S'y'
I877
sS'x'
I184
sg17
I00
s(dp83
S'y'
I804
sS'x'
I408
sg17
I00
s(dp84
g15
S'curve'
p85
sS'x'
I618
sg17
I01
sS'y'
I731
s(dp86
S'y'
I728
sS'x'
I626
sg17
I00
s(dp87
S'y'
I725
sS'x'
I634
sg17
I00
s(dp88
g15
S'curve'
p89
sS'x'
I642
sg17
I00
sS'y'
I723
s(dp90
g15
S'line'
p91
sS'x'
I642
sg17
I00
sS'y'
I102
s(dp92
S'y'
I113
sS'x'
I419
sg17
I00
s(dp93
S'y'
I218
sS'x'
I278
sg17
I00
s(dp94
g15
S'curve'
p95
sS'x'
I221
sg17
I00
sS'y'
I426
s(dp96
g15
S'line'
p97
sS'x'
I98
sg17
I00
sS'y'
I373
s(dp98
S'y'
I84
sS'x'
I151
sg17
I00
s(dp99
S'y'
I-15
sS'x'
I422
sg17
I00
s(dp100
g15
S'curve'
p101
sS'x'
I642
sg17
I00
sS'y'
I-24
stp102
stp103
sS'components'
p104
(tsS'anchors'
p105
(tsss."
LayerCount: 2
Fore
SplineSet
601 1672 m 1
 690 1672 l 1
 690 -204 l 1
 601 -204 l 1
 601 1672 l 1
EndSplineSet
Refer: 86 83 N 1 0 0 1 0 0 2
EndChar

StartChar: dotaccent
Encoding: 362 729 162
Width: 434
VWidth: 0
Flags: HW
PickledData: "(dp1
S'com.typemytype.robofont.layerData'
p2
(dp3
S'b'
(dp4
S'name'
p5
S'dotaccent'
p6
sS'lib'
p7
(dp8
sS'unicodes'
p9
(tsS'width'
p10
I434
sS'contours'
p11
(tsS'components'
p12
(tsS'anchors'
p13
(tsss."
LayerCount: 2
Fore
SplineSet
135 758 m 1
 299 758 l 1
 299 543 l 1
 135 543 l 1
 135 758 l 1
EndSplineSet
EndChar

StartChar: dotlessi
Encoding: 239 305 163
Width: 411
VWidth: 0
Flags: HW
LayerCount: 2
Fore
SplineSet
140 0 m 1
 140 1023 l 1
 282 1023 l 1
 282 0 l 1
 140 0 l 1
EndSplineSet
EndChar

StartChar: dotlessj
Encoding: 65538 -1 164
Width: 482
VWidth: 0
Flags: HW
PickledData: "(dp1
S'com.typemytype.robofont.layerData'
p2
(dp3
S'b'
(dp4
S'name'
p5
S'j'
sS'lib'
p6
(dp7
sS'unicodes'
p8
(tsS'width'
p9
I482
sS'contours'
p10
(tsS'components'
p11
(tsS'anchors'
p12
(tsss."
LayerCount: 2
Fore
SplineSet
140 -325 m 0
 69 -325 13 -306 -27 -284 c 1
 2 -177 l 1
 29 -189 65 -207 118 -207 c 0
 177 -207 214 -182 214 -91 c 2
 214 1023 l 1
 356 1023 l 1
 356 -12 l 2
 356 -217 322 -325 140 -325 c 0
EndSplineSet
EndChar

StartChar: e
Encoding: 69 101 165
Width: 1027
VWidth: 0
Flags: HW
PickledData: "(dp1
S'com.typemytype.robofont.layerData'
p2
(dp3
s."
LayerCount: 2
Fore
SplineSet
806 594 m 1
 803 809 727 942 531 942 c 0
 345 942 250 782 234 594 c 1
 806 594 l 1
532 1044 m 0
 817 1044 939 834 939 562 c 0
 939 553 938 517 936 500 c 1
 234 500 l 1
 234 269 327 78 539 78 c 0
 679 78 773 160 808 270 c 0
 809 270 915 246 915 246 c 1
 868 68 703 -23 542 -24 c 1
 226 -24 92 229 92 512 c 0
 92 824 250 1044 532 1044 c 0
EndSplineSet
EndChar

StartChar: eight
Encoding: 24 56 171
Width: 1160
VWidth: 0
Flags: HW
LayerCount: 2
Fore
SplineSet
501 716 m 1
 347 623 264 487 264 367 c 0
 264 223 379 93 584 93 c 0
 741 93 914 189 914 368 c 0
 914 586 716 654 501 716 c 1
106 351 m 0
 106 502 194 640 398 759 c 1
 285 812 127 925 127 1101 c 0
 127 1379 356 1491 594 1491 c 0
 839 1491 1049 1375 1049 1099 c 0
 1049 903 857 783 768 751 c 1
 1023 628 1062 506 1062 365 c 0
 1062 160 885 -25 569 -25 c 0
 281 -25 106 154 106 351 c 0
659 792 m 1
 753 839 899 932 899 1101 c 0
 899 1292 758 1374 594 1374 c 0
 441 1374 278 1301 278 1104 c 0
 278 914 454 857 659 792 c 1
EndSplineSet
EndChar

StartChar: emdash
Encoding: 495 8212 173
Width: 2048
VWidth: 0
Flags: HW
LayerCount: 2
Fore
SplineSet
135 334 m 1
 135 420 l 1
 1913 420 l 1
 1913 334 l 1
 135 334 l 1
EndSplineSet
EndChar

StartChar: endash
Encoding: 494 8211 174
Width: 1024
VWidth: 0
Flags: HW
LayerCount: 2
Fore
SplineSet
135 334 m 1
 135 420 l 1
 889 420 l 1
 889 334 l 1
 135 334 l 1
EndSplineSet
EndChar

StartChar: equal
Encoding: 29 61 176
Width: 820
VWidth: 0
Flags: HW
PickledData: "(dp1
S'com.typemytype.robofont.layerData'
p2
(dp3
s."
LayerCount: 2
Fore
SplineSet
135 550 m 1
 135 650 l 1
 685 650 l 1
 685 550 l 1
 135 550 l 1
135 300 m 1
 135 400 l 1
 685 400 l 1
 685 300 l 1
 135 300 l 1
EndSplineSet
EndChar

StartChar: eth
Encoding: 176 240 177
Width: 1053
VWidth: 0
Flags: HW
PickledData: "(dp1
S'com.typemytype.robofont.layerData'
p2
(dp3
S'b'
(dp4
S'name'
p5
S'eth'
p6
sS'lib'
p7
(dp8
sS'unicodes'
p9
(tsS'width'
p10
I1053
sS'contours'
p11
((dp12
S'points'
p13
((dp14
S'segmentType'
p15
S'curve'
p16
sS'x'
I523
sS'smooth'
p17
I01
sS'y'
I798
s(dp18
S'y'
I798
sS'x'
I366
sg17
I00
s(dp19
S'y'
I668
sS'x'
I235
sg17
I00
s(dp20
g15
S'curve'
p21
sS'x'
I235
sg17
I01
sS'y'
I439
s(dp22
S'y'
I216
sS'x'
I235
sg17
I00
s(dp23
S'y'
I84
sS'x'
I355
sg17
I00
s(dp24
g15
S'curve'
p25
sS'x'
I518
sg17
I01
sS'y'
I84
s(dp26
S'y'
I84
sS'x'
I729
sg17
I00
s(dp27
S'y'
I262
sS'x'
I823
sg17
I00
s(dp28
g15
S'curve'
p29
sS'x'
I823
sg17
I01
sS'y'
I511
s(dp30
S'y'
I535
sS'x'
I823
sg17
I00
s(dp31
S'y'
I624
sS'x'
I822
sg17
I00
s(dp32
g15
S'curve'
p33
sS'x'
I816
sg17
I00
sS'y'
I650
s(dp34
S'y'
I751
sS'x'
I724
sg17
I00
s(dp35
S'y'
I798
sS'x'
I619
sg17
I00
stp36
s(dp37
g13
((dp38
g15
S'line'
p39
sS'x'
I368
sg17
I00
sS'y'
I1101
s(dp40
g15
S'line'
p41
sS'x'
I559
sg17
I00
sS'y'
I1225
s(dp42
S'y'
I1296
sS'x'
I465
sg17
I00
s(dp43
S'y'
I1339
sS'x'
I348
sg17
I00
s(dp44
g15
S'curve'
p45
sS'x'
I169
sg17
I00
sS'y'
I1339
s(dp46
g15
S'line'
p47
sS'x'
I169
sg17
I00
sS'y'
I1432
s(dp48
S'y'
I1432
sS'x'
I390
sg17
I00
s(dp49
S'y'
I1372
sS'x'
I536
sg17
I00
s(dp50
g15
S'curve'
p51
sS'x'
I648
sg17
I00
sS'y'
I1283
s(dp52
g15
S'line'
p53
sS'x'
I854
sg17
I00
sS'y'
I1418
s(dp54
g15
S'line'
p55
sS'x'
I907
sg17
I00
sS'y'
I1343
s(dp56
g15
S'line'
p57
sS'x'
I715
sg17
I00
sS'y'
I1218
s(dp58
S'y'
I1083
sS'x'
I845
sg17
I00
s(dp59
S'y'
I806
sS'x'
I959
sg17
I00
s(dp60
g15
S'curve'
p61
sS'x'
I959
sg17
I01
sS'y'
I529
s(dp62
S'y'
I213
sS'x'
I959
sg17
I00
s(dp63
S'y'
I-25
sS'x'
I835
sg17
I00
s(dp64
g15
S'curve'
p65
sS'x'
I518
sg17
I01
sS'y'
I-25
s(dp66
S'y'
I-25
sS'x'
I231
sg17
I00
s(dp67
S'y'
I208
sS'x'
I94
sg17
I00
s(dp68
g15
S'curve'
p69
sS'x'
I94
sg17
I01
sS'y'
I454
s(dp70
S'y'
I746
sS'x'
I94
sg17
I00
s(dp71
S'y'
I908
sS'x'
I294
sg17
I00
s(dp72
g15
S'curve'
p73
sS'x'
I503
sg17
I01
sS'y'
I908
s(dp74
S'y'
I908
sS'x'
I611
sg17
I00
s(dp75
S'y'
I865
sS'x'
I722
sg17
I00
s(dp76
g15
S'curve'
p77
sS'x'
I810
sg17
I00
sS'y'
I774
s(dp78
S'y'
I920
sS'x'
I791
sg17
I00
s(dp79
S'y'
I1085
sS'x'
I695
sg17
I00
s(dp80
g15
S'curve'
p81
sS'x'
I618
sg17
I00
sS'y'
I1155
s(dp82
g15
S'line'
p83
sS'x'
I421
sg17
I00
sS'y'
I1026
stp84
stp85
sS'components'
p86
(tsS'anchors'
p87
(tsss."
LayerCount: 2
Fore
SplineSet
169 1338 m 1
 169 1432 l 1
 381 1432 541 1377 658 1288 c 1
 867 1424 l 1
 920 1349 l 1
 729 1224 l 1
 903 1044 959 775 959 529 c 0
 959 213 835 -24 518 -24 c 0
 231 -24 94 208 94 454 c 0
 94 746 294 906 503 908 c 0
 617 909 730 867 810 772 c 1
 794 895 742 1046 631 1161 c 1
 434 1032 l 1
 381 1107 l 1
 559 1223 l 1
 464 1292 337 1338 169 1338 c 1
523 798 m 0
 366 798 236 670 236 441 c 0
 236 216 360 85 525 85 c 0
 736 85 823 262 823 511 c 0
 823 535 822 624 816 650 c 1
 724 748 629 798 523 798 c 0
EndSplineSet
EndChar

StartChar: exclam
Encoding: 1 33 178
Width: 428
VWidth: 0
Flags: HW
PickledData: "(dp1
S'com.typemytype.robofont.layerData'
p2
(dp3
s."
LayerCount: 2
Fore
SplineSet
191 325 m 1
 136 1464 l 1
 309 1464 l 1
 250 325 l 1
 191 325 l 1
148 177 m 1
 292 177 l 1
 292 0 l 1
 148 0 l 1
 148 177 l 1
EndSplineSet
EndChar

StartChar: f
Encoding: 70 102 180
Width: 623
VWidth: 0
Flags: HW
PickledData: "(dp1
S'com.typemytype.robofont.layerData'
p2
(dp3
S'b'
(dp4
S'name'
p5
S'f'
sS'lib'
p6
(dp7
sS'unicodes'
p8
(tsS'width'
p9
I623
sS'contours'
p10
((dp11
S'points'
p12
((dp13
S'segmentType'
p14
S'curve'
p15
sS'x'
I460
sS'smooth'
p16
I01
sS'y'
I1368
s(dp17
S'y'
I1368
sS'x'
I360
sg16
I00
s(dp18
S'y'
I1278
sS'x'
I359
sg16
I00
s(dp19
g14
S'curve'
p20
sS'x'
I359
sg16
I01
sS'y'
I1139
s(dp21
g14
S'line'
p22
sS'x'
I359
sg16
I00
sS'y'
I1023
s(dp23
g14
S'line'
p24
sS'x'
I559
sg16
I00
sS'y'
I1023
s(dp25
g14
S'line'
p26
sS'x'
I559
sg16
I00
sS'y'
I917
s(dp27
g14
S'line'
p28
sS'x'
I359
sg16
I00
sS'y'
I917
s(dp29
g14
S'line'
p30
sS'x'
I359
sg16
I00
sS'y'
I0
s(dp31
g14
S'line'
p32
sS'x'
I217
sg16
I00
sS'y'
I0
s(dp33
g14
S'line'
p34
sS'x'
I217
sg16
I00
sS'y'
I917
s(dp35
g14
S'line'
p36
sS'x'
I44
sg16
I00
sS'y'
I917
s(dp37
g14
S'line'
p38
sS'x'
I44
sg16
I00
sS'y'
I1023
s(dp39
g14
S'line'
p40
sS'x'
I217
sg16
I00
sS'y'
I1023
s(dp41
g14
S'line'
p42
sS'x'
I217
sg16
I01
sS'y'
I1142
s(dp43
S'y'
I1364
sS'x'
I217
sg16
I00
s(dp44
S'y'
I1474
sS'x'
I276
sg16
I00
s(dp45
g14
S'curve'
p46
sS'x'
I451
sg16
I01
sS'y'
I1474
s(dp47
S'y'
I1474
sS'x'
I509
sg16
I00
s(dp48
S'y'
I1457
sS'x'
I563
sg16
I00
s(dp49
g14
S'curve'
p50
sS'x'
I607
sg16
I00
sS'y'
I1433
s(dp51
g14
S'line'
p52
sS'x'
I573
sg16
I00
sS'y'
I1341
s(dp53
S'y'
I1356
sS'x'
I533
sg16
I00
s(dp54
S'y'
I1368
sS'x'
I492
sg16
I00
stp55
stp56
sS'components'
p57
(tsS'anchors'
p58
(tsss."
LayerCount: 2
Fore
SplineSet
359 0 m 1
 217 0 l 1
 217 917 l 1
 44 917 l 1
 44 1023 l 1
 217 1023 l 1
 217 1142 l 2
 217 1364 274 1474 449 1474 c 0
 517 1474 578 1449 608 1428 c 1
 571 1338 l 1
 540 1353 505 1366 463 1366 c 0
 371 1366 359 1305 359 1146 c 2
 359 1023 l 1
 559 1023 l 1
 559 917 l 1
 359 917 l 1
 359 0 l 1
EndSplineSet
EndChar

StartChar: five
Encoding: 21 53 181
Width: 1163
VWidth: 0
Flags: HW
PickledData: "(dp1
S'com.typemytype.robofont.layerData'
p2
(dp3
S'b'
(dp4
S'name'
p5
S'five'
p6
sS'lib'
p7
(dp8
sS'unicodes'
p9
(tsS'width'
p10
I1163
sS'contours'
p11
((dp12
S'points'
p13
((dp14
S'segmentType'
p15
S'curve'
p16
sS'x'
I608
sS'smooth'
p17
I01
sS'y'
I928
s(dp18
S'y'
I928
sS'x'
I930
sg17
I00
s(dp19
S'y'
I703
sS'x'
I1072
sg17
I00
s(dp20
g15
S'curve'
p21
sS'x'
I1072
sg17
I01
sS'y'
I461
s(dp22
S'y'
I181
sS'x'
I1072
sg17
I00
s(dp23
S'y'
I-25
sS'x'
I892
sg17
I00
s(dp24
g15
S'curve'
p25
sS'x'
I583
sg17
I01
sS'y'
I-25
s(dp26
S'y'
I-25
sS'x'
I366
sg17
I00
s(dp27
S'y'
I76
sS'x'
I190
sg17
I00
s(dp28
g15
S'curve'
p29
sS'x'
I99
sg17
I00
sS'y'
I309
s(dp30
g15
S'line'
p31
sS'x'
I223
sg17
I00
sS'y'
I359
s(dp32
S'y'
I194
sS'x'
I299
sg17
I00
s(dp33
S'y'
I93
sS'x'
I427
sg17
I00
s(dp34
g15
S'curve'
p35
sS'x'
I574
sg17
I01
sS'y'
I93
s(dp36
S'y'
I93
sS'x'
I802
sg17
I00
s(dp37
S'y'
I264
sS'x'
I923
sg17
I00
s(dp38
g15
S'curve'
p39
sS'x'
I923
sg17
I01
sS'y'
I453
s(dp40
S'y'
I632
sS'x'
I923
sg17
I00
s(dp41
S'y'
I808
sS'x'
I817
sg17
I00
s(dp42
g15
S'curve'
p43
sS'x'
I602
sg17
I01
sS'y'
I808
s(dp44
S'y'
I808
sS'x'
I501
sg17
I00
s(dp45
S'y'
I768
sS'x'
I386
sg17
I00
s(dp46
g15
S'curve'
p47
sS'x'
I276
sg17
I00
sS'y'
I685
s(dp48
g15
S'line'
p49
sS'x'
I185
sg17
I00
sS'y'
I744
s(dp50
g15
S'line'
p51
sS'x'
I281
sg17
I00
sS'y'
I1464
s(dp52
g15
S'line'
p53
sS'x'
I982
sg17
I00
sS'y'
I1464
s(dp54
g15
S'line'
p55
sS'x'
I982
sg17
I00
sS'y'
I1337
s(dp56
g15
S'line'
p57
sS'x'
I412
sg17
I00
sS'y'
I1337
s(dp58
g15
S'line'
p59
sS'x'
I335
sg17
I00
sS'y'
I801
s(dp60
g15
S'line'
p61
sS'x'
I348
sg17
I00
sS'y'
I858
s(dp62
S'y'
I908
sS'x'
I438
sg17
I00
s(dp63
S'y'
I928
sS'x'
I528
sg17
I00
stp64
stp65
sS'components'
p66
(tsS'anchors'
p67
(tsss."
LayerCount: 2
Fore
SplineSet
608 928 m 0
 930 928 1072 703 1072 461 c 0
 1072 181 892 -24 583 -24 c 0
 366 -24 190 76 99 309 c 1
 223 359 l 1
 296 192 428 93 575 93 c 0
 803 93 923 264 923 453 c 0
 923 634 817 808 602 808 c 0
 485 808 374 768 278 685 c 1
 185 744 l 1
 281 1464 l 1
 982 1464 l 1
 982 1337 l 1
 412 1337 l 1
 343 855 l 1
 433 910 540 928 608 928 c 0
EndSplineSet
EndChar

StartChar: four
Encoding: 20 52 182
Width: 1206
VWidth: 0
Flags: HW
PickledData: "(dp1
S'com.typemytype.robofont.layerData'
p2
(dp3
s."
LayerCount: 2
Fore
SplineSet
125 464 m 1
 673 1464 l 1
 877 1464 l 1
 877 467 l 1
 1132 467 l 1
 1132 357 l 1
 878 357 l 1
 878 0 l 1
 738 0 l 1
 738 357 l 1
 125 357 l 1
 125 464 l 1
738 1332 m 1
 286 467 l 1
 738 467 l 1
 738 1332 l 1
EndSplineSet
EndChar

StartChar: g
Encoding: 71 103 183
Width: 1074
VWidth: 0
Flags: HW
PickledData: "(dp1
S'com.typemytype.robofont.layerData'
p2
(dp3
S'b'
(dp4
S'name'
p5
S'g'
sS'lib'
p6
(dp7
sS'unicodes'
p8
(tsS'width'
p9
I1074
sS'contours'
p10
((dp11
S'points'
p12
((dp13
S'segmentType'
p14
S'curve'
p15
sS'x'
I522
sS'smooth'
p16
I01
sS'y'
I-429
s(dp17
S'y'
I-429
sS'x'
I423
sg16
I00
s(dp18
S'y'
I-410
sS'x'
I245
sg16
I00
s(dp19
g14
S'curve'
p20
sS'x'
I159
sg16
I00
sS'y'
I-267
s(dp21
g14
S'line'
p22
sS'x'
I242
sg16
I00
sS'y'
I-188
s(dp23
S'y'
I-283
sS'x'
I301
sg16
I00
s(dp24
S'y'
I-320
sS'x'
I399
sg16
I00
s(dp25
g14
S'curve'
p26
sS'x'
I529
sg16
I01
sS'y'
I-320
s(dp27
S'y'
I-320
sS'x'
I724
sg16
I00
s(dp28
S'y'
I-187
sS'x'
I813
sg16
I00
s(dp29
g14
S'curve'
p30
sS'x'
I813
sg16
I01
sS'y'
I28
s(dp31
g14
S'line'
p32
sS'x'
I813
sg16
I00
sS'y'
I130
s(dp33
S'y'
I38
sS'x'
I744
sg16
I00
s(dp34
S'y'
I-25
sS'x'
I648
sg16
I00
s(dp35
g14
S'curve'
p36
sS'x'
I503
sg16
I01
sS'y'
I-25
s(dp37
S'y'
I-25
sS'x'
I235
sg16
I00
s(dp38
S'y'
I204
sS'x'
I89
sg16
I00
s(dp39
g14
S'curve'
p40
sS'x'
I89
sg16
I01
sS'y'
I526
s(dp41
S'y'
I823
sS'x'
I89
sg16
I00
s(dp42
S'y'
I1044
sS'x'
I229
sg16
I00
s(dp43
g14
S'curve'
p44
sS'x'
I497
sg16
I01
sS'y'
I1044
s(dp45
S'y'
I1044
sS'x'
I629
sg16
I00
s(dp46
S'y'
I988
sS'x'
I743
sg16
I00
s(dp47
g14
S'curve'
p48
sS'x'
I824
sg16
I00
sS'y'
I891
s(dp49
g14
S'line'
p50
sS'x'
I832
sg16
I00
sS'y'
I1023
s(dp51
g14
S'line'
p52
sS'x'
I946
sg16
I00
sS'y'
I1023
s(dp53
g14
S'line'
p54
sS'x'
I946
sg16
I01
sS'y'
I20
s(dp55
S'y'
I-235
sS'x'
I946
sg16
I00
s(dp56
S'y'
I-429
sS'x'
I805
sg16
I00
stp57
stp58
sS'components'
p59
(tsS'anchors'
p60
(tsss."
LayerCount: 2
Fore
SplineSet
506 77 m 0
 727 77 814 205 814 520 c 0
 814 816 692 943 505 943 c 0
 330 943 217 787 216 514 c 0
 215 228 330 77 506 77 c 0
524 -429 m 0
 339 -431 211 -352 145 -268 c 1
 221 -189 l 1
 292 -276 376 -322 523 -322 c 0
 725 -322 814 -186 814 36 c 2
 814 147 l 1
 755 43 656 -24 500 -24 c 0
 236 -24 72 190 72 503 c 0
 72 857 249 1044 497 1044 c 0
 645 1044 756 970 820 844 c 1
 833 1023 l 1
 955 1023 l 1
 955 40 l 2
 955 -247 806 -426 524 -429 c 0
EndSplineSet
EndChar

StartChar: germandbls
Encoding: 159 223 187
Width: 1199
VWidth: 0
Flags: HW
PickledData: "(dp1
S'com.typemytype.robofont.layerData'
p2
(dp3
S'b'
(dp4
S'name'
p5
S'germandbls'
p6
sS'lib'
p7
(dp8
sS'unicodes'
p9
(tsS'width'
p10
I1199
sS'contours'
p11
(tsS'components'
p12
(tsS'anchors'
p13
(tsss."
LayerCount: 2
Fore
SplineSet
276 0 m 1
 130 0 l 1
 130 1151 l 2
 130 1373 350 1492 568 1492 c 0
 829 1492 940 1360 940 1203 c 0
 940 949 587 890 585 823 c 0
 580 685 1121 654 1121 336 c 0
 1121 111 1022 0 481 0 c 2
 441 0 l 1
 441 117 l 1
 895 117 970 206 975 334 c 0
 984 572 436 586 441 816 c 0
 445 1001 804 996 804 1209 c 0
 804 1322 721 1388 565 1388 c 0
 420 1388 276 1303 276 1140 c 2
 276 0 l 1
EndSplineSet
EndChar

StartChar: grave
Encoding: 64 96 188
Width: 496
VWidth: 0
Flags: HW
LayerCount: 2
Fore
SplineSet
47 1492 m 1
 242 1492 l 1
 447 1173 l 1
 353 1172 l 1
 47 1492 l 1
EndSplineSet
EndChar

StartChar: greater
Encoding: 30 62 189
Width: 1051
VWidth: 0
Flags: HW
LayerCount: 2
Fore
SplineSet
53 812 m 1
 53 950 l 1
 1002 584 l 1
 1002 458 l 1
 53 103 l 1
 53 255 l 1
 840 528 l 1
 53 812 l 1
EndSplineSet
EndChar

StartChar: guillemotleft
Encoding: 107 171 190
Width: 946
VWidth: 0
Flags: HW
PickledData: "(dp1
S'com.typemytype.robofont.layerData'
p2
(dp3
S'b'
(dp4
S'name'
p5
S'guillemotleft'
p6
sS'lib'
p7
(dp8
sS'unicodes'
p9
(tsS'width'
p10
I946
sS'contours'
p11
(tsS'components'
p12
(tsS'anchors'
p13
(tsss."
LayerCount: 2
Fore
SplineSet
936 1049 m 1
 936 907 l 1
 589 650 l 1
 936 391 l 1
 936 250 l 1
 491 551 l 1
 491 748 l 1
 936 1049 l 1
53 748 m 1
 498 1049 l 1
 498 907 l 1
 151 650 l 1
 498 391 l 1
 498 250 l 1
 53 551 l 1
 53 748 l 1
EndSplineSet
EndChar

StartChar: guillemotright
Encoding: 123 187 191
Width: 946
VWidth: 0
Flags: HW
PickledData: "(dp1
S'com.typemytype.robofont.layerData'
p2
(dp3
s."
LayerCount: 2
Fore
SplineSet
53 1049 m 1
 498 748 l 1
 498 551 l 1
 53 250 l 1
 53 391 l 1
 400 650 l 1
 53 907 l 1
 53 1049 l 1
936 748 m 1
 936 551 l 1
 491 250 l 1
 491 391 l 1
 838 650 l 1
 491 907 l 1
 491 1049 l 1
 936 748 l 1
EndSplineSet
EndChar

StartChar: guilsinglleft
Encoding: 506 8249 192
Width: 528
VWidth: 0
Flags: HW
LayerCount: 2
Fore
SplineSet
51 552 m 1
 51 749 l 1
 435 1050 l 1
 435 909 l 1
 149 650 l 1
 435 393 l 1
 435 251 l 1
 51 552 l 1
EndSplineSet
EndChar

StartChar: guilsinglright
Encoding: 507 8250 193
Width: 528
VWidth: 0
Flags: HW
LayerCount: 2
Fore
SplineSet
435 552 m 1
 51 251 l 1
 51 393 l 1
 337 650 l 1
 51 909 l 1
 51 1050 l 1
 435 749 l 1
 435 552 l 1
EndSplineSet
EndChar

StartChar: h
Encoding: 72 104 194
Width: 1086
VWidth: 0
Flags: HW
PickledData: "(dp1
S'com.typemytype.robofont.guides'
p2
(tsS'com.typemytype.robofont.layerData'
p3
(dp4
S'b'
(dp5
S'name'
p6
S'h'
sS'lib'
p7
(dp8
sS'unicodes'
p9
(tsS'width'
p10
I1086
sS'contours'
p11
((dp12
S'points'
p13
((dp14
S'segmentType'
p15
S'curve'
p16
sS'x'
I599
sS'smooth'
p17
I01
sS'y'
I940
s(dp18
S'y'
I940
sS'x'
I345
sg17
I00
s(dp19
S'y'
I723
sS'x'
I269
sg17
I00
s(dp20
g15
S'curve'
p21
sS'x'
I269
sg17
I01
sS'y'
I483
s(dp22
g15
S'line'
p23
sS'x'
I269
sg17
I00
sS'y'
I0
s(dp24
g15
S'line'
p25
sS'x'
I127
sg17
I00
sS'y'
I0
s(dp26
g15
S'line'
p27
sS'x'
I127
sg17
I00
sS'y'
I1474
s(dp28
g15
S'line'
p29
sS'x'
I269
sg17
I00
sS'y'
I1474
s(dp30
g15
S'line'
p31
sS'x'
I269
sg17
I00
sS'y'
I862
s(dp32
S'y'
I999
sS'x'
I357
sg17
I00
s(dp33
S'y'
I1044
sS'x'
I487
sg17
I00
s(dp34
g15
S'curve'
p35
sS'x'
I620
sg17
I01
sS'y'
I1044
s(dp36
S'y'
I1044
sS'x'
I946
sg17
I00
s(dp37
S'y'
I784
sS'x'
I977
sg17
I00
s(dp38
g15
S'curve'
p39
sS'x'
I977
sg17
I01
sS'y'
I583
s(dp40
g15
S'line'
p41
sS'x'
I977
sg17
I00
sS'y'
I0
s(dp42
g15
S'line'
p43
sS'x'
I835
sg17
I00
sS'y'
I0
s(dp44
g15
S'line'
p45
sS'x'
I835
sg17
I01
sS'y'
I594
s(dp46
S'y'
I807
sS'x'
I835
sg17
I00
s(dp47
S'y'
I940
sS'x'
I783
sg17
I00
stp48
stp49
sS'components'
p50
(tsS'anchors'
p51
(tsss."
LayerCount: 2
Fore
SplineSet
823 0 m 1
 823 603 l 2
 823 812 780 942 603 942 c 0
 358 942 278 767 270 538 c 1
 270 0 l 1
 127 0 l 1
 127 1474 l 1
 269 1474 l 1
 269 849 l 1
 337 975 457 1044 623 1044 c 0
 946 1044 965 790 965 584 c 2
 965 0 l 1
 823 0 l 1
EndSplineSet
EndChar

StartChar: hbar
Encoding: 229 295 195
Width: 1117
VWidth: 0
Flags: HW
PickledData: "(dp1
S'com.typemytype.robofont.layerData'
p2
(dp3
S'b'
(dp4
S'name'
p5
S'hbar'
p6
sS'lib'
p7
(dp8
sS'unicodes'
p9
(tsS'width'
p10
I1117
sS'contours'
p11
(tsS'components'
p12
(tsS'anchors'
p13
(tsss."
LayerCount: 2
Fore
SplineSet
0 1201 m 1
 0 1287 l 1
 520 1287 l 1
 520 1201 l 1
 0 1201 l 1
EndSplineSet
Refer: 194 104 N 1 0 0 1 0 0 2
EndChar

StartChar: hungarumlaut
Encoding: 366 733 197
Width: 745
VWidth: 0
Flags: HW
LayerCount: 2
Fore
SplineSet
192 1492 m 1
 381 1492 l 1
 153 1172 l 1
 87 1172 l 1
 192 1492 l 1
490 1492 m 1
 685 1492 l 1
 428 1172 l 1
 355 1172 l 1
 490 1492 l 1
EndSplineSet
EndChar

StartChar: hyphen
Encoding: 13 45 198
Width: 724
VWidth: 0
Flags: HW
LayerCount: 2
Fore
SplineSet
100 400 m 1
 100 511 l 1
 600 511 l 1
 600 400 l 1
 100 400 l 1
EndSplineSet
EndChar

StartChar: i
Encoding: 73 105 199
Width: 413
VWidth: 0
Flags: HW
PickledData: "(dp1
S'com.typemytype.robofont.layerData'
p2
(dp3
s."
LayerCount: 2
Fore
SplineSet
140 0 m 1
 140 1023 l 1
 282 1023 l 1
 282 0 l 1
 140 0 l 1
138 1242 m 1
 138 1421 l 1
 279 1421 l 1
 279 1242 l 1
 138 1242 l 1
EndSplineSet
EndChar

StartChar: ij
Encoding: 241 307 205
Width: 883
VWidth: 0
Flags: HW
LayerCount: 2
Fore
SplineSet
615 -91 m 2
 615 1023 l 1
 757 1023 l 1
 757 -12 l 2
 757 -217 730 -325 538 -325 c 0
 487 -325 424 -312 376 -284 c 1
 400 -177 l 1
 438 -191 486 -208 519 -208 c 0
 578 -208 615 -182 615 -91 c 2
617 1242 m 1
 617 1421 l 1
 758 1421 l 1
 758 1242 l 1
 617 1242 l 1
135 1242 m 1
 135 1421 l 1
 276 1421 l 1
 276 1242 l 1
 135 1242 l 1
137 0 m 1
 137 1023 l 1
 279 1023 l 1
 279 0 l 1
 137 0 l 1
EndSplineSet
EndChar

StartChar: j
Encoding: 74 106 209
Width: 482
VWidth: 0
Flags: HW
PickledData: "(dp1
S'com.typemytype.robofont.layerData'
p2
(dp3
S'b'
(dp4
S'name'
p5
S'j'
sS'lib'
p6
(dp7
sS'unicodes'
p8
(tsS'width'
p9
I482
sS'contours'
p10
(tsS'components'
p11
(tsS'anchors'
p12
(tsss."
LayerCount: 2
Fore
SplineSet
216 1242 m 1
 216 1421 l 1
 357 1421 l 1
 357 1242 l 1
 216 1242 l 1
140 -325 m 0
 69 -325 13 -306 -27 -284 c 1
 2 -177 l 1
 29 -189 65 -207 118 -207 c 0
 177 -207 214 -182 214 -91 c 2
 214 1023 l 1
 356 1023 l 1
 356 -12 l 2
 356 -217 322 -325 140 -325 c 0
EndSplineSet
EndChar

StartChar: k
Encoding: 75 107 211
Width: 1005
VWidth: 0
Flags: HW
PickledData: "(dp1
S'com.typemytype.robofont.layerData'
p2
(dp3
S'b'
(dp4
S'name'
p5
S'k'
sS'lib'
p6
(dp7
sS'unicodes'
p8
(tsS'width'
p9
I1005
sS'contours'
p10
((dp11
S'points'
p12
((dp13
S'segmentType'
p14
S'line'
p15
sS'x'
I794
sS'smooth'
p16
I00
sS'y'
I1023
s(dp17
g14
S'line'
p18
sS'x'
I956
sg16
I00
sS'y'
I1023
s(dp19
g14
S'line'
p20
sS'x'
I575
sg16
I00
sS'y'
I651
s(dp21
g14
S'line'
p22
sS'x'
I1015
sg16
I00
sS'y'
I0
s(dp23
g14
S'line'
p24
sS'x'
I855
sg16
I00
sS'y'
I0
s(dp25
g14
S'line'
p26
sS'x'
I482
sg16
I00
sS'y'
I565
s(dp27
g14
S'line'
p28
sS'x'
I269
sg16
I00
sS'y'
I369
s(dp29
g14
S'line'
p30
sS'x'
I269
sg16
I00
sS'y'
I0
s(dp31
g14
S'line'
p32
sS'x'
I127
sg16
I00
sS'y'
I0
s(dp33
g14
S'line'
p34
sS'x'
I127
sg16
I00
sS'y'
I1474
s(dp35
g14
S'line'
p36
sS'x'
I268
sg16
I00
sS'y'
I1474
s(dp37
g14
S'line'
p38
sS'x'
I268
sg16
I00
sS'y'
I511
stp39
stp40
sS'components'
p41
(tsS'anchors'
p42
(tsss."
LayerCount: 2
Fore
SplineSet
855 0 m 1
 480 564 l 1
 270 364 l 1
 270 0 l 1
 127 0 l 1
 127 1474 l 1
 269 1474 l 1
 270 516 l 1
 800 1023 l 1
 962 1023 l 1
 572 652 l 1
 1015 0 l 1
 855 0 l 1
EndSplineSet
EndChar

StartChar: kgreenlandic
Encoding: 246 312 213
Width: 1010
VWidth: 0
Flags: HW
PickledData: "(dp1
S'com.typemytype.robofont.layerData'
p2
(dp3
S'b'
(dp4
S'name'
p5
S'kgreenlandic'
p6
sS'lib'
p7
(dp8
sS'unicodes'
p9
(tsS'width'
p10
I1010
sS'contours'
p11
((dp12
S'points'
p13
((dp14
S'segmentType'
p15
S'line'
p16
sS'x'
I797
sS'smooth'
p17
I00
sS'y'
I1023
s(dp18
g15
S'line'
p19
sS'x'
I959
sg17
I00
sS'y'
I1023
s(dp20
g15
S'line'
p21
sS'x'
I599
sg17
I00
sS'y'
I621
s(dp22
g15
S'line'
p23
sS'x'
I1018
sg17
I00
sS'y'
I0
s(dp24
g15
S'line'
p25
sS'x'
I858
sg17
I00
sS'y'
I0
s(dp26
g15
S'line'
p27
sS'x'
I504
sg17
I00
sS'y'
I544
s(dp28
g15
S'line'
p29
sS'x'
I271
sg17
I00
sS'y'
I299
s(dp30
S'y'
I299
sS'x'
I271
sg17
I00
s(dp31
S'y'
I446
sS'x'
I271
sg17
I00
s(dp32
g15
S'curve'
p33
sS'x'
I271
sg17
I00
sS'y'
I446
stp34
stp35
sS'components'
p36
(tsS'anchors'
p37
(tsss."
LayerCount: 2
Fore
SplineSet
797 1023 m 1
 959 1023 l 1
 585 604 l 1
 1018 0 l 1
 858 0 l 1
 490 527 l 1
 203 231 l 1
 203 372 l 1
 797 1023 l 1
EndSplineSet
Refer: 222 -1 N 1 0 0 1 0 0 2
EndChar

StartChar: l
Encoding: 76 108 214
Width: 418
VWidth: 0
Flags: HW
PickledData: "(dp1
S'com.typemytype.robofont.layerData'
p2
(dp3
s."
LayerCount: 2
Fore
SplineSet
133 0 m 1
 133 1474 l 1
 275 1474 l 1
 275 0 l 1
 133 0 l 1
EndSplineSet
EndChar

StartChar: lc_ascender_stem
Encoding: 523 -1 216
Width: 1086
VWidth: 0
Flags: HW
PickledData: "(dp1
S'com.typemytype.robofont.layerData'
p2
(dp3
S'b'
(dp4
S'name'
p5
S'lc_main_stem'
p6
sS'lib'
p7
(dp8
sS'unicodes'
p9
(tsS'width'
p10
I1086
sS'contours'
p11
((dp12
S'points'
p13
((dp14
S'segmentType'
p15
S'line'
p16
sS'x'
I127
sS'smooth'
p17
I00
sS'y'
I0
s(dp18
g15
S'line'
p19
sS'x'
I269
sg17
I00
sS'y'
I0
s(dp20
g15
S'line'
p21
sS'x'
I269
sg17
I01
sS'y'
I499
s(dp22
S'y'
I745
sS'x'
I269
sg17
I00
s(dp23
S'y'
I940
sS'x'
I340
sg17
I00
s(dp24
g15
S'curve'
p25
sS'x'
I605
sg17
I01
sS'y'
I940
s(dp26
S'y'
I940
sS'x'
I782
sg17
I00
s(dp27
S'y'
I812
sS'x'
I823
sg17
I00
s(dp28
g15
S'curve'
p29
sS'x'
I823
sg17
I01
sS'y'
I603
s(dp30
g15
S'line'
p31
sS'x'
I823
sg17
I00
sS'y'
I0
s(dp32
g15
S'line'
p33
sS'x'
I965
sg17
I00
sS'y'
I0
s(dp34
g15
S'line'
p35
sS'x'
I965
sg17
I01
sS'y'
I584
s(dp36
S'y'
I790
sS'x'
I965
sg17
I00
s(dp37
S'y'
I1044
sS'x'
I946
sg17
I00
s(dp38
g15
S'curve'
p39
sS'x'
I623
sg17
I01
sS'y'
I1044
s(dp40
S'y'
I1044
sS'x'
I491
sg17
I00
s(dp41
S'y'
I983
sS'x'
I317
sg17
I00
s(dp42
g15
S'curve'
p43
sS'x'
I265
sg17
I00
sS'y'
I830
s(dp44
g15
S'line'
p45
sS'x'
I265
sg17
I00
sS'y'
I1023
s(dp46
g15
S'line'
p47
sS'x'
I127
sg17
I00
sS'y'
I1023
stp48
stp49
sS'components'
p50
(tsS'anchors'
p51
(tsssS'com.typemytype.robofont.mark'
p52
(F0
F0
F1
F1
tp53
s."
LayerCount: 2
Fore
SplineSet
127 0 m 1
 127 1474 l 1
 269 1474 l 1
 270 0 l 1
 127 0 l 1
EndSplineSet
EndChar

StartChar: lc_ascender_stem_2
Encoding: 65539 -1 217
Width: 1078
VWidth: 0
Flags: HW
PickledData: "(dp1
S'com.typemytype.robofont.layerData'
p2
(dp3
S'b'
(dp4
S'name'
p5
S'lc_ascender_stem_2'
p6
sS'lib'
p7
(dp8
sS'unicodes'
p9
(tsS'width'
p10
I1078
sS'contours'
p11
((dp12
S'points'
p13
((dp14
S'segmentType'
p15
S'line'
p16
sS'x'
I127
sS'smooth'
p17
I00
sS'y'
I0
s(dp18
g15
S'line'
p19
sS'x'
I240
sg17
I00
sS'y'
I0
s(dp20
S'y'
I0
sS'x'
I240
sg17
I00
s(dp21
S'y'
I254
sS'x'
I270
sg17
I00
s(dp22
g15
S'curve'
p23
sS'x'
I270
sg17
I00
sS'y'
I254
s(dp24
g15
S'line'
p25
sS'x'
I270
sg17
I00
sS'y'
I1474
s(dp26
g15
S'line'
p27
sS'x'
I127
sg17
I00
sS'y'
I1474
stp28
s(dp29
g13
((dp30
g15
S'curve'
p31
sS'x'
I565
sg17
I01
sS'y'
I940
s(dp32
S'y'
I940
sS'x'
I735
sg17
I00
s(dp33
S'y'
I757
sS'x'
I842
sg17
I00
s(dp34
g15
S'curve'
p35
sS'x'
I842
sg17
I01
sS'y'
I520
s(dp36
S'y'
I256
sS'x'
I842
sg17
I00
s(dp37
S'y'
I80
sS'x'
I739
sg17
I00
s(dp38
g15
S'curve'
p39
sS'x'
I567
sg17
I01
sS'y'
I80
s(dp40
S'y'
I80
sS'x'
I335
sg17
I00
s(dp41
S'y'
I275
sS'x'
I266
sg17
I00
s(dp42
g15
S'curve'
p43
sS'x'
I266
sg17
I01
sS'y'
I522
s(dp44
S'y'
I848
sS'x'
I266
sg17
I00
s(dp45
S'y'
I940
sS'x'
I435
sg17
I00
stp46
s(dp47
g13
((dp48
g15
S'curve'
p49
sS'x'
I200
sg17
I00
sS'y'
I301
s(dp50
S'y'
I135
sS'x'
I248
sg17
I00
s(dp51
S'y'
I-25
sS'x'
I338
sg17
I00
s(dp52
g15
S'curve'
p53
sS'x'
I582
sg17
I01
sS'y'
I-25
s(dp54
S'y'
I-25
sS'x'
I845
sg17
I00
s(dp55
S'y'
I190
sS'x'
I986
sg17
I00
s(dp56
g15
S'curve'
p57
sS'x'
I986
sg17
I01
sS'y'
I502
s(dp58
S'y'
I840
sS'x'
I986
sg17
I00
s(dp59
S'y'
I1044
sS'x'
I839
sg17
I00
s(dp60
g15
S'curve'
p61
sS'x'
I591
sg17
I01
sS'y'
I1044
s(dp62
S'y'
I1044
sS'x'
I381
sg17
I00
s(dp63
S'y'
I909
sS'x'
I259
sg17
I00
s(dp64
g15
S'curve'
p65
sS'x'
I200
sg17
I00
sS'y'
I725
s(dp66
S'y'
I725
sS'x'
I200
sg17
I00
s(dp67
S'y'
I301
sS'x'
I200
sg17
I00
stp68
stp69
sS'components'
p70
(tsS'anchors'
p71
(tsssS'com.typemytype.robofont.mark'
p72
(F0
F0
F1
F1
tp73
s."
LayerCount: 2
Fore
SplineSet
128 0 m 1
 128 1474 l 1
 270 1474 l 1
 270 758 l 1
 238 0 l 1
 128 0 l 1
EndSplineSet
EndChar

StartChar: lc_ascender_stem_3
Encoding: 65540 -1 218
Width: 1078
VWidth: 0
Flags: HW
PickledData: "(dp1
S'com.typemytype.robofont.layerData'
p2
(dp3
S'b'
(dp4
S'name'
p5
S'lc_ascender_stem_2'
p6
sS'lib'
p7
(dp8
sS'unicodes'
p9
(tsS'width'
p10
I1078
sS'contours'
p11
((dp12
S'points'
p13
((dp14
S'segmentType'
p15
S'line'
p16
sS'x'
I127
sS'smooth'
p17
I00
sS'y'
I0
s(dp18
g15
S'line'
p19
sS'x'
I240
sg17
I00
sS'y'
I0
s(dp20
S'y'
I0
sS'x'
I240
sg17
I00
s(dp21
S'y'
I254
sS'x'
I270
sg17
I00
s(dp22
g15
S'curve'
p23
sS'x'
I270
sg17
I00
sS'y'
I254
s(dp24
g15
S'line'
p25
sS'x'
I270
sg17
I00
sS'y'
I1474
s(dp26
g15
S'line'
p27
sS'x'
I127
sg17
I00
sS'y'
I1474
stp28
s(dp29
g13
((dp30
g15
S'curve'
p31
sS'x'
I565
sg17
I01
sS'y'
I940
s(dp32
S'y'
I940
sS'x'
I735
sg17
I00
s(dp33
S'y'
I757
sS'x'
I842
sg17
I00
s(dp34
g15
S'curve'
p35
sS'x'
I842
sg17
I01
sS'y'
I520
s(dp36
S'y'
I256
sS'x'
I842
sg17
I00
s(dp37
S'y'
I80
sS'x'
I739
sg17
I00
s(dp38
g15
S'curve'
p39
sS'x'
I567
sg17
I01
sS'y'
I80
s(dp40
S'y'
I80
sS'x'
I335
sg17
I00
s(dp41
S'y'
I275
sS'x'
I266
sg17
I00
s(dp42
g15
S'curve'
p43
sS'x'
I266
sg17
I01
sS'y'
I522
s(dp44
S'y'
I848
sS'x'
I266
sg17
I00
s(dp45
S'y'
I940
sS'x'
I435
sg17
I00
stp46
s(dp47
g13
((dp48
g15
S'curve'
p49
sS'x'
I200
sg17
I00
sS'y'
I301
s(dp50
S'y'
I135
sS'x'
I248
sg17
I00
s(dp51
S'y'
I-25
sS'x'
I338
sg17
I00
s(dp52
g15
S'curve'
p53
sS'x'
I582
sg17
I01
sS'y'
I-25
s(dp54
S'y'
I-25
sS'x'
I845
sg17
I00
s(dp55
S'y'
I190
sS'x'
I986
sg17
I00
s(dp56
g15
S'curve'
p57
sS'x'
I986
sg17
I01
sS'y'
I502
s(dp58
S'y'
I840
sS'x'
I986
sg17
I00
s(dp59
S'y'
I1044
sS'x'
I839
sg17
I00
s(dp60
g15
S'curve'
p61
sS'x'
I591
sg17
I01
sS'y'
I1044
s(dp62
S'y'
I1044
sS'x'
I381
sg17
I00
s(dp63
S'y'
I909
sS'x'
I259
sg17
I00
s(dp64
g15
S'curve'
p65
sS'x'
I200
sg17
I00
sS'y'
I725
s(dp66
S'y'
I725
sS'x'
I200
sg17
I00
s(dp67
S'y'
I301
sS'x'
I200
sg17
I00
stp68
stp69
sS'components'
p70
(tsS'anchors'
p71
(tsssS'com.typemytype.robofont.mark'
p72
(F0
F0
F1
F1
tp73
s."
LayerCount: 2
Fore
SplineSet
977 0 m 1
 867 0 l 1
 835 758 l 1
 835 1474 l 1
 977 1474 l 1
 977 0 l 1
EndSplineSet
EndChar

StartChar: lc_curved_stem
Encoding: 65541 -1 219
Width: 1086
VWidth: 0
Flags: HW
PickledData: "(dp1
S'com.typemytype.robofont.layerData'
p2
(dp3
sS'com.typemytype.robofont.mark'
p4
(F0
F0
F1
F1
tp5
s."
LayerCount: 2
Fore
SplineSet
823 0 m 1
 823 603 l 2
 823 812 780 942 603 942 c 0
 344 942 269 747 269 499 c 1
 204 610 l 1
 228 885 371 1044 623 1044 c 0
 946 1044 965 790 965 584 c 2
 965 0 l 1
 823 0 l 1
EndSplineSet
EndChar

StartChar: lc_descender_stem
Encoding: 524 -1 220
Width: 1057
VWidth: 0
Flags: HW
PickledData: "(dp1
S'com.typemytype.robofont.layerData'
p2
(dp3
S'b'
(dp4
S'name'
p5
S'lc_descender_stem'
p6
sS'lib'
p7
(dp8
sS'unicodes'
p9
(tsS'width'
p10
I1057
sS'contours'
p11
(tsS'components'
p12
(tsS'anchors'
p13
(tsssS'com.typemytype.robofont.mark'
p14
(F0
F0
F1
F1
tp15
s."
LayerCount: 2
Fore
SplineSet
269 -350 m 1
 127 -350 l 1
 127 1023 l 1
 249 1023 l 1
 268 798 l 1
 269 -350 l 1
EndSplineSet
EndChar

StartChar: lc_descender_stem_2
Encoding: 65542 -1 221
Width: 1057
VWidth: 0
Flags: HW
PickledData: "(dp1
S'com.typemytype.robofont.layerData'
p2
(dp3
S'b'
(dp4
S'name'
p5
S'lc_descender_stem'
p6
sS'lib'
p7
(dp8
sS'unicodes'
p9
(tsS'width'
p10
I1057
sS'contours'
p11
(tsS'components'
p12
(tsS'anchors'
p13
(tsssS'com.typemytype.robofont.mark'
p14
(F0
F0
F1
F1
tp15
s."
LayerCount: 2
Fore
SplineSet
127 -350 m 1
 128 798 l 1
 147 1023 l 1
 269 1023 l 1
 269 -350 l 1
 127 -350 l 1
EndSplineSet
EndChar

StartChar: lc_main_stem
Encoding: 65543 -1 222
Width: 1086
VWidth: 0
Flags: HW
PickledData: "(dp1
S'com.typemytype.robofont.layerData'
p2
(dp3
S'b'
(dp4
S'name'
p5
S'lc_main_stem'
p6
sS'lib'
p7
(dp8
sS'unicodes'
p9
(tsS'width'
p10
I1086
sS'contours'
p11
((dp12
S'points'
p13
((dp14
S'segmentType'
p15
S'line'
p16
sS'x'
I127
sS'smooth'
p17
I00
sS'y'
I0
s(dp18
g15
S'line'
p19
sS'x'
I269
sg17
I00
sS'y'
I0
s(dp20
g15
S'line'
p21
sS'x'
I269
sg17
I01
sS'y'
I499
s(dp22
S'y'
I745
sS'x'
I269
sg17
I00
s(dp23
S'y'
I940
sS'x'
I340
sg17
I00
s(dp24
g15
S'curve'
p25
sS'x'
I605
sg17
I01
sS'y'
I940
s(dp26
S'y'
I940
sS'x'
I782
sg17
I00
s(dp27
S'y'
I812
sS'x'
I823
sg17
I00
s(dp28
g15
S'curve'
p29
sS'x'
I823
sg17
I01
sS'y'
I603
s(dp30
g15
S'line'
p31
sS'x'
I823
sg17
I00
sS'y'
I0
s(dp32
g15
S'line'
p33
sS'x'
I965
sg17
I00
sS'y'
I0
s(dp34
g15
S'line'
p35
sS'x'
I965
sg17
I01
sS'y'
I584
s(dp36
S'y'
I790
sS'x'
I965
sg17
I00
s(dp37
S'y'
I1044
sS'x'
I946
sg17
I00
s(dp38
g15
S'curve'
p39
sS'x'
I623
sg17
I01
sS'y'
I1044
s(dp40
S'y'
I1044
sS'x'
I491
sg17
I00
s(dp41
S'y'
I983
sS'x'
I317
sg17
I00
s(dp42
g15
S'curve'
p43
sS'x'
I265
sg17
I00
sS'y'
I830
s(dp44
g15
S'line'
p45
sS'x'
I265
sg17
I00
sS'y'
I1023
s(dp46
g15
S'line'
p47
sS'x'
I127
sg17
I00
sS'y'
I1023
stp48
stp49
sS'components'
p50
(tsS'anchors'
p51
(tsssS'com.typemytype.robofont.mark'
p52
(F0
F0
F1
F1
tp53
s."
LayerCount: 2
Fore
SplineSet
127 0 m 1
 127 1023 l 1
 269 1023 l 1
 270 0 l 1
 127 0 l 1
EndSplineSet
EndChar

StartChar: less
Encoding: 28 60 226
Width: 1051
VWidth: 0
Flags: HW
LayerCount: 2
Fore
SplineSet
998 241 m 1
 998 103 l 1
 49 469 l 1
 49 595 l 1
 998 950 l 1
 998 798 l 1
 211 525 l 1
 998 241 l 1
EndSplineSet
EndChar

StartChar: logicalnot
Encoding: 108 172 227
Width: 1024
VWidth: 0
Flags: HW
LayerCount: 2
Fore
SplineSet
803 335 m 1
 803 670 l 1
 135 670 l 1
 135 756 l 1
 889 756 l 1
 889 335 l 1
 803 335 l 1
EndSplineSet
EndChar

StartChar: lslash
Encoding: 256 322 228
Width: 421
VWidth: 0
Flags: HW
PickledData: "(dp1
S'com.typemytype.robofont.layerData'
p2
(dp3
S'b'
(dp4
S'name'
p5
S'lslash'
p6
sS'lib'
p7
(dp8
sS'unicodes'
p9
(tsS'width'
p10
I421
sS'contours'
p11
(tsS'components'
p12
(tsS'anchors'
p13
(tsss."
LayerCount: 2
Fore
SplineSet
-60 669 m 1
 -60 787 l 1
 457 1032 l 1
 457 914 l 1
 -60 669 l 1
EndSplineSet
Refer: 214 108 N 1 0 0 1 0 0 2
EndChar

StartChar: m
Encoding: 77 109 229
Width: 1782
VWidth: 0
Flags: HW
PickledData: "(dp1
S'com.typemytype.robofont.layerData'
p2
(dp3
S'b'
(dp4
S'name'
p5
S'm'
sS'lib'
p6
(dp7
sS'unicodes'
p8
(tsS'width'
p9
I1782
sS'contours'
p10
((dp11
S'points'
p12
((dp13
S'segmentType'
p14
S'curve'
p15
sS'x'
I269
sS'smooth'
p16
I01
sS'y'
I583
s(dp17
g14
S'line'
p18
sS'x'
I269
sg16
I00
sS'y'
I0
s(dp19
g14
S'line'
p20
sS'x'
I127
sg16
I00
sS'y'
I0
s(dp21
g14
S'line'
p22
sS'x'
I127
sg16
I00
sS'y'
I1023
s(dp23
g14
S'line'
p24
sS'x'
I264
sg16
I00
sS'y'
I1023
s(dp25
g14
S'line'
p26
sS'x'
I268
sg16
I00
sS'y'
I861
s(dp27
S'y'
I998
sS'x'
I348
sg16
I00
s(dp28
S'y'
I1044
sS'x'
I476
sg16
I00
s(dp29
g14
S'curve'
p30
sS'x'
I594
sg16
I01
sS'y'
I1044
s(dp31
S'y'
I1044
sS'x'
I751
sg16
I00
s(dp32
S'y'
I961
sS'x'
I844
sg16
I00
s(dp33
g14
S'curve'
p34
sS'x'
I880
sg16
I00
sS'y'
I832
s(dp35
S'y'
I982
sS'x'
I952
sg16
I00
s(dp36
S'y'
I1044
sS'x'
I1092
sg16
I00
s(dp37
g14
S'curve'
p38
sS'x'
I1225
sg16
I01
sS'y'
I1044
s(dp39
S'y'
I1044
sS'x'
I1508
sg16
I00
s(dp40
S'y'
I792
sS'x'
I1543
sg16
I00
s(dp41
g14
S'curve'
p42
sS'x'
I1543
sg16
I01
sS'y'
I576
s(dp43
g14
S'line'
p44
sS'x'
I1543
sg16
I00
sS'y'
I0
s(dp45
g14
S'line'
p46
sS'x'
I1401
sg16
I00
sS'y'
I0
s(dp47
g14
S'line'
p48
sS'x'
I1401
sg16
I01
sS'y'
I607
s(dp49
S'y'
I802
sS'x'
I1401
sg16
I00
s(dp50
S'y'
I940
sS'x'
I1357
sg16
I00
s(dp51
g14
S'curve'
p52
sS'x'
I1200
sg16
I01
sS'y'
I940
s(dp53
S'y'
I940
sS'x'
I1024
sg16
I00
s(dp54
S'y'
I761
sS'x'
I905
sg16
I00
s(dp55
g14
S'curve'
p56
sS'x'
I905
sg16
I01
sS'y'
I591
s(dp57
g14
S'line'
p58
sS'x'
I905
sg16
I00
sS'y'
I0
s(dp59
g14
S'line'
p60
sS'x'
I763
sg16
I00
sS'y'
I0
s(dp61
g14
S'line'
p62
sS'x'
I763
sg16
I01
sS'y'
I607
s(dp63
S'y'
I805
sS'x'
I763
sg16
I00
s(dp64
S'y'
I940
sS'x'
I718
sg16
I00
s(dp65
g14
S'curve'
p66
sS'x'
I564
sg16
I01
sS'y'
I940
s(dp67
S'y'
I940
sS'x'
I382
sg16
I00
s(dp68
S'y'
I757
sS'x'
I269
sg16
I00
stp69
stp70
sS'components'
p71
(tsS'anchors'
p72
(tsss."
LayerCount: 2
Fore
SplineSet
823 0 m 1
 823 603 l 2
 823 812 780 943 603 943 c 0
 360 943 276 764 269 532 c 1
 270 0 l 1
 127 0 l 1
 127 1023 l 1
 269 1023 l 1
 269 850 l 1
 338 976 457 1044 623 1044 c 0
 831 1044 913 939 945 809 c 1
 1009 962 1135 1044 1319 1044 c 0
 1642 1044 1661 790 1661 584 c 2
 1661 0 l 1
 1519 0 l 1
 1519 603 l 2
 1519 812 1476 943 1299 943 c 0
 1043 943 965 742 965 494 c 2
 965 0 l 1
 823 0 l 1
EndSplineSet
EndChar

StartChar: macron
Encoding: 111 175 230
Width: 724
VWidth: 0
Flags: HW
PickledData: "(dp1
S'com.typemytype.robofont.layerData'
p2
(dp3
s."
LayerCount: 2
Fore
SplineSet
135 1209 m 1
 135 1309 l 1
 589 1309 l 1
 589 1209 l 1
 135 1209 l 1
EndSplineSet
EndChar

StartChar: minus
Encoding: 514 8722 231
Width: 1024
VWidth: 0
Flags: HW
LayerCount: 2
Fore
SplineSet
803 670 m 1
 135 670 l 1
 135 756 l 1
 803 756 l 1
 803 670 l 1
EndSplineSet
EndChar

StartChar: mu
Encoding: -1 956 232
Width: 1119
VWidth: 0
Flags: HW
PickledData: "(dp1
S'com.typemytype.robofont.layerData'
p2
(dp3
s."
LayerCount: 2
Fore
SplineSet
263 -224 m 1
 263 1023 l 1
 121 1023 l 1
 121 -224 l 1
 263 -224 l 1
EndSplineSet
Refer: 305 117 N 1 0 0 1 0 0 2
EndChar

StartChar: multiply
Encoding: 151 215 233
Width: 734
VWidth: 0
Flags: HW
PickledData: "(dp1
S'com.typemytype.robofont.layerData'
p2
(dp3
s."
LayerCount: 2
Fore
SplineSet
534 193 m 1
 367 359 l 1
 200 193 l 1
 110 283 l 1
 276 450 l 1
 110 617 l 1
 200 707 l 1
 367 541 l 1
 534 707 l 1
 624 617 l 1
 458 450 l 1
 624 283 l 1
 534 193 l 1
EndSplineSet
EndChar

StartChar: n
Encoding: 78 110 234
Width: 1086
VWidth: 0
Flags: HW
PickledData: "(dp1
S'com.typemytype.robofont.layerData'
p2
(dp3
S'b'
(dp4
S'name'
p5
S'n'
sS'lib'
p6
(dp7
sS'unicodes'
p8
(tsS'width'
p9
I1086
sS'contours'
p10
((dp11
S'points'
p12
((dp13
S'y'
I830
sS'x'
I265
sS'smooth'
p14
I00
s(dp15
S'y'
I499
sS'x'
I269
sg14
I00
s(dp16
S'segmentType'
p17
S'curve'
p18
sS'x'
I269
sg14
I01
sS'y'
I499
s(dp19
S'y'
I745
sS'x'
I269
sg14
I00
s(dp20
S'y'
I940
sS'x'
I340
sg14
I00
s(dp21
g17
S'curve'
p22
sS'x'
I605
sg14
I01
sS'y'
I940
s(dp23
S'y'
I940
sS'x'
I782
sg14
I00
s(dp24
S'y'
I812
sS'x'
I823
sg14
I00
s(dp25
g17
S'curve'
p26
sS'x'
I823
sg14
I01
sS'y'
I603
s(dp27
g17
S'line'
p28
sS'x'
I823
sg14
I00
sS'y'
I0
s(dp29
g17
S'line'
p30
sS'x'
I965
sg14
I00
sS'y'
I0
s(dp31
g17
S'line'
p32
sS'x'
I965
sg14
I01
sS'y'
I584
s(dp33
S'y'
I790
sS'x'
I965
sg14
I00
s(dp34
S'y'
I1044
sS'x'
I946
sg14
I00
s(dp35
g17
S'curve'
p36
sS'x'
I623
sg14
I01
sS'y'
I1044
s(dp37
S'y'
I1044
sS'x'
I491
sg14
I00
s(dp38
S'y'
I983
sS'x'
I317
sg14
I00
s(dp39
g17
S'curve'
p40
sS'x'
I265
sg14
I00
sS'y'
I830
stp41
stp42
sS'components'
p43
(tsS'anchors'
p44
(tsss."
LayerCount: 2
Fore
SplineSet
823 0 m 1
 823 605 l 2
 823 816 778 943 601 943 c 0
 368 943 281 780 269 564 c 1
 270 0 l 1
 127 0 l 1
 127 1023 l 1
 269 1023 l 1
 269 852 l 1
 338 980 457 1044 623 1044 c 0
 944 1044 965 787 965 584 c 2
 965 0 l 1
 823 0 l 1
EndSplineSet
EndChar

StartChar: nine
Encoding: 25 57 238
Width: 1202
VWidth: 0
Flags: HW
PickledData: "(dp1
S'com.typemytype.robofont.layerData'
p2
(dp3
S'b'
(dp4
S'name'
p5
S'nine'
p6
sS'lib'
p7
(dp8
sS'unicodes'
p9
(tsS'width'
p10
I1202
sS'contours'
p11
(tsS'components'
p12
(tsS'anchors'
p13
(tsss."
LayerCount: 2
Fore
SplineSet
923 646 m 1
 826 569 697 525 584 520 c 0
 314 509 123 677 123 982 c 0
 123 1232 281 1491 583 1491 c 0
 926 1491 1082 1214 1082 766 c 0
 1082 265 867 -25 565 -25 c 0
 467 -25 339 6 243 70 c 1
 284 181 l 1
 371 120 470 90 562 92 c 0
 771 97 910 289 923 646 c 1
923 765 m 1
 923 807 l 2
 923 1097 860 1373 583 1373 c 0
 395 1373 274 1229 274 986 c 0
 274 744 372 624 597 632 c 0
 709 636 824 687 923 765 c 1
EndSplineSet
EndChar

StartChar: numbersign
Encoding: 3 35 240
Width: 1221
VWidth: 0
Flags: HW
PickledData: "(dp1
S'com.typemytype.robofont.layerData'
p2
(dp3
s."
LayerCount: 2
Fore
SplineSet
278 1 m 1
 145 0 l 1
 256 551 l 1
 51 551 l 1
 80 649 l 1
 276 649 l 1
 327 901 l 1
 120 901 l 1
 149 999 l 1
 347 999 l 1
 441 1463 l 1
 579 1464 l 1
 483 999 l 1
 808 999 l 1
 903 1463 l 1
 1041 1464 l 1
 945 999 l 1
 1175 999 l 1
 1146 901 l 1
 925 901 l 1
 873 649 l 1
 1106 649 l 1
 1077 551 l 1
 853 551 l 1
 740 1 l 1
 607 0 l 1
 718 551 l 1
 391 551 l 1
 278 1 l 1
463 901 m 1
 411 649 l 1
 738 649 l 1
 788 901 l 1
 463 901 l 1
EndSplineSet
EndChar

StartChar: o
Encoding: 79 111 241
Width: 1064
VWidth: 0
Flags: HW
PickledData: "(dp1
S'com.typemytype.robofont.guides'
p2
(tsS'com.typemytype.robofont.layerData'
p3
(dp4
s."
LayerCount: 2
Fore
SplineSet
237 510 m 0
 237 299 298 77 532 77 c 0
 766 77 827 299 827 510 c 0
 827 721 766 943 532 943 c 0
 298 943 237 721 237 510 c 0
972 510 m 0
 972 160 797 -24 532 -24 c 0
 267 -24 92 160 92 510 c 0
 92 860 267 1044 532 1044 c 0
 797 1044 972 860 972 510 c 0
EndSplineSet
EndChar

StartChar: ogonek
Encoding: 364 731 247
Width: 462
VWidth: 0
Flags: HW
PickledData: "(dp1
S'com.typemytype.robofont.layerData'
p2
(dp3
s."
LayerCount: 2
Fore
SplineSet
315 0 m 1
 281 -74 235 -161 235 -219 c 0
 235 -268 263 -299 346 -280 c 1
 346 -361 l 1
 188 -400 114 -321 117 -241 c 0
 120 -166 179 -88 244 0 c 1
 315 0 l 1
EndSplineSet
EndChar

StartChar: one
Encoding: 17 49 251
Width: 777
VWidth: 0
Flags: HW
PickledData: "(dp1
S'com.typemytype.robofont.layerData'
p2
(dp3
s."
LayerCount: 2
Fore
SplineSet
365 1328 m 1
 149 1228 l 1
 105 1344 l 1
 382 1464 l 1
 511 1464 l 1
 511 0 l 1
 365 0 l 1
 365 1328 l 1
EndSplineSet
EndChar

StartChar: onehalf
Encoding: 125 189 252
Width: 1548
VWidth: 0
Flags: HW
PickledData: "(dp1
S'com.typemytype.robofont.layerData'
p2
(dp3
s."
LayerCount: 2
Fore
SplineSet
195 -14 m 1
 118 52 l 1
 1354 1481 l 1
 1430 1415 l 1
 195 -14 l 1
302 1365 m 1
 185 1307 l 1
 164 1397 l 1
 312 1464 l 1
 415 1464 l 1
 415 769 l 1
 302 769 l 1
 302 1365 l 1
1441 0 m 1
 966 0 l 1
 965 82 l 1
 1217 295 1346 364 1335 486 c 0
 1327 576 1266 619 1198 619 c 0
 1127 619 1053 574 1035 492 c 1
 945 537 l 1
 988 658 1094 712 1200 712 c 0
 1317 712 1427 638 1440 495 c 0
 1454 339 1311 265 1098 79 c 1
 1441 79 l 1
 1441 0 l 1
EndSplineSet
EndChar

StartChar: onequarter
Encoding: 124 188 253
Width: 1403
VWidth: 0
Flags: HW
PickledData: "(dp1
S'com.typemytype.robofont.layerData'
p2
(dp3
s."
LayerCount: 2
Fore
SplineSet
155 -14 m 1
 78 52 l 1
 1314 1481 l 1
 1390 1415 l 1
 155 -14 l 1
242 1365 m 1
 125 1307 l 1
 104 1397 l 1
 252 1464 l 1
 355 1464 l 1
 355 769 l 1
 242 769 l 1
 242 1365 l 1
789 152 m 1
 789 220 l 1
 1109 693 l 1
 1255 693 l 1
 1255 234 l 1
 1355 234 l 1
 1355 152 l 1
 1255 152 l 1
 1255 0 l 1
 1140 0 l 1
 1140 152 l 1
 789 152 l 1
1140 234 m 1
 1140 585 l 1
 903 234 l 1
 1140 234 l 1
EndSplineSet
EndChar

StartChar: ordfeminine
Encoding: 106 170 254
Width: 946
VWidth: 0
Flags: HW
PickledData: "(dp1
S'com.typemytype.robofont.layerData'
p2
(dp3
s."
LayerCount: 2
Fore
SplineSet
674 771 m 1
 674 1022 l 1
 572 1009 l 2
 359 982 278 934 271 830 c 0
 265 745 295 677 394 664 c 0
 475 653 599 704 674 771 c 1
676 693 m 1
 605 630 527 583 398 583 c 0
 272 583 157 656 157 804 c 0
 157 1018 336 1068 577 1098 c 2
 674 1110 l 1
 674 1176 l 2
 674 1321 592 1373 497 1373 c 0
 410 1373 320 1325 263 1269 c 1
 263 1270 185 1340 185 1340 c 1
 260 1422 398 1474 495 1474 c 0
 689 1474 797 1365 797 1147 c 2
 797 603 l 1
 690 603 l 1
 676 693 l 1
EndSplineSet
EndChar

StartChar: ordmasculine
Encoding: 122 186 255
Width: 1000
VWidth: 0
Flags: HW
PickledData: "(dp1
S'com.typemytype.robofont.layerData'
p2
(dp3
S'b'
(dp4
S'name'
p5
S'ordmasculine'
p6
sS'lib'
p7
(dp8
sS'unicodes'
p9
(tsS'width'
p10
I1000
sS'contours'
p11
(tsS'components'
p12
(tsS'anchors'
p13
(tsss."
LayerCount: 2
Fore
SplineSet
139 1028 m 0
 139 1330 305 1474 517 1474 c 0
 726 1474 893 1331 893 1031 c 0
 893 738 737 583 516 583 c 0
 295 583 139 737 139 1028 c 0
517 682 m 0
 690 682 763 854 763 1029 c 0
 763 1204 690 1376 516 1376 c 0
 341 1376 270 1204 270 1031 c 0
 270 855 341 682 517 682 c 0
EndSplineSet
EndChar

StartChar: oslash
Encoding: 184 248 256
Width: 1104
VWidth: 0
Flags: HW
PickledData: "(dp1
S'com.typemytype.robofont.layerData'
p2
(dp3
S'b'
(dp4
S'name'
p5
S'oslash'
p6
sS'lib'
p7
(dp8
sS'unicodes'
p9
(tsS'width'
p10
I1104
sS'contours'
p11
(tsS'components'
p12
(tsS'anchors'
p13
(tsss."
LayerCount: 2
Fore
SplineSet
906 1178 m 1
 254 -197 l 1
 181 -159 l 1
 834 1216 l 1
 906 1178 l 1
EndSplineSet
Refer: 241 111 N 1 0 0 1 0 0 2
EndChar

StartChar: p
Encoding: 80 112 258
Width: 1082
VWidth: 0
Flags: HW
PickledData: "(dp1
S'com.typemytype.robofont.layerData'
p2
(dp3
S'b'
(dp4
S'name'
p5
S'p'
sS'lib'
p6
(dp7
sS'unicodes'
p8
(tsS'width'
p9
I1082
sS'contours'
p10
(tsS'components'
p11
(tsS'anchors'
p12
(tsss."
LayerCount: 2
Fore
SplineSet
580 -24 m 0
 426 -24 327 40 269 141 c 1
 269 -350 l 1
 127 -350 l 1
 127 1023 l 1
 249 1023 l 1
 264 850 l 1
 327 973 435 1044 580 1044 c 0
 828 1044 990 856 990 502 c 0
 990 190 843 -24 580 -24 c 0
268 490 m 1
 273 197 361 77 575 77 c 0
 750 77 846 229 846 514 c 0
 846 791 749 943 572 943 c 0
 391 943 274 818 268 542 c 1
 268 490 l 1
EndSplineSet
EndChar

StartChar: paragraph
Encoding: 118 182 259
Width: 1038
VWidth: 0
Flags: HW
PickledData: "(dp1
S'com.typemytype.robofont.layerData'
p2
(dp3
s."
LayerCount: 2
Fore
SplineSet
469 0 m 1
 469 799 l 1
 254 799 109 928 109 1124 c 0
 109 1303 186 1464 626 1464 c 2
 974 1464 l 1
 974 1349 l 1
 824 1349 l 1
 824 0 l 1
 698 0 l 1
 698 799 l 1
 595 799 l 1
 595 0 l 1
 469 0 l 1
EndSplineSet
EndChar

StartChar: parenleft
Encoding: 8 40 260
Width: 602
VWidth: 0
Flags: HW
PickledData: "(dp1
S'com.typemytype.robofont.layerData'
p2
(dp3
S'b'
(dp4
S'name'
p5
S'parenleft'
p6
sS'lib'
p7
(dp8
sS'unicodes'
p9
(tsS'width'
p10
I602
sS'contours'
p11
((dp12
S'points'
p13
((dp14
S'segmentType'
p15
S'curve'
p16
sS'x'
I523
sS'smooth'
p17
I00
sS'y'
I1587
s(dp18
g15
S'line'
p19
sS'x'
I560
sg17
I00
sS'y'
I1482
s(dp20
S'y'
I1406
sS'x'
I290
sg17
I00
s(dp21
S'y'
I1117
sS'x'
I185
sg17
I00
s(dp22
g15
S'curve'
p23
sS'x'
I185
sg17
I01
sS'y'
I703
s(dp24
S'y'
I288
sS'x'
I185
sg17
I00
s(dp25
S'y'
I-1
sS'x'
I291
sg17
I00
s(dp26
g15
S'curve'
p27
sS'x'
I560
sg17
I00
sS'y'
I-73
s(dp28
g15
S'line'
p29
sS'x'
I523
sg17
I00
sS'y'
I-180
s(dp30
S'y'
I-110
sS'x'
I231
sg17
I00
s(dp31
S'y'
I164
sS'x'
I34
sg17
I00
s(dp32
g15
S'curve'
p33
sS'x'
I34
sg17
I01
sS'y'
I703
s(dp34
S'y'
I1242
sS'x'
I34
sg17
I00
s(dp35
S'y'
I1518
sS'x'
I232
sg17
I00
stp36
stp37
sS'components'
p38
(tsS'anchors'
p39
(tsss."
LayerCount: 2
Fore
SplineSet
34 703 m 0
 34 1242 232 1518 523 1587 c 1
 552 1502 l 1
 282 1426 184 1117 184 703 c 0
 184 289 282 -20 552 -96 c 1
 523 -181 l 1
 232 -112 34 164 34 703 c 0
EndSplineSet
EndChar

StartChar: parenright
Encoding: 9 41 261
Width: 602
VWidth: 0
Flags: HW
PickledData: "(dp1
S'com.typemytype.robofont.layerData'
p2
(dp3
S'b'
(dp4
S'name'
p5
S'parenright'
p6
sS'lib'
p7
(dp8
sS'unicodes'
p9
(tsS'width'
p10
I602
sS'contours'
p11
((dp12
S'points'
p13
((dp14
S'segmentType'
p15
S'curve'
p16
sS'x'
I523
sS'smooth'
p17
I00
sS'y'
I1587
s(dp18
g15
S'line'
p19
sS'x'
I560
sg17
I00
sS'y'
I1482
s(dp20
S'y'
I1406
sS'x'
I290
sg17
I00
s(dp21
S'y'
I1117
sS'x'
I185
sg17
I00
s(dp22
g15
S'curve'
p23
sS'x'
I185
sg17
I01
sS'y'
I703
s(dp24
S'y'
I288
sS'x'
I185
sg17
I00
s(dp25
S'y'
I-1
sS'x'
I291
sg17
I00
s(dp26
g15
S'curve'
p27
sS'x'
I560
sg17
I00
sS'y'
I-73
s(dp28
g15
S'line'
p29
sS'x'
I523
sg17
I00
sS'y'
I-180
s(dp30
S'y'
I-110
sS'x'
I231
sg17
I00
s(dp31
S'y'
I164
sS'x'
I34
sg17
I00
s(dp32
g15
S'curve'
p33
sS'x'
I34
sg17
I01
sS'y'
I703
s(dp34
S'y'
I1242
sS'x'
I34
sg17
I00
s(dp35
S'y'
I1518
sS'x'
I232
sg17
I00
stp36
stp37
sS'components'
p38
(tsS'anchors'
p39
(tsss."
LayerCount: 2
Fore
SplineSet
552 703 m 0
 552 164 354 -112 63 -181 c 1
 34 -96 l 1
 304 -20 402 289 402 703 c 0
 402 1117 304 1426 34 1502 c 1
 63 1587 l 1
 354 1518 552 1242 552 703 c 0
EndSplineSet
EndChar

StartChar: percent
Encoding: 5 37 262
Width: 1677
VWidth: 0
Flags: HW
PickledData: "(dp1
S'com.typemytype.robofont.layerData'
p2
(dp3
S'b'
(dp4
S'name'
p5
S'percent'
p6
sS'lib'
p7
(dp8
sS'unicodes'
p9
(tsS'width'
p10
I1677
sS'contours'
p11
(tsS'components'
p12
(tsS'anchors'
p13
(tsss."
LayerCount: 2
Fore
SplineSet
1309 93 m 0
 1441 93 1507 212 1507 348 c 0
 1507 487 1441 604 1309 604 c 0
 1177 604 1112 484 1112 348 c 0
 1112 212 1177 93 1309 93 c 0
1309 0 m 0
 1106 0 1002 175 1002 348 c 0
 1002 521 1106 696 1309 696 c 0
 1512 696 1616 521 1616 348 c 0
 1616 175 1512 0 1309 0 c 0
357 863 m 0
 489 863 555 982 555 1118 c 0
 555 1257 489 1374 357 1374 c 0
 225 1374 160 1254 160 1118 c 0
 160 982 225 863 357 863 c 0
357 770 m 0
 154 770 50 945 50 1118 c 0
 50 1291 154 1466 357 1466 c 0
 560 1466 664 1291 664 1118 c 0
 664 945 560 770 357 770 c 0
268 -14 m 1
 190 52 l 1
 1426 1481 l 1
 1503 1415 l 1
 268 -14 l 1
EndSplineSet
EndChar

StartChar: period
Encoding: 14 46 263
Width: 434
VWidth: 0
Flags: HW
LayerCount: 2
Fore
SplineSet
135 215 m 1
 299 215 l 1
 299 0 l 1
 135 0 l 1
 135 215 l 1
EndSplineSet
EndChar

StartChar: periodcentered
Encoding: 119 183 264
Width: 434
VWidth: 0
Flags: HW
LayerCount: 2
Fore
SplineSet
135 758 m 1
 299 758 l 1
 299 543 l 1
 135 543 l 1
 135 758 l 1
EndSplineSet
EndChar

StartChar: plus
Encoding: 11 43 265
Width: 860
VWidth: 0
Flags: HW
LayerCount: 2
Fore
SplineSet
72 673 m 1
 72 773 l 1
 376 773 l 1
 376 1100 l 1
 478 1100 l 1
 478 773 l 1
 778 773 l 1
 778 673 l 1
 478 673 l 1
 478 350 l 1
 376 350 l 1
 376 673 l 1
 72 673 l 1
EndSplineSet
EndChar

StartChar: plusminus
Encoding: 113 177 266
Width: 860
VWidth: 0
Flags: HW
LayerCount: 2
Fore
SplineSet
129 247 m 1
 129 333 l 1
 730 333 l 1
 730 247 l 1
 129 247 l 1
130 673 m 1
 130 773 l 1
 379 773 l 1
 379 1023 l 1
 481 1023 l 1
 481 773 l 1
 730 773 l 1
 730 673 l 1
 481 673 l 1
 481 423 l 1
 379 423 l 1
 379 673 l 1
 130 673 l 1
EndSplineSet
EndChar

StartChar: q
Encoding: 81 113 267
Width: 1082
VWidth: 0
Flags: HW
PickledData: "(dp1
S'com.typemytype.robofont.layerData'
p2
(dp3
S'b'
(dp4
S'name'
p5
S'p'
sS'lib'
p6
(dp7
sS'unicodes'
p8
(tsS'width'
p9
I1082
sS'contours'
p10
(tsS'components'
p11
(tsS'anchors'
p12
(tsss."
LayerCount: 2
Fore
SplineSet
507 77 m 0
 721 77 809 197 814 490 c 1
 814 542 l 1
 808 818 691 943 510 943 c 0
 333 943 236 791 236 514 c 0
 236 229 332 77 507 77 c 0
813 -350 m 1
 813 141 l 1
 755 40 656 -24 502 -24 c 0
 239 -24 92 190 92 502 c 0
 92 856 254 1044 502 1044 c 0
 647 1044 755 973 818 850 c 1
 833 1023 l 1
 955 1023 l 1
 955 -350 l 1
 813 -350 l 1
EndSplineSet
EndChar

StartChar: question
Encoding: 31 63 268
Width: 1010
VWidth: 0
Flags: HW
PickledData: "(dp1
S'com.typemytype.robofont.layerData'
p2
(dp3
s."
LayerCount: 2
Fore
SplineSet
795 1089 m 0
 795 1227 723 1374 488 1374 c 0
 269 1374 164 1223 134 1177 c 1
 35 1250 l 1
 154 1439 335 1491 497 1491 c 0
 816 1491 941 1286 941 1094 c 0
 941 805 749 754 491 357 c 1
 363 358 l 1
 620 791 795 828 795 1089 c 0
350 0 m 1
 350 215 l 1
 514 215 l 1
 514 0 l 1
 350 0 l 1
EndSplineSet
EndChar

StartChar: quotedbl
Encoding: 2 34 270
Width: 510
VWidth: 0
Flags: HW
PickledData: "(dp1
S'com.typemytype.robofont.layerData'
p2
(dp3
s."
LayerCount: 2
Fore
SplineSet
406 1000 m 1
 357 1000 l 1
 315 1464 l 1
 447 1464 l 1
 406 1000 l 1
149 1000 m 1
 100 1000 l 1
 58 1464 l 1
 190 1464 l 1
 149 1000 l 1
EndSplineSet
EndChar

StartChar: quotedblbase
Encoding: 502 8222 271
Width: 744
VWidth: 0
Flags: HW
LayerCount: 2
Fore
SplineSet
434 -81 m 2
 434 93 l 1
 628 93 l 1
 624 -87 627 -269 467 -382 c 1
 418 -319 l 1
 443 -296 494 -219 497 -99 c 1
 497 -99 434 -82 434 -81 c 2
126 -81 m 1
 126 93 l 1
 320 93 l 1
 316 -87 319 -269 159 -382 c 1
 110 -319 l 1
 135 -296 186 -219 189 -99 c 1
 189 -99 125 -82 126 -81 c 1
EndSplineSet
EndChar

StartChar: quotedblleft
Encoding: 500 8220 272
Width: 630
VWidth: 0
Flags: HW
LayerCount: 2
Fore
SplineSet
459 1473 m 1
 508 1410 l 1
 483 1387 430 1319 427 1196 c 1
 530 1183 l 1
 530 995 l 1
 330 995 l 1
 330 1084 l 1
 335 1242 325 1378 459 1473 c 1
165 1473 m 1
 214 1410 l 1
 189 1387 136 1319 133 1197 c 1
 230 1183 l 1
 230 995 l 1
 30 995 l 1
 30 1084 l 2
 30 1240 31 1379 165 1473 c 1
EndSplineSet
EndChar

StartChar: quotedblright
Encoding: 501 8221 273
Width: 631
VWidth: 0
Flags: HW
LayerCount: 2
Fore
SplineSet
401 1292 m 1
 401 1464 l 1
 601 1464 l 1
 596 1285 612 1103 453 991 c 1
 402 1054 l 1
 427 1075 479 1152 482 1273 c 1
 401 1292 l 1
100 1292 m 2
 100 1464 l 1
 301 1464 l 1
 297 1284 320 1104 160 991 c 1
 110 1054 l 1
 136 1077 187 1154 190 1274 c 1
 190 1273 100 1291 100 1292 c 2
EndSplineSet
EndChar

StartChar: quoteleft
Encoding: 497 8216 274
Width: 330
VWidth: 0
Flags: HW
LayerCount: 2
Fore
SplineSet
145 1469 m 1
 145 1468 213 1431 214 1431 c 1
 157 1335 136 1298 136 1200 c 1
 230 1187 l 1
 230 1144 230 1100 230 1057 c 0
 230 1035 230 1014 230 992 c 1
 30 992 l 1
 30 1089 l 2
 30 1094 30 1098 30 1103 c 0
 30 1243 32 1374 145 1469 c 1
EndSplineSet
EndChar

StartChar: quoteright
Encoding: 498 8217 275
Width: 330
VWidth: 0
Flags: HW
LayerCount: 2
Fore
SplineSet
100 1292 m 2
 100 1464 l 1
 300 1464 l 1
 296 1284 320 1104 160 991 c 1
 111 1054 l 1
 136 1077 187 1154 190 1274 c 1
 190 1273 100 1291 100 1292 c 2
EndSplineSet
EndChar

StartChar: quotesinglbase
Encoding: 499 8218 276
Width: 436
VWidth: 0
Flags: HW
LayerCount: 2
Fore
SplineSet
128 -81 m 2
 128 93 l 1
 320 93 l 1
 316 -87 319 -269 159 -382 c 1
 110 -319 l 1
 135 -296 186 -219 189 -99 c 1
 189 -99 128 -82 128 -81 c 2
EndSplineSet
EndChar

StartChar: quotesingle
Encoding: 7 39 277
Width: 280
VWidth: 0
Flags: HW
PickledData: "(dp1
S'com.typemytype.robofont.layerData'
p2
(dp3
s."
LayerCount: 2
Fore
SplineSet
172 1000 m 1
 123 1000 l 1
 81 1464 l 1
 213 1464 l 1
 172 1000 l 1
EndSplineSet
EndChar

StartChar: r
Encoding: 82 114 278
Width: 626
VWidth: 0
Flags: HW
PickledData: "(dp1
S'com.typemytype.robofont.layerData'
p2
(dp3
S'b'
(dp4
S'name'
p5
S'r'
sS'lib'
p6
(dp7
sS'unicodes'
p8
(tsS'width'
p9
I626
sS'contours'
p10
((dp11
S'points'
p12
((dp13
S'segmentType'
p14
S'line'
p15
sS'x'
I265
sS'smooth'
p16
I00
sS'y'
I1023
s(dp17
g14
S'line'
p18
sS'x'
I265
sg16
I00
sS'y'
I831
s(dp19
S'y'
I977
sS'x'
I324
sg16
I00
s(dp20
S'y'
I1023
sS'x'
I459
sg16
I00
s(dp21
g14
S'curve'
p22
sS'x'
I571
sg16
I00
sS'y'
I1023
s(dp23
g14
S'line'
p24
sS'x'
I571
sg16
I00
sS'y'
I895
s(dp25
S'y'
I895
sS'x'
I342
sg16
I00
s(dp26
S'y'
I717
sS'x'
I269
sg16
I00
s(dp27
g14
S'curve'
p28
sS'x'
I269
sg16
I01
sS'y'
I532
s(dp29
g14
S'line'
p30
sS'x'
I269
sg16
I00
sS'y'
I0
s(dp31
g14
S'line'
p32
sS'x'
I127
sg16
I00
sS'y'
I0
s(dp33
g14
S'line'
p34
sS'x'
I127
sg16
I00
sS'y'
I1023
stp35
stp36
sS'components'
p37
(tsS'anchors'
p38
(tsss."
LayerCount: 2
Fore
SplineSet
127 0 m 1
 127 1023 l 1
 269 1023 l 1
 269 832 l 1
 335 967 442 1029 578 1029 c 1
 578 903 l 1
 359 903 276 733 269 556 c 1
 270 0 l 1
 127 0 l 1
EndSplineSet
EndChar

StartChar: registered
Encoding: 110 174 282
Width: 1702
VWidth: 0
Flags: HW
PickledData: "(dp1
S'com.typemytype.robofont.layerData'
p2
(dp3
s."
LayerCount: 2
Fore
SplineSet
850 1497 m 0
 1251 1497 1579 1175 1579 774 c 0
 1579 375 1251 53 850 53 c 0
 451 53 123 335 123 774 c 0
 123 1205 451 1497 850 1497 c 0
179 773 m 0
 179 363 479 98 849 98 c 0
 1220 98 1523 403 1523 773 c 0
 1523 1144 1221 1452 850 1452 c 0
 480 1452 179 1174 179 773 c 0
664 1184 m 1
 664 846 l 1
 852 846 l 2
 984 846 1092 864 1092 1015 c 0
 1092 1169 960 1184 848 1184 c 2
 664 1184 l 1
857 1248 m 2
 1071 1248 1179 1173 1179 1017 c 0
 1179 900 1120 825 1000 793 c 1
 1186 379 l 1
 1095 379 l 1
 916 779 l 1
 661 779 l 1
 661 381 l 1
 578 381 l 1
 578 1248 l 1
 857 1248 l 2
EndSplineSet
EndChar

StartChar: ring
Encoding: 363 730 283
Width: 728
VWidth: 0
Flags: HW
PickledData: "(dp1
S'com.typemytype.robofont.layerData'
p2
(dp3
s."
LayerCount: 2
Fore
SplineSet
364 1390 m 0
 270 1390 222 1313 222 1239 c 0
 222 1165 270 1088 364 1088 c 0
 458 1088 506 1165 506 1239 c 0
 506 1313 458 1390 364 1390 c 0
364 1004 m 0
 216 1004 124 1115 124 1239 c 0
 124 1363 216 1474 364 1474 c 0
 512 1474 604 1363 604 1239 c 0
 604 1115 512 1004 364 1004 c 0
EndSplineSet
EndChar

StartChar: s
Encoding: 83 115 284
Width: 913
VWidth: 0
Flags: HW
PickledData: "(dp1
S'com.typemytype.robofont.layerData'
p2
(dp3
S'b'
(dp4
S'name'
p5
S's'
sS'lib'
p6
(dp7
sS'unicodes'
p8
(tsS'width'
p9
I913
sS'contours'
p10
((dp11
S'points'
p12
((dp13
S'segmentType'
p14
S'curve'
p15
sS'x'
I838
sS'smooth'
p16
I00
sS'y'
I846
s(dp17
S'y'
I846
sS'x'
I838
sg16
I00
s(dp18
S'y'
I791
sS'x'
I741
sg16
I00
s(dp19
g14
S'curve'
p20
sS'x'
I741
sg16
I00
sS'y'
I790
s(dp21
S'y'
I897
sS'x'
I695
sg16
I00
s(dp22
S'y'
I940
sS'x'
I616
sg16
I00
s(dp23
g14
S'curve'
p24
sS'x'
I483
sg16
I01
sS'y'
I940
s(dp25
S'y'
I940
sS'x'
I320
sg16
I00
s(dp26
S'y'
I879
sS'x'
I233
sg16
I00
s(dp27
g14
S'curve'
p28
sS'x'
I233
sg16
I01
sS'y'
I759
s(dp29
S'y'
I640
sS'x'
I233
sg16
I00
s(dp30
S'y'
I608
sS'x'
I346
sg16
I00
s(dp31
g14
S'curve'
p32
sS'x'
I498
sg16
I01
sS'y'
I580
s(dp33
S'y'
I540
sS'x'
I716
sg16
I00
s(dp34
S'y'
I463
sS'x'
I847
sg16
I00
s(dp35
g14
S'curve'
p36
sS'x'
I847
sg16
I01
sS'y'
I286
s(dp37
S'y'
I86
sS'x'
I847
sg16
I00
s(dp38
S'y'
I-25
sS'x'
I717
sg16
I00
s(dp39
g14
S'curve'
p40
sS'x'
I442
sg16
I01
sS'y'
I-25
s(dp41
S'y'
I-25
sS'x'
I288
sg16
I00
s(dp42
S'y'
I34
sS'x'
I116
sg16
I00
s(dp43
g14
S'curve'
p44
sS'x'
I64
sg16
I00
sS'y'
I225
s(dp45
g14
S'line'
p46
sS'x'
I172
sg16
I00
sS'y'
I269
s(dp47
S'y'
I140
sS'x'
I219
sg16
I00
s(dp48
S'y'
I80
sS'x'
I292
sg16
I00
s(dp49
g14
S'curve'
p50
sS'x'
I455
sg16
I01
sS'y'
I80
s(dp51
S'y'
I80
sS'x'
I595
sg16
I00
s(dp52
S'y'
I118
sS'x'
I718
sg16
I00
s(dp53
g14
S'curve'
p54
sS'x'
I718
sg16
I01
sS'y'
I259
s(dp55
S'y'
I390
sS'x'
I718
sg16
I00
s(dp56
S'y'
I422
sS'x'
I655
sg16
I00
s(dp57
g14
S'curve'
p58
sS'x'
I405
sg16
I01
sS'y'
I474
s(dp59
S'y'
I510
sS'x'
I236
sg16
I00
s(dp60
S'y'
I560
sS'x'
I99
sg16
I00
s(dp61
g14
S'curve'
p62
sS'x'
I99
sg16
I01
sS'y'
I761
s(dp63
S'y'
I946
sS'x'
I99
sg16
I00
s(dp64
S'y'
I1044
sS'x'
I258
sg16
I00
s(dp65
g14
S'curve'
p66
sS'x'
I477
sg16
I01
sS'y'
I1044
s(dp67
S'y'
I1044
sS'x'
I654
sg16
I00
s(dp68
S'y'
I993
sS'x'
I765
sg16
I00
stp69
stp70
sS'components'
p71
(tsS'anchors'
p72
(tsss."
LayerCount: 2
Fore
SplineSet
829 841 m 1
 829 841 738 791 738 790 c 1
 692 897 618 943 483 943 c 0
 307 943 239 881 239 761 c 0
 239 639 287 619 497 577 c 0
 741 528 841 472 841 283 c 0
 841 83 720 -24 445 -24 c 0
 291 -24 124 36 72 227 c 1
 177 269 l 1
 224 138 295 77 458 77 c 0
 603 77 717 122 717 263 c 0
 717 416 672 418 405 477 c 0
 210 520 105 560 105 761 c 0
 105 944 256 1044 475 1044 c 0
 652 1044 759 992 829 841 c 1
EndSplineSet
EndChar

StartChar: section
Encoding: 103 167 290
Width: 1005
VWidth: 0
Flags: HW
PickledData: "(dp1
S'com.typemytype.robofont.layerData'
p2
(dp3
S'b'
(dp4
S'name'
p5
S'section'
p6
sS'lib'
p7
(dp8
sS'unicodes'
p9
(tsS'width'
p10
I1005
sS'contours'
p11
((dp12
S'points'
p13
((dp14
S'segmentType'
p15
S'curve'
p16
sS'x'
I531
sS'smooth'
p17
I01
sS'y'
I-25
s(dp18
S'y'
I-25
sS'x'
I751
sg17
I00
s(dp19
S'y'
I68
sS'x'
I886
sg17
I00
s(dp20
g15
S'curve'
p21
sS'x'
I900
sg17
I01
sS'y'
I253
s(dp22
S'y'
I344
sS'x'
I907
sg17
I00
s(dp23
S'y'
I429
sS'x'
I858
sg17
I00
s(dp24
g15
S'curve'
p25
sS'x'
I783
sg17
I00
sS'y'
I479
s(dp26
S'y'
I572
sS'x'
I848
sg17
I00
s(dp27
S'y'
I647
sS'x'
I873
sg17
I00
s(dp28
g15
S'curve'
p29
sS'x'
I873
sg17
I01
sS'y'
I714
s(dp30
S'y'
I1022
sS'x'
I873
sg17
I00
s(dp31
S'y'
I985
sS'x'
I310
sg17
I00
s(dp32
g15
S'curve'
p33
sS'x'
I303
sg17
I01
sS'y'
I1198
s(dp34
S'y'
I1314
sS'x'
I299
sg17
I00
s(dp35
S'y'
I1378
sS'x'
I374
sg17
I00
s(dp36
g15
S'curve'
p37
sS'x'
I527
sg17
I01
sS'y'
I1378
s(dp38
S'y'
I1378
sS'x'
I659
sg17
I00
s(dp39
S'y'
I1340
sS'x'
I731
sg17
I00
s(dp40
g15
S'curve'
p41
sS'x'
I793
sg17
I00
sS'y'
I1229
s(dp42
S'y'
I1230
sS'x'
I793
sg17
I00
s(dp43
S'y'
I1286
sS'x'
I884
sg17
I00
s(dp44
g15
S'curve'
p45
sS'x'
I884
sg17
I00
sS'y'
I1286
s(dp46
S'y'
I1438
sS'x'
I810
sg17
I00
s(dp47
S'y'
I1491
sS'x'
I704
sg17
I00
s(dp48
g15
S'curve'
p49
sS'x'
I527
sg17
I01
sS'y'
I1491
s(dp50
S'y'
I1491
sS'x'
I308
sg17
I00
s(dp51
S'y'
I1391
sS'x'
I164
sg17
I00
s(dp52
g15
S'curve'
p53
sS'x'
I164
sg17
I01
sS'y'
I1210
s(dp54
S'y'
I1092
sS'x'
I164
sg17
I00
s(dp55
S'y'
I1027
sS'x'
I239
sg17
I00
s(dp56
g15
S'curve'
p57
sS'x'
I307
sg17
I00
sS'y'
I986
s(dp58
S'y'
I898
sS'x'
I212
sg17
I00
s(dp59
S'y'
I823
sS'x'
I176
sg17
I00
s(dp60
g15
S'curve'
p61
sS'x'
I174
sg17
I01
sS'y'
I755
s(dp62
S'y'
I437
sS'x'
I166
sg17
I00
s(dp63
S'y'
I499
sS'x'
I812
sg17
I00
s(dp64
g15
S'curve'
p65
sS'x'
I774
sg17
I01
sS'y'
I251
s(dp66
S'y'
I144
sS'x'
I758
sg17
I00
s(dp67
S'y'
I93
sS'x'
I681
sg17
I00
s(dp68
g15
S'curve'
p69
sS'x'
I536
sg17
I01
sS'y'
I93
s(dp70
S'y'
I93
sS'x'
I374
sg17
I00
s(dp71
S'y'
I162
sS'x'
I273
sg17
I00
s(dp72
g15
S'curve'
p73
sS'x'
I229
sg17
I00
sS'y'
I310
s(dp74
g15
S'line'
p75
sS'x'
I127
sg17
I00
sS'y'
I273
s(dp76
S'y'
I49
sS'x'
I165
sg17
I00
s(dp77
S'y'
I-25
sS'x'
I366
sg17
I00
stp78
s(dp79
g13
((dp80
g15
S'curve'
p81
sS'x'
I677
sg17
I00
sS'y'
I532
s(dp82
S'y'
I652
sS'x'
I425
sg17
I00
s(dp83
S'y'
I655
sS'x'
I155
sg17
I00
s(dp84
g15
S'curve'
p85
sS'x'
I391
sg17
I00
sS'y'
I939
s(dp86
S'y'
I825
sS'x'
I687
sg17
I00
s(dp87
S'y'
I808
sS'x'
I838
sg17
I00
stp88
stp89
sS'components'
p90
(tsS'anchors'
p91
(tsss."
LayerCount: 2
Fore
SplineSet
531 -25 m 0
 366 -25 165 49 127 273 c 1
 229 310 l 1
 273 162 374 93 536 93 c 0
 681 93 758 144 774 251 c 0
 812 499 166 437 174 755 c 0
 176 823 212 898 307 986 c 1
 239 1027 164 1092 164 1210 c 0
 164 1391 308 1491 527 1491 c 0
 704 1491 810 1438 884 1286 c 1
 884 1286 793 1230 793 1229 c 1
 731 1340 659 1378 527 1378 c 0
 374 1378 299 1314 303 1198 c 0
 310 985 873 1022 873 714 c 0
 873 647 850 565 775 482 c 1
 850 432 909 350 900 253 c 0
 883 68 751 -25 531 -25 c 0
677 532 m 1
 838 808 687 825 391 939 c 1
 155 655 425 652 677 532 c 1
EndSplineSet
EndChar

StartChar: semicolon
Encoding: 27 59 291
Width: 478
VWidth: 0
Flags: HW
LayerCount: 2
Fore
SplineSet
150 219 m 1
 350 219 l 1
 350 134 l 1
 345 -24 345 -163 213 -254 c 1
 164 -192 l 1
 189 -172 241 -105 244 16 c 1
 150 29 l 1
 150 219 l 1
332 1024 m 1
 332 808 l 1
 159 808 l 1
 159 1024 l 1
 332 1024 l 1
EndSplineSet
EndChar

StartChar: seven
Encoding: 23 55 292
Width: 1246
VWidth: 0
Flags: HW
PickledData: "(dp1
S'com.typemytype.robofont.layerData'
p2
(dp3
s."
LayerCount: 2
Fore
SplineSet
223 1352 m 1
 211 1464 l 1
 1029 1464 l 1
 1029 1351 l 1
 432 -1 l 1
 274 1 l 1
 877 1352 l 1
 223 1352 l 1
EndSplineSet
EndChar

StartChar: six
Encoding: 22 54 293
Width: 1202
VWidth: 0
Flags: HW
PickledData: "(dp1
S'com.typemytype.robofont.layerData'
p2
(dp3
s."
LayerCount: 2
Fore
SplineSet
283 820 m 1
 380 897 509 941 622 946 c 0
 892 957 1083 789 1083 484 c 0
 1083 234 925 -25 623 -25 c 0
 280 -25 124 252 124 700 c 0
 124 1201 339 1491 641 1491 c 0
 739 1491 867 1460 963 1396 c 1
 922 1285 l 1
 835 1346 736 1376 644 1374 c 0
 435 1369 296 1177 283 820 c 1
283 701 m 1
 283 659 l 2
 283 369 346 93 623 93 c 0
 811 93 932 237 932 480 c 0
 932 722 834 842 609 834 c 0
 497 830 382 779 283 701 c 1
EndSplineSet
EndChar

StartChar: slash
Encoding: 15 47 294
Width: 592
VWidth: 0
Flags: HW
LayerCount: 2
Fore
SplineSet
152 -35 m 1
 43 -8 l 1
 458 1534 l 1
 575 1507 l 1
 152 -35 l 1
EndSplineSet
EndChar

StartChar: sterling
Encoding: 99 163 296
Width: 1168
VWidth: 0
Flags: HW
PickledData: "(dp1
S'com.typemytype.robofont.layerData'
p2
(dp3
s."
LayerCount: 2
Fore
SplineSet
687 42 m 0
 566 42 419 28 219 -26 c 1
 159 57 l 1
 219 178 266 312 266 509 c 0
 266 558 250 634 242 695 c 1
 66 695 l 1
 66 797 l 1
 233 797 l 1
 229 847 215 942 215 988 c 0
 215 1321 359 1491 645 1491 c 0
 876 1491 971 1365 1003 1152 c 1
 884 1134 l 1
 848 1351 733 1374 651 1374 c 0
 447 1374 355 1258 355 1007 c 0
 355 955 369 854 374 797 c 1
 773 797 l 1
 773 695 l 1
 381 695 l 1
 387 623 398 546 399 492 c 0
 403 311 357 181 310 92 c 1
 493 159 618 168 742 168 c 0
 822 168 939 139 1007 116 c 1
 979 0 l 1
 879 21 817 42 687 42 c 0
EndSplineSet
EndChar

StartChar: t
Encoding: 84 116 297
Width: 656
VWidth: 0
Flags: HW
PickledData: "(dp1
S'com.typemytype.robofont.layerData'
p2
(dp3
s."
LayerCount: 2
Fore
SplineSet
597 120 m 1
 621 29 l 1
 586 7 517 -16 451 -16 c 0
 275 -16 194 79 194 325 c 2
 194 926 l 1
 41 926 l 1
 41 1023 l 1
 194 1023 l 1
 200 1350 l 1
 336 1387 l 1
 336 1023 l 1
 560 1023 l 1
 560 926 l 1
 336 926 l 1
 336 267 l 2
 336 138 381 91 465 90 c 0
 511 89 556 102 597 120 c 1
EndSplineSet
EndChar

StartChar: thorn
Encoding: 190 254 299
Width: 1058
VWidth: 0
Flags: HW
PickledData: "(dp1
S'com.typemytype.robofont.layerData'
p2
(dp3
S'b'
(dp4
S'name'
p5
S'thorn'
p6
sS'lib'
p7
(dp8
sS'unicodes'
p9
(tsS'width'
p10
I1058
sS'contours'
p11
(tsS'components'
p12
(tsS'anchors'
p13
(tsss."
LayerCount: 2
Fore
SplineSet
559 78 m 0
 724 78 821 243 821 521 c 0
 821 810 708 942 557 942 c 0
 396 942 273 803 273 519 c 0
 273 294 351 78 559 78 c 0
131 1464 m 1
 272 1464 l 1
 272 834 l 1
 325 972 431 1044 573 1044 c 0
 848 1044 967 812 967 520 c 0
 967 217 817 -24 576 -24 c 0
 417 -24 327 52 273 174 c 1
 273 -378 l 1
 131 -394 l 1
 131 1464 l 1
EndSplineSet
EndChar

StartChar: three
Encoding: 19 51 300
Width: 1092
VWidth: 0
Flags: HW
PickledData: "(dp1
S'com.typemytype.robofont.layerData'
p2
(dp3
s."
LayerCount: 2
Fore
SplineSet
926 1152 m 0
 926 1012 852 863 667 815 c 1
 906 766 1000 581 997 403 c 0
 993 190 844 -24 545 -25 c 0
 351 -26 150 68 89 316 c 1
 213 358 l 1
 268 184 377 93 533 93 c 0
 745 93 846 239 848 396 c 0
 851 655 695 751 441 751 c 1
 441 864 l 1
 715 864 783 1006 783 1140 c 0
 783 1257 708 1374 542 1374 c 0
 430 1374 320 1333 229 1192 c 1
 123 1256 l 1
 223 1412 365 1491 535 1491 c 0
 781 1491 926 1351 926 1152 c 0
EndSplineSet
EndChar

StartChar: threequarters
Encoding: 126 190 301
Width: 1548
VWidth: 0
Flags: HW
PickledData: "(dp1
S'com.typemytype.robofont.layerData'
p2
(dp3
s."
LayerCount: 2
Fore
SplineSet
570 1308 m 0
 570 1242 536 1171 442 1144 c 1
 586 1108 603 1001 602 949 c 0
 600 843 520 745 360 745 c 1
 266 746 148 791 119 910 c 1
 200 942 l 1
 229 863 292 834 368 834 c 0
 448 834 495 895 495 953 c 0
 495 1040 443 1095 307 1095 c 1
 307 1182 l 1
 429 1184 466 1234 466 1299 c 0
 466 1357 421 1396 347 1396 c 0
 293 1396 232 1368 204 1307 c 1
 131 1358 l 1
 161 1440 264 1481 346 1481 c 0
 488 1481 570 1396 570 1308 c 0
248 -14 m 1
 171 52 l 1
 1407 1481 l 1
 1483 1415 l 1
 248 -14 l 1
1195 152 m 1
 844 152 l 1
 844 220 l 1
 1164 693 l 1
 1310 693 l 1
 1310 234 l 1
 1410 234 l 1
 1410 152 l 1
 1310 152 l 1
 1310 0 l 1
 1195 0 l 1
 1195 152 l 1
958 234 m 1
 1195 234 l 1
 1195 585 l 1
 958 234 l 1
EndSplineSet
EndChar

StartChar: tilde
Encoding: 365 732 302
Width: 798
VWidth: 0
Flags: HW
PickledData: "(dp1
S'com.typemytype.robofont.layerData'
p2
(dp3
s."
LayerCount: 2
Fore
SplineSet
260 1288 m 1
 236 1288 223 1260 223 1200 c 1
 127 1200 l 1
 103 1376 203 1394 253 1391 c 0
 331 1386 485 1306 535 1299 c 0
 572 1294 576 1336 576 1395 c 1
 673 1395 l 1
 686 1219 612 1198 545 1202 c 0
 451 1208 316 1284 260 1288 c 1
EndSplineSet
EndChar

StartChar: trademark
Encoding: 512 8482 303
Width: 1847
VWidth: 0
Flags: HW
PickledData: "(dp1
S'com.typemytype.robofont.layerData'
p2
(dp3
s."
LayerCount: 2
Fore
SplineSet
116 1381 m 1
 116 1464 l 1
 757 1464 l 1
 757 1381 l 1
 496 1381 l 1
 496 615 l 1
 384 615 l 1
 384 1381 l 1
 116 1381 l 1
938 615 m 1
 938 1464 l 1
 1071 1464 l 1
 1330 878 l 1
 1593 1463 l 1
 1718 1463 l 1
 1718 615 l 1
 1616 615 l 1
 1616 1273 l 1
 1371 731 l 1
 1282 731 l 1
 1044 1276 l 1
 1044 615 l 1
 938 615 l 1
EndSplineSet
EndChar

StartChar: two
Encoding: 18 50 304
Width: 1246
VWidth: 0
Flags: HW
PickledData: "(dp1
S'com.typemytype.robofont.layerData'
p2
(dp3
s."
LayerCount: 2
Fore
SplineSet
236 1089 m 1
 107 1141 l 1
 219 1387 388 1491 613 1491 c 0
 860 1491 1071 1362 1071 1060 c 0
 1071 615 473 458 311 112 c 1
 1050 112 l 1
 1050 0 l 1
 151 0 l 1
 167 481 911 627 911 1062 c 0
 911 1265 784 1374 625 1374 c 0
 448 1374 319 1275 236 1089 c 1
EndSplineSet
EndChar

StartChar: u
Encoding: 85 117 305
Width: 1086
VWidth: 0
Flags: HW
PickledData: "(dp1
S'com.typemytype.robofont.layerData'
p2
(dp3
S'b'
(dp4
S'name'
p5
S'u'
sS'lib'
p6
(dp7
sS'unicodes'
p8
(tsS'width'
p9
I1086
sS'contours'
p10
((dp11
S'points'
p12
((dp13
S'segmentType'
p14
S'line'
p15
sS'x'
I263
sS'smooth'
p16
I00
sS'y'
I1024
s(dp17
g14
S'line'
p18
sS'x'
I121
sg16
I00
sS'y'
I1024
s(dp19
g14
S'line'
p20
sS'x'
I121
sg16
I01
sS'y'
I440
s(dp21
S'y'
I234
sS'x'
I121
sg16
I00
s(dp22
S'y'
I-20
sS'x'
I140
sg16
I00
s(dp23
g14
S'curve'
p24
sS'x'
I463
sg16
I01
sS'y'
I-20
s(dp25
S'y'
I-20
sS'x'
I715
sg16
I00
s(dp26
S'y'
I136
sS'x'
I860
sg16
I00
s(dp27
g14
S'curve'
p28
sS'x'
I882
sg16
I00
sS'y'
I414
s(dp29
S'y'
I414
sS'x'
I882
sg16
I00
s(dp30
S'y'
I521
sS'x'
I817
sg16
I00
s(dp31
g14
S'curve'
p32
sS'x'
I817
sg16
I01
sS'y'
I521
s(dp33
S'y'
I273
sS'x'
I817
sg16
I00
s(dp34
S'y'
I82
sS'x'
I737
sg16
I00
s(dp35
g14
S'curve'
p36
sS'x'
I483
sg16
I01
sS'y'
I82
s(dp37
S'y'
I82
sS'x'
I306
sg16
I00
s(dp38
S'y'
I212
sS'x'
I263
sg16
I00
s(dp39
g14
S'curve'
p40
sS'x'
I263
sg16
I01
sS'y'
I421
stp41
stp42
sS'components'
p43
((dp44
S'transformation'
p45
(F-0.99999999999999956
F-1.6653345369377343e-16
F1.6653345369377343e-16
F-0.99999999999999956
I1086
I1024
tp46
sS'baseGlyph'
p47
S'lc_main_stem'
p48
stp49
sS'anchors'
p50
(tsss."
LayerCount: 2
Fore
SplineSet
263 1023 m 1
 263 427 l 2
 263 208 305 84 487 77 c 0
 734 68 817 269 817 517 c 2
 817 1023 l 1
 959 1023 l 1
 960 0 l 1
 817 0 l 1
 817 169 l 1
 751 40 635 -27 463 -24 c 0
 134 -18 121 256 121 462 c 2
 121 1023 l 1
 263 1023 l 1
EndSplineSet
EndChar

StartChar: uc_main_stem
Encoding: 532 -1 308
Width: 1457
VWidth: 0
Flags: HW
PickledData: "(dp1
S'com.typemytype.robofont.layerData'
p2
(dp3
S'b'
(dp4
S'name'
p5
S'uc_main_stem'
p6
sS'lib'
p7
(dp8
sS'unicodes'
p9
(tsS'width'
p10
I1457
sS'contours'
p11
(tsS'components'
p12
(tsS'anchors'
p13
(tsssS'com.typemytype.robofont.mark'
p14
(F1
F0
F0
F1
tp15
s."
LayerCount: 2
Fore
SplineSet
294 0 m 1
 148 0 l 1
 148 1464 l 1
 294 1464 l 1
 294 0 l 1
EndSplineSet
EndChar

StartChar: underscore
Encoding: 63 95 314
Width: 870
VWidth: 0
Flags: HW
LayerCount: 2
Fore
SplineSet
99 -1 m 1
 750 -1 l 1
 750 -99 l 1
 99 -99 l 1
 99 -1 l 1
EndSplineSet
EndChar

StartChar: uni00B2
Encoding: 114 178 315
Width: 1230
VWidth: 0
Flags: HW
LayerCount: 2
Fore
SplineSet
860 859 m 1
 860 779 l 1
 385 779 l 1
 392 1004 750 1115 750 1266 c 2
 750 1269 l 2
 750 1355 686 1396 618 1396 c 0
 547 1396 472 1353 454 1271 c 1
 454 1272 379 1310 364 1316 c 1
 407 1437 513 1491 619 1491 c 0
 736 1491 858 1419 858 1276 c 0
 858 1058 621 1014 530 859 c 1
 860 859 l 1
EndSplineSet
EndChar

StartChar: uni00B3
Encoding: 115 179 316
Width: 772
VWidth: 0
Flags: HW
LayerCount: 2
Fore
SplineSet
363 1481 m 0
 505 1481 581 1396 581 1308 c 0
 581 1242 540 1173 459 1144 c 1
 572 1111 610 1043 615 960 c 0
 615 956 615 953 615 949 c 0
 615 844 529 745 369 745 c 1
 275 746 159 791 130 910 c 1
 208 950 l 1
 234 866 300 834 376 834 c 0
 456 834 506 895 506 953 c 0
 506 1040 454 1095 318 1095 c 1
 318 1182 l 1
 440 1184 471 1233 471 1298 c 0
 471 1356 438 1396 364 1396 c 0
 310 1396 251 1368 223 1307 c 1
 150 1358 l 1
 180 1440 281 1481 363 1481 c 0
EndSplineSet
EndChar

StartChar: mu
Encoding: 117 181 317
Width: 1122
VWidth: 0
Flags: HW
LayerCount: 2
Fore
SplineSet
261 -350 m 1
 119 -350 l 1
 119 481 l 1
 121 481 l 1
 121 1023 l 1
 268 1023 l 1
 268 406 l 2
 268 209 321 87 492 87 c 0
 755 87 828 331 828 436 c 2
 828 1023 l 1
 970 1023 l 1
 970 0 l 1
 833 0 l 1
 829 159 l 1
 741 21 604 -24 467 -24 c 0
 381 -24 301 12 261 57 c 1
 261 -350 l 1
EndSplineSet
EndChar

StartChar: uni00B9
Encoding: 121 185 318
Width: 546
VWidth: 0
Flags: HW
LayerCount: 2
Fore
SplineSet
262 769 m 1
 262 1365 l 1
 145 1307 l 1
 124 1397 l 1
 272 1464 l 1
 375 1464 l 1
 375 769 l 1
 262 769 l 1
EndSplineSet
EndChar

StartChar: uni01C4
Encoding: 316 452 319
Width: 2576
VWidth: 0
Flags: HW
LayerCount: 2
Fore
SplineSet
2145 1613 m 1
 1950 1613 l 1
 1805 1933 l 1
 1897 1933 l 1
 2047 1705 l 1
 2198 1933 l 1
 2290 1933 l 1
 2145 1613 l 1
1530 1356 m 1
 1530 1464 l 1
 2536 1464 l 1
 2536 1383 l 1
 1628 107 l 1
 2541 107 l 1
 2534 0 l 1
 1447 0 l 1
 1447 98 l 1
 2345 1356 l 1
 1530 1356 l 1
653 1350 m 2
 294 1350 l 1
 294 114 l 1
 597 114 l 2
 1008 114 1144 289 1144 737 c 0
 1144 1130 1037 1350 653 1350 c 2
148 1464 m 1
 652 1464 l 2
 1064 1464 1287 1280 1287 738 c 0
 1287 203 1083 0 645 0 c 2
 148 0 l 1
 148 1464 l 1
EndSplineSet
EndChar

StartChar: uni01C5
Encoding: 317 453 320
Width: 2278
VWidth: 0
Flags: HW
LayerCount: 2
Fore
SplineSet
1981 1172 m 1
 1786 1172 l 1
 1641 1492 l 1
 1733 1492 l 1
 1883 1264 l 1
 2034 1492 l 1
 2126 1492 l 1
 1981 1172 l 1
1486 919 m 1
 1486 1023 l 1
 2236 1023 l 1
 2236 928 l 1
 1627 103 l 1
 2234 103 l 1
 2234 0 l 1
 1466 0 l 1
 1466 94 l 1
 2067 919 l 1
 1486 919 l 1
653 1350 m 2
 294 1350 l 1
 294 114 l 1
 597 114 l 2
 1008 114 1144 289 1144 737 c 0
 1144 1130 1037 1350 653 1350 c 2
148 1464 m 1
 652 1464 l 2
 1064 1464 1287 1280 1287 738 c 0
 1287 203 1083 0 645 0 c 2
 148 0 l 1
 148 1464 l 1
EndSplineSet
EndChar

StartChar: uni01C7
Encoding: 319 455 321
Width: 1974
VWidth: 0
Flags: HW
LayerCount: 2
Fore
SplineSet
1041 334 m 1
 1171 369 l 1
 1209 198 1275 93 1437 93 c 1
 1677 95 1693 306 1693 541 c 2
 1693 1464 l 1
 1838 1464 l 1
 1838 544 l 2
 1838 166 1738 -25 1425 -25 c 0
 1199 -25 1084 117 1041 334 c 1
1041 0 m 1
 148 0 l 1
 148 1464 l 1
 294 1464 l 1
 294 113 l 1
 1041 113 l 1
 1041 0 l 1
EndSplineSet
EndChar

StartChar: uni01C8
Encoding: 320 456 322
Width: 1502
VWidth: 0
Flags: HW
LayerCount: 2
Fore
SplineSet
1234 -91 m 2
 1234 1023 l 1
 1376 1023 l 1
 1376 -12 l 2
 1376 -217 1349 -325 1157 -325 c 0
 1106 -325 1043 -312 995 -284 c 1
 1019 -177 l 1
 1057 -191 1105 -208 1138 -208 c 0
 1197 -208 1234 -182 1234 -91 c 2
1236 1242 m 1
 1236 1421 l 1
 1377 1421 l 1
 1377 1242 l 1
 1236 1242 l 1
1041 0 m 1
 148 0 l 1
 148 1464 l 1
 294 1464 l 1
 294 113 l 1
 1041 113 l 1
 1041 0 l 1
EndSplineSet
EndChar

StartChar: uni01CA
Encoding: 322 458 323
Width: 2445
VWidth: 0
Flags: HW
LayerCount: 2
Fore
SplineSet
1512 334 m 1
 1642 369 l 1
 1680 198 1746 93 1908 93 c 1
 2148 95 2164 306 2164 541 c 2
 2164 1464 l 1
 2309 1464 l 1
 2309 544 l 2
 2309 166 2209 -25 1896 -25 c 0
 1670 -25 1555 117 1512 334 c 1
148 0 m 1
 148 1464 l 1
 311 1464 l 1
 1214 221 l 1
 1214 1464 l 1
 1343 1464 l 1
 1343 0 l 1
 1211 0 l 1
 281 1290 l 1
 281 0 l 1
 148 0 l 1
EndSplineSet
EndChar

StartChar: uni01CB
Encoding: 323 459 324
Width: 1973
VWidth: 0
Flags: HW
LayerCount: 2
Fore
SplineSet
1705 -91 m 2
 1705 1023 l 1
 1847 1023 l 1
 1847 -12 l 2
 1847 -217 1820 -325 1628 -325 c 0
 1577 -325 1514 -312 1466 -284 c 1
 1490 -177 l 1
 1528 -191 1576 -208 1609 -208 c 0
 1668 -208 1705 -182 1705 -91 c 2
1707 1242 m 1
 1707 1421 l 1
 1848 1421 l 1
 1848 1242 l 1
 1707 1242 l 1
148 0 m 1
 148 1464 l 1
 311 1464 l 1
 1214 221 l 1
 1214 1464 l 1
 1343 1464 l 1
 1343 0 l 1
 1211 0 l 1
 281 1290 l 1
 281 0 l 1
 148 0 l 1
EndSplineSet
EndChar

StartChar: uni01F1
Encoding: 325 497 325
Width: 2576
VWidth: 0
Flags: HW
LayerCount: 2
Fore
SplineSet
1530 1356 m 1
 1530 1464 l 1
 2536 1464 l 1
 2536 1383 l 1
 1628 107 l 1
 2541 107 l 1
 2534 0 l 1
 1447 0 l 1
 1447 98 l 1
 2345 1356 l 1
 1530 1356 l 1
653 1350 m 2
 294 1350 l 1
 294 114 l 1
 597 114 l 2
 1008 114 1144 289 1144 737 c 0
 1144 1130 1037 1350 653 1350 c 2
148 1464 m 1
 652 1464 l 2
 1064 1464 1287 1280 1287 738 c 0
 1287 203 1083 0 645 0 c 2
 148 0 l 1
 148 1464 l 1
EndSplineSet
EndChar

StartChar: uni0237
Encoding: 358 567 346
Width: 482
VWidth: 0
Flags: HW
PickledData: "(dp1
S'com.typemytype.robofont.layerData'
p2
(dp3
S'b'
(dp4
S'name'
p5
S'j'
sS'lib'
p6
(dp7
sS'unicodes'
p8
(tsS'width'
p9
I482
sS'contours'
p10
(tsS'components'
p11
(tsS'anchors'
p12
(tsss."
LayerCount: 2
Fore
SplineSet
140 -325 m 0
 69 -325 13 -306 -27 -284 c 1
 2 -177 l 1
 29 -189 65 -207 118 -207 c 0
 177 -207 214 -182 214 -91 c 2
 214 1023 l 1
 356 1023 l 1
 356 -12 l 2
 356 -217 322 -325 140 -325 c 0
EndSplineSet
EndChar

StartChar: uni0307
Encoding: 373 775 347
Width: 539
VWidth: 0
Flags: HW
LayerCount: 2
Fore
SplineSet
270 1268 m 0
 189 1268 148 1331 148 1393 c 0
 148 1455 189 1517 270 1517 c 0
 351 1517 392 1455 392 1393 c 0
 392 1331 351 1268 270 1268 c 0
EndSplineSet
EndChar

StartChar: uni030F
Encoding: 377 783 348
Width: 745
VWidth: 0
Flags: HW
PickledData: "(dp1
S'com.typemytype.robofont.layerData'
p2
(dp3
S'b'
(dp4
S'name'
p5
S'uni030F'
p6
sS'lib'
p7
(dp8
sS'unicodes'
p9
(tsS'width'
p10
I745
sS'contours'
p11
(tsS'components'
p12
(tsS'anchors'
p13
(tsss."
LayerCount: 2
Fore
SplineSet
580 1492 m 1
 685 1172 l 1
 619 1172 l 1
 391 1492 l 1
 580 1492 l 1
282 1492 m 1
 417 1172 l 1
 344 1172 l 1
 87 1492 l 1
 282 1492 l 1
EndSplineSet
EndChar

StartChar: uni0311
Encoding: 378 785 349
Width: 805
VWidth: 0
Flags: HW
PickledData: "(dp1
S'com.typemytype.robofont.layerData'
p2
(dp3
S'b'
(dp4
S'name'
p5
S'uni0311'
p6
sS'lib'
p7
(dp8
sS'unicodes'
p9
(tsS'width'
p10
I805
sS'contours'
p11
(tsS'components'
p12
(tsS'anchors'
p13
(tsss."
LayerCount: 2
Fore
SplineSet
402 1437 m 0
 549 1437 674 1362 678 1182 c 1
 562 1182 l 1
 562 1289 501 1334 402 1334 c 0
 302 1334 242 1289 242 1182 c 1
 126 1182 l 1
 130 1362 255 1437 402 1437 c 0
EndSplineSet
EndChar

StartChar: uni0326
Encoding: 379 806 350
Width: 409
VWidth: 0
Flags: HW
LayerCount: 2
Fore
SplineSet
210 -168 m 1
 100 -168 l 1
 100 0 l 1
 300 0 l 1
 300 -160 l 2
 300 -279 233 -397 190 -397 c 1
 143 -375 l 1
 201 -332 209 -219 210 -168 c 1
EndSplineSet
EndChar

StartChar: uni2074
Encoding: 509 8308 351
Width: 1441
VWidth: 0
Flags: HW
LayerCount: 2
Fore
SplineSet
590 924 m 1
 239 924 l 1
 239 992 l 1
 559 1465 l 1
 705 1465 l 1
 705 1006 l 1
 805 1006 l 1
 805 924 l 1
 705 924 l 1
 705 772 l 1
 590 772 l 1
 590 924 l 1
353 1006 m 1
 590 1006 l 1
 590 1357 l 1
 353 1006 l 1
EndSplineSet
EndChar

StartChar: uniFB01
Encoding: 516 64257 352
Width: 1071
VWidth: 0
Flags: HW
LayerCount: 2
Fore
SplineSet
793 1242 m 1
 793 1421 l 1
 934 1421 l 1
 934 1242 l 1
 793 1242 l 1
468 1365 m 0
 368 1365 367 1275 367 1137 c 2
 367 1023 l 1
 937 1023 l 1
 937 0 l 1
 795 0 l 1
 795 917 l 1
 367 917 l 1
 367 -1 l 1
 225 -1 l 1
 225 917 l 1
 52 917 l 1
 52 1023 l 1
 225 1023 l 1
 225 1140 l 2
 225 1361 284 1471 459 1471 c 0
 517 1471 571 1454 615 1430 c 1
 581 1338 l 1
 541 1353 500 1365 468 1365 c 0
EndSplineSet
EndChar

StartChar: uniFB02
Encoding: 517 64258 353
Width: 1072
VWidth: 0
Flags: HW
LayerCount: 2
Fore
SplineSet
468 1365 m 0
 368 1365 367 1275 367 1137 c 2
 367 1023 l 1
 795 1023 l 1
 795 1474 l 1
 937 1474 l 1
 937 0 l 1
 795 0 l 1
 795 917 l 1
 367 917 l 1
 367 -1 l 1
 225 -1 l 1
 225 917 l 1
 52 917 l 1
 52 1023 l 1
 225 1023 l 1
 225 1140 l 2
 225 1361 284 1471 459 1471 c 0
 517 1471 571 1454 615 1430 c 1
 581 1338 l 1
 541 1353 500 1365 468 1365 c 0
EndSplineSet
EndChar

StartChar: v
Encoding: 86 118 356
Width: 952
VWidth: 0
Flags: HW
PickledData: "(dp1
S'com.typemytype.robofont.layerData'
p2
(dp3
s."
LayerCount: 2
Fore
SplineSet
788 1023 m 1
 926 1023 l 1
 532 0 l 1
 406 0 l 1
 23 1023 l 1
 167 1023 l 1
 476 174 l 1
 788 1023 l 1
EndSplineSet
EndChar

StartChar: w
Encoding: 87 119 357
Width: 1487
VWidth: 0
Flags: HW
PickledData: "(dp1
S'com.typemytype.robofont.layerData'
p2
(dp3
s."
LayerCount: 2
Fore
SplineSet
350 0 m 1
 27 1023 l 1
 173 1023 l 1
 419 177 l 1
 705 1023 l 1
 791 1023 l 1
 1061 177 l 1
 1323 1023 l 1
 1461 1023 l 1
 1117 0 l 1
 991 0 l 1
 742 792 l 1
 475 0 l 1
 350 0 l 1
EndSplineSet
EndChar

StartChar: x
Encoding: 88 120 358
Width: 966
VWidth: 0
Flags: HW
PickledData: "(dp1
S'com.typemytype.robofont.layerData'
p2
(dp3
S'b'
(dp4
S'name'
p5
S'x'
sS'lib'
p6
(dp7
sS'unicodes'
p8
(tsS'width'
p9
I966
sS'contours'
p10
(tsS'components'
p11
(tsS'anchors'
p12
(tsss."
LayerCount: 2
Fore
SplineSet
32 1023 m 1
 188 1023 l 1
 486 616 l 1
 773 1023 l 1
 926 1023 l 1
 559 517 l 1
 938 0 l 1
 782 0 l 1
 479 414 l 1
 184 0 l 1
 31 0 l 1
 405 515 l 1
 32 1023 l 1
EndSplineSet
EndChar

StartChar: y
Encoding: 89 121 359
Width: 971
VWidth: 0
Flags: HW
PickledData: "(dp1
S'com.typemytype.robofont.layerData'
p2
(dp3
S'b'
(dp4
S'name'
p5
S'y'
sS'lib'
p6
(dp7
sS'unicodes'
p8
(tsS'width'
p9
I971
sS'contours'
p10
(tsS'components'
p11
(tsS'anchors'
p12
(tsss."
LayerCount: 2
Fore
SplineSet
187 -320 m 0
 154 -319 119 -316 82 -306 c 1
 98 -191 l 1
 131 -196 159 -199 185 -199 c 0
 300 -199 351 -155 404 4 c 2
 424 64 l 1
 52 1023 l 1
 198 1023 l 1
 496 211 l 1
 793 1023 l 1
 933 1023 l 1
 582 97 l 2
 473 -191 403 -329 187 -320 c 0
EndSplineSet
EndChar

StartChar: yen
Encoding: 101 165 362
Width: 1162
VWidth: 0
Flags: HW
PickledData: "(dp1
S'com.typemytype.robofont.layerData'
p2
(dp3
s."
LayerCount: 2
Fore
SplineSet
256 544 m 1
 256 630 l 1
 910 630 l 1
 910 544 l 1
 256 544 l 1
910 420 m 1
 910 334 l 1
 256 334 l 1
 256 420 l 1
 910 420 l 1
EndSplineSet
Refer: 108 89 N 1 0 0 1 0 0 2
EndChar

StartChar: z
Encoding: 90 122 363
Width: 879
VWidth: 0
Flags: HW
PickledData: "(dp1
S'com.typemytype.robofont.layerData'
p2
(dp3
s."
LayerCount: 2
Fore
SplineSet
86 919 m 1
 86 1023 l 1
 822 1023 l 1
 822 928 l 1
 227 103 l 1
 820 103 l 1
 820 0 l 1
 66 0 l 1
 66 94 l 1
 653 919 l 1
 86 919 l 1
EndSplineSet
EndChar

StartChar: zero
Encoding: 16 48 367
Width: 1246
VWidth: 0
Flags: HW
PickledData: "(dp1
S'com.typemytype.robofont.layerData'
p2
(dp3
s."
LayerCount: 2
Fore
SplineSet
114 724 m 0
 114 1186 283 1489 623 1489 c 0
 963 1489 1132 1186 1132 724 c 0
 1132 262 963 -24 623 -24 c 0
 283 -24 114 262 114 724 c 0
269 724 m 0
 269 297 390 93 623 93 c 0
 856 93 977 297 977 724 c 0
 977 1151 856 1372 623 1372 c 0
 390 1372 269 1151 269 724 c 0
EndSplineSet
EndChar

StartChar: uni0302
Encoding: 369 770 370
Width: 838
VWidth: 0
Flags: HW
LayerCount: 2
Fore
SplineSet
337 1492 m 1
 512 1492 l 1
 697 1172 l 1
 600 1172 l 1
 424 1425 l 1
 249 1172 l 1
 152 1172 l 1
 337 1492 l 1
EndSplineSet
EndChar

StartChar: uni030C
Encoding: 376 780 371
Width: 838
VWidth: 0
Flags: HW
LayerCount: 2
Fore
SplineSet
337 1172 m 1
 152 1492 l 1
 249 1492 l 1
 424 1239 l 1
 600 1492 l 1
 697 1492 l 1
 512 1172 l 1
 337 1172 l 1
EndSplineSet
EndChar

StartChar: uni030A
Encoding: 375 778 372
Width: 728
VWidth: 0
Flags: HW
LayerCount: 2
Fore
SplineSet
364 1390 m 0
 270 1390 222 1313 222 1239 c 0
 222 1165 270 1088 364 1088 c 0
 458 1088 506 1165 506 1239 c 0
 506 1313 458 1390 364 1390 c 0
364 1004 m 0
 216 1004 124 1115 124 1239 c 0
 124 1363 216 1474 364 1474 c 0
 512 1474 604 1363 604 1239 c 0
 604 1115 512 1004 364 1004 c 0
EndSplineSet
EndChar

StartChar: uni0306
Encoding: 372 774 373
Width: 805
VWidth: 0
Flags: HW
LayerCount: 2
Fore
SplineSet
402 1183 m 0
 255 1183 130 1258 126 1438 c 1
 242 1438 l 1
 242 1331 303 1286 402 1286 c 0
 502 1286 562 1331 562 1438 c 1
 678 1438 l 1
 674 1258 549 1183 402 1183 c 0
EndSplineSet
EndChar

StartChar: tildecomb
Encoding: 370 771 374
Width: 798
VWidth: 0
Flags: HW
LayerCount: 2
Fore
SplineSet
260 1288 m 1
 236 1288 223 1260 223 1200 c 1
 127 1200 l 1
 103 1376 203 1394 253 1391 c 0
 331 1386 485 1306 535 1299 c 0
 572 1294 576 1336 576 1395 c 1
 673 1395 l 1
 686 1219 612 1198 545 1202 c 0
 451 1208 316 1284 260 1288 c 1
EndSplineSet
EndChar

StartChar: uni0308
Encoding: 374 776 375
Width: 860
VWidth: 0
Flags: HW
LayerCount: 2
Fore
SplineSet
680 1365 m 1
 680 1191 l 1
 514 1191 l 1
 514 1365 l 1
 680 1365 l 1
135 1365 m 1
 301 1365 l 1
 301 1191 l 1
 135 1191 l 1
 135 1365 l 1
EndSplineSet
EndChar

StartChar: gravecomb
Encoding: 367 768 376
Width: 496
VWidth: 0
Flags: HW
LayerCount: 2
Fore
SplineSet
47 1492 m 1
 242 1492 l 1
 447 1173 l 1
 353 1172 l 1
 47 1492 l 1
EndSplineSet
EndChar

StartChar: acutecomb
Encoding: 368 769 377
Width: 496
VWidth: 0
Flags: HW
LayerCount: 2
Fore
SplineSet
447 1492 m 1
 141 1172 l 1
 47 1173 l 1
 252 1492 l 1
 447 1492 l 1
EndSplineSet
EndChar

StartChar: uni0304
Encoding: 371 772 378
Width: 724
VWidth: 0
Flags: HW
LayerCount: 2
Fore
SplineSet
135 1209 m 1
 135 1309 l 1
 589 1309 l 1
 589 1209 l 1
 135 1209 l 1
EndSplineSet
EndChar

StartChar: uni00AD
Encoding: 109 173 400
Width: 724
VWidth: 0
Flags: HW
LayerCount: 2
Fore
SplineSet
100 400 m 1
 100 511 l 1
 600 511 l 1
 600 400 l 1
 100 400 l 1
EndSplineSet
EndChar

StartChar: eng
Encoding: 264 331 402
Width: 1086
VWidth: 0
Flags: HW
LayerCount: 2
Fore
SplineSet
965 40 m 2
 965 -225 821 -414 578 -414 c 0
 465 -414 332 -374 181 -282 c 1
 231 -189 l 1
 354 -263 465 -299 556 -299 c 0
 722 -299 823 -181 823 36 c 2
 823 102 l 1
 965 102 l 1
 965 40 l 2
EndSplineSet
Refer: 234 110 N 1 0 0 1 0 0 2
EndChar

StartChar: Eng
Encoding: 263 330 403
Width: 1491
VWidth: 0
Flags: HW
LayerCount: 2
Fore
SplineSet
1342 6 m 2
 1342 -306 1169 -439 952 -439 c 0
 827 -439 688 -395 558 -316 c 1
 608 -223 l 1
 715 -287 831 -329 933 -329 c 0
 1083 -329 1200 -239 1200 2 c 2
 1200 102 l 1
 1342 102 l 1
 1342 6 l 2
EndSplineSet
Refer: 64 78 N 1 0 0 1 0 0 2
EndChar

StartChar: Tbar
Encoding: 291 358 404
Width: 1119
VWidth: 0
Flags: HW
LayerCount: 2
Fore
SplineSet
237 799 m 1
 888 799 l 1
 888 701 l 1
 237 701 l 1
 237 799 l 1
EndSplineSet
Refer: 92 84 N 1 0 0 1 0 0 2
EndChar

StartChar: tbar
Encoding: 292 359 405
Width: 656
VWidth: 0
Flags: HW
LayerCount: 2
Fore
SplineSet
11 632 m 1
 573 632 l 1
 573 534 l 1
 11 534 l 1
 11 632 l 1
EndSplineSet
Refer: 297 116 N 1 0 0 1 0 0 2
EndChar
